<svg width="43" height="43" viewBox="0 0 43 43" fill="none" xmlns="http://www.w3.org/2000/svg">
<path d="M21.4173 28.6596C25.3887 28.6596 28.6183 25.4437 28.6183 21.4894C28.6183 17.535 25.3887 14.3191 21.4173 14.3191C17.4459 14.3191 14.2162 17.535 14.2162 21.4894C14.2162 25.4437 17.4459 28.6596 21.4173 28.6596ZM21.4173 17.9042C23.403 17.9042 25.0178 19.5122 25.0178 21.4894C25.0178 23.4665 23.403 25.0745 21.4173 25.0745C19.4316 25.0745 17.8167 23.4665 17.8167 21.4894C17.8167 19.5122 19.4316 17.9042 21.4173 17.9042ZM32.2189 41.2074C32.2189 42.1987 31.4124 43 30.4186 43C29.4249 43 28.6183 42.1987 28.6183 41.2074C28.6183 37.2531 25.3887 34.0372 21.4173 34.0372C17.4459 34.0372 14.2162 37.2531 14.2162 41.2074C14.2162 42.1987 13.4097 43 12.4159 43C11.4222 43 10.6156 42.1987 10.6156 41.2074C10.6156 35.2759 15.4602 30.4521 21.4173 30.4521C27.3744 30.4521 32.2189 35.2759 32.2189 41.2074ZM10.2574 17.042C10.6463 18.0978 9.31585 19.082 8.41212 18.4097L6.05556 16.7749L3.70621 18.4097C2.80968 19.0802 1.48828 18.1122 1.86634 17.06L2.70346 14.45L0.508934 12.9281C-0.457811 12.3025 0.0516653 10.6677 1.20744 10.7054H4.07887L4.74677 8.15814C5.04921 6.83523 7.07632 6.83702 7.37876 8.15814L8.04666 10.7054H10.9001C12.0523 10.6677 12.5599 12.2918 11.5968 12.9174L9.39867 14.4464L10.2556 17.0402L10.2574 17.042ZM42.4948 12.9192L40.2967 14.4482L41.1536 17.042C41.5425 18.0978 40.2121 19.082 39.3083 18.4097L36.9518 16.7749L34.6024 18.4097C33.7059 19.0802 32.3863 18.1104 32.7626 17.06L33.5997 14.45L31.4052 12.9281C30.4384 12.3025 30.9479 10.6677 32.1037 10.7054H34.9751L35.643 8.15814C35.9454 6.83523 37.9725 6.83702 38.275 8.15814L38.9429 10.7054H41.7963C42.9485 10.6677 43.4562 12.2918 42.493 12.9174L42.4948 12.9192ZM15.3828 4.48699C15.5034 3.93488 15.9949 3.53693 16.5637 3.53873H19.4352L20.1031 0.991506C20.4055 -0.331398 22.4326 -0.329606 22.7351 0.991506L23.403 3.53873H26.2564C27.4086 3.50108 27.9162 5.12514 26.9531 5.75074L24.755 7.27978L25.6119 9.87361C26.0008 10.9294 24.6686 11.9135 23.7666 11.2413L21.4101 9.60652L19.0607 11.2413C18.1642 11.9117 16.8428 10.9438 17.2208 9.89154L18.058 7.28158L15.8634 5.7597C15.453 5.47468 15.2639 4.96918 15.3828 4.48699Z" fill="#DC6339"/>
</svg>
