<svg width="39" height="38" viewBox="0 0 39 38" fill="none" xmlns="http://www.w3.org/2000/svg">
<path d="M19.5 26.4348V33.0435C19.5 33.9522 18.7688 34.6957 17.875 34.6957H11.375C10.4813 34.6957 9.75 33.9522 9.75 33.0435C9.75 32.1348 10.4813 31.3913 11.375 31.3913H16.25V28.087H8.125C3.64 28.087 0 24.3861 0 19.8261V8.26087C0 3.70087 3.64 0 8.125 0H27.625C32.11 0 35.75 3.70087 35.75 8.26087C35.75 9.16957 35.0187 9.91304 34.125 9.91304C33.2313 9.91304 32.5 9.16957 32.5 8.26087C32.5 5.53478 30.3063 3.30435 27.625 3.30435H8.125C5.44375 3.30435 3.25 5.53478 3.25 8.26087V19.8261C3.25 22.5522 5.44375 24.7826 8.125 24.7826H17.875C18.7688 24.7826 19.5 25.5261 19.5 26.4348ZM39 19.8261V31.3913C39 35.0426 36.0913 38 32.5 38H29.25C25.6588 38 22.75 35.0426 22.75 31.3913V19.8261C22.75 16.1748 25.6588 13.2174 29.25 13.2174H32.5C36.0913 13.2174 39 16.1748 39 19.8261ZM35.75 19.8261C35.75 18.0087 34.2875 16.5217 32.5 16.5217H29.25C27.4625 16.5217 26 18.0087 26 19.8261V31.3913C26 33.2087 27.4625 34.6957 29.25 34.6957H32.5C34.2875 34.6957 35.75 33.2087 35.75 31.3913V19.8261Z" fill="#DC6339"/>
</svg>
