<svg width="40" height="40" viewBox="0 0 40 40" fill="none" xmlns="http://www.w3.org/2000/svg">
<g clip-path="url(#clip0_222_11227)">
<path d="M28.5241 13.4168C28.0462 13.5438 27.6168 13.8096 27.29 14.1806C26.9632 14.5516 26.7537 15.0112 26.6881 15.5013C26.6225 15.9913 26.7037 16.4898 26.9214 16.9337C27.1391 17.3776 27.4835 17.747 27.9111 17.9952C28.3387 18.2434 28.8303 18.3592 29.3238 18.328C29.8172 18.2968 30.2903 18.12 30.6833 17.82C31.0762 17.5199 31.3714 17.1101 31.5314 16.6423C31.6915 16.1745 31.7092 15.6697 31.5824 15.1918C31.4982 14.8744 31.3523 14.5768 31.153 14.3158C30.9537 14.0548 30.7049 13.8356 30.4209 13.6708C30.1369 13.506 29.8232 13.3987 29.4978 13.3551C29.1723 13.3115 28.8414 13.3325 28.5241 13.4168Z" fill="#DC6339"/>
<path d="M20.192 8.41683C19.7142 8.54379 19.2847 8.80958 18.9579 9.18061C18.6311 9.55163 18.4217 10.0112 18.3561 10.5013C18.2905 10.9913 18.3717 11.4898 18.5893 11.9337C18.807 12.3776 19.1515 12.747 19.5791 12.9952C20.0067 13.2434 20.4983 13.3592 20.9917 13.328C21.4852 13.2968 21.9583 13.12 22.3512 12.82C22.7442 12.5199 23.0393 12.1101 23.1994 11.6423C23.3594 11.1745 23.3772 10.6697 23.2504 10.1918C23.1661 9.87444 23.0202 9.57676 22.8209 9.31577C22.6217 9.05479 22.3729 8.83562 22.0889 8.67079C21.8049 8.50596 21.4912 8.39869 21.1657 8.35512C20.8403 8.31154 20.5094 8.33251 20.192 8.41683Z" fill="#DC6339"/>
<path d="M11.858 13.4168C11.3802 13.5438 10.9507 13.8096 10.6239 14.1806C10.2972 14.5516 10.0877 15.0112 10.0221 15.5013C9.9565 15.9913 10.0377 16.4898 10.2554 16.9337C10.473 17.3776 10.8175 17.747 11.2451 17.9952C11.6727 18.2434 12.1643 18.3592 12.6577 18.328C13.1512 18.2968 13.6243 18.12 14.0172 17.82C14.4102 17.5199 14.7054 17.1101 14.8654 16.6423C15.0254 16.1745 15.0432 15.6697 14.9164 15.1918C14.8322 14.8744 14.6862 14.5768 14.487 14.3158C14.2877 14.0548 14.0389 13.8356 13.7549 13.6708C13.4709 13.506 13.1572 13.3987 12.8317 13.3551C12.5063 13.3115 12.1754 13.3325 11.858 13.4168Z" fill="#DC6339"/>
<path d="M11.858 23.4168C11.3802 23.5438 10.9507 23.8096 10.6239 24.1806C10.2972 24.5516 10.0877 25.0112 10.0221 25.5013C9.9565 25.9913 10.0377 26.4898 10.2554 26.9337C10.473 27.3776 10.8175 27.747 11.2451 27.9952C11.6727 28.2434 12.1643 28.3592 12.6577 28.328C13.1512 28.2968 13.6243 28.12 14.0172 27.82C14.4102 27.5199 14.7054 27.1101 14.8654 26.6423C15.0254 26.1745 15.0432 25.6697 14.9164 25.1918C14.8322 24.8744 14.6862 24.5768 14.487 24.3158C14.2877 24.0548 14.0389 23.8356 13.7549 23.6708C13.4709 23.506 13.1572 23.3987 12.8317 23.3551C12.5063 23.3115 12.1754 23.3325 11.858 23.4168Z" fill="#DC6339"/>
<path d="M20.8337 0.01208C18.1503 -0.0812229 15.4756 0.36673 12.9691 1.32923C10.4626 2.29174 8.17553 3.74908 6.24428 5.61439C4.31303 7.47969 2.77713 9.71476 1.72816 12.1864C0.679189 14.6579 0.138616 17.3154 0.138672 20.0004C0.144847 25.3028 2.25397 30.3863 6.00336 34.1357C9.75275 37.8851 14.8362 39.9942 20.1387 40.0004C20.702 40.0004 21.2553 39.9637 21.8053 39.9171C22.2227 39.8819 22.6115 39.6909 22.8943 39.3821C23.1772 39.0732 23.3335 38.6692 23.332 38.2504L23.2787 32.2704C23.2652 31.0887 23.6042 29.9298 24.2524 28.9416C24.9006 27.9535 25.8287 27.181 26.918 26.7227C28.0073 26.2644 29.2085 26.1412 30.3682 26.3688C31.5278 26.5964 32.5933 27.1644 33.4287 28.0004L33.5953 28.1671C33.9737 28.5487 34.4424 28.8284 34.9579 28.9802C35.4734 29.132 36.0189 29.151 36.5437 29.0354C37.06 28.927 37.5408 28.6906 37.9418 28.3478C38.3428 28.005 38.6512 27.5669 38.8387 27.0737C39.7589 24.6576 40.1987 22.0851 40.1337 19.5004C39.9461 14.4238 37.858 9.60288 34.2833 5.9933C30.7086 2.38372 25.9083 0.248934 20.8337 0.01208ZM35.8037 25.6787L35.7803 25.6554C34.4776 24.3548 32.8174 23.4711 31.011 23.1168C29.2045 22.7625 27.3335 22.9535 25.636 23.6656C23.9384 24.3777 22.4911 25.5786 21.478 27.1156C20.465 28.6527 19.932 30.4563 19.947 32.2971L19.987 36.6671C15.5667 36.6472 11.3354 34.8722 8.22386 31.7325C5.11232 28.5928 3.37545 24.3457 3.39534 19.9254C3.41523 15.5051 5.19025 11.2738 8.32992 8.16227C11.4696 5.05073 15.7167 3.31386 20.137 3.33375C20.332 3.33375 20.5287 3.33375 20.7253 3.34375C24.9526 3.5423 28.9511 5.32165 31.9284 8.32919C34.9057 11.3367 36.6445 15.353 36.8003 19.5821C36.8554 21.6547 36.5189 23.7191 35.8087 25.6671L35.8037 25.6787Z" fill="#DC6339"/>
</g>
<defs>
<clipPath id="clip0_222_11227">
<rect width="40" height="40" fill="white"/>
</clipPath>
</defs>
</svg>
