<svg width="40" height="40" viewBox="0 0 40 40" fill="none" xmlns="http://www.w3.org/2000/svg">
<path d="M28.3269 0C27.885 0 27.4612 0.175595 27.1487 0.488155C26.8362 0.800716 26.6606 1.22464 26.6606 1.66667C26.6606 6.58167 22.3566 8.33333 18.3292 8.33333H6.66516C4.89745 8.33333 3.20214 9.03571 1.95218 10.286C0.702221 11.5362 0 13.2319 0 15L0 18.3333C0.00363945 19.3312 0.232384 20.3154 0.669186 21.2126C1.10599 22.1098 1.73959 22.8968 2.52276 23.515L8.47475 36.8017C8.89805 37.7535 9.58812 38.5622 10.4614 39.1298C11.3347 39.6974 12.3538 39.9997 13.3953 40C14.224 39.9995 15.0393 39.7916 15.7672 39.3955C16.4951 38.9993 17.1123 38.4273 17.5628 37.7316C18.0132 37.0359 18.2826 36.2386 18.3463 35.4122C18.41 34.5858 18.2661 33.7566 17.9276 33L14.2618 25H18.3292C22.3566 25 26.6606 26.7517 26.6606 31.6667C26.6606 32.1087 26.8362 32.5326 27.1487 32.8452C27.4612 33.1577 27.885 33.3333 28.3269 33.3333C28.7689 33.3333 29.1927 33.1577 29.5052 32.8452C29.8177 32.5326 29.9932 32.1087 29.9932 31.6667V1.66667C29.9932 1.22464 29.8177 0.800716 29.5052 0.488155C29.1927 0.175595 28.7689 0 28.3269 0ZM14.8916 34.365C15.002 34.6143 15.0484 34.8872 15.0267 35.159C15.0049 35.4308 14.9157 35.6929 14.7671 35.9214C14.6185 36.15 14.4152 36.3379 14.1757 36.468C13.9361 36.5982 13.6679 36.6664 13.3953 36.6667C12.9977 36.6664 12.6088 36.5506 12.2757 36.3335C11.9426 36.1163 11.6798 35.8071 11.5191 35.4433L6.84012 25H10.5959L14.8916 34.365ZM26.6606 24.3333C24.28 22.4986 21.3325 21.5552 18.3292 21.6667H6.66516C5.78131 21.6667 4.93365 21.3155 4.30867 20.6904C3.68369 20.0652 3.33258 19.2174 3.33258 18.3333V15C3.33258 14.1159 3.68369 13.2681 4.30867 12.643C4.93365 12.0179 5.78131 11.6667 6.66516 11.6667H18.3292C21.3314 11.7805 24.2789 10.84 26.6606 9.00833V24.3333ZM39.8243 25.7533C39.7266 25.9493 39.5912 26.1241 39.4259 26.2676C39.2606 26.4112 39.0686 26.5208 38.861 26.5902C38.6533 26.6595 38.434 26.6872 38.2156 26.6718C37.9972 26.6563 37.784 26.5979 37.5882 26.5L34.2556 24.8333C33.8601 24.6357 33.5592 24.2891 33.4192 23.8696C33.2792 23.4502 33.3116 22.9923 33.5091 22.5967C33.7066 22.2011 34.0532 21.9001 34.4726 21.7601C34.8919 21.6201 35.3497 21.6524 35.7453 21.85L39.0778 23.5167C39.4713 23.7141 39.7707 24.0593 39.9106 24.4768C40.0504 24.8944 40.0194 25.3503 39.8243 25.745V25.7533ZM33.5091 10.7533C33.4112 10.5575 33.3528 10.3442 33.3374 10.1258C33.3219 9.90733 33.3496 9.68799 33.419 9.48027C33.4883 9.27255 33.5979 9.08053 33.7414 8.91519C33.885 8.74985 34.0597 8.61443 34.2556 8.51667L37.5882 6.85C37.9837 6.65241 38.4415 6.62008 38.8609 6.7601C39.2802 6.90013 39.6268 7.20105 39.8243 7.59667C40.0219 7.99228 40.0542 8.45018 39.9142 8.86964C39.7742 9.2891 39.4734 9.63575 39.0778 9.83333L35.7453 11.5C35.5494 11.5979 35.3362 11.6563 35.1178 11.6718C34.8995 11.6872 34.6802 11.6595 34.4725 11.5902C34.2648 11.5208 34.0728 11.4112 33.9075 11.2676C33.7422 11.1241 33.6068 10.9493 33.5091 10.7533ZM33.3258 16.6667C33.3258 16.2246 33.5014 15.8007 33.8139 15.4882C34.1263 15.1756 34.5502 15 34.9921 15H38.3247C38.7666 15 39.1904 15.1756 39.5029 15.4882C39.8154 15.8007 39.991 16.2246 39.991 16.6667C39.991 17.1087 39.8154 17.5326 39.5029 17.8452C39.1904 18.1577 38.7666 18.3333 38.3247 18.3333H34.9921C34.5502 18.3333 34.1263 18.1577 33.8139 17.8452C33.5014 17.5326 33.3258 17.1087 33.3258 16.6667Z" fill="#DC6339"/>
</svg>
