<svg width="44" height="29" viewBox="0 0 44 29" fill="none" xmlns="http://www.w3.org/2000/svg">
<path d="M42.1667 7.25H40.1482C39.2957 3.11931 35.5923 0 31.1667 0H9.16667C4.11217 0 0 4.06544 0 9.0625V19.9375C0 24.9346 4.11217 29 9.16667 29H31.1667C35.5923 29 39.2975 25.8807 40.1482 21.75H42.1667C43.1787 21.75 44 20.938 44 19.9375V9.0625C44 8.062 43.1787 7.25 42.1667 7.25ZM31.1667 25.375H9.16667C6.13433 25.375 3.66667 22.9354 3.66667 19.9375V9.0625C3.66667 6.06462 6.13433 3.625 9.16667 3.625H31.1667C34.199 3.625 36.6667 6.06462 36.6667 9.0625V19.9375C36.6667 22.9354 34.199 25.375 31.1667 25.375ZM20.1667 7.25H9.16667C8.15467 7.25 7.33333 8.062 7.33333 9.0625V19.9375C7.33333 20.938 8.15467 21.75 9.16667 21.75H20.1667C21.1787 21.75 22 20.938 22 19.9375V9.0625C22 8.062 21.1787 7.25 20.1667 7.25Z" fill="#DC6339"/>
</svg>
