<svg width="37" height="37" viewBox="0 0 37 37" fill="none" xmlns="http://www.w3.org/2000/svg">
<path d="M35.6103 26.4977V33.4664C35.6103 34.5533 34.2851 35.0975 33.5105 34.3282L31.1898 32.0279C27.7678 35.1761 23.2524 37 18.5006 37C9.2707 37.0015 1.32869 30.1825 0.0236825 21.1402C-0.158303 19.876 0.728291 18.7043 2.00374 18.5239C3.26675 18.342 4.45976 19.2223 4.6433 20.4865C5.62011 27.264 11.5774 32.3764 18.4991 32.3764C22.005 32.3764 25.3429 31.0566 27.8954 28.7656L25.8609 26.749C25.0863 25.9812 25.6354 24.6677 26.7304 24.6677H33.7609C34.7813 24.6677 35.6072 25.4864 35.6072 26.4977H35.6103ZM36.9775 15.8613C35.6725 6.81908 27.7305 0 18.5006 0C13.7488 0 9.23337 1.82387 5.81143 4.97208L3.49229 2.67336C2.71768 1.90558 1.39246 2.44981 1.39246 3.53519V10.5038C1.39246 11.5152 2.21839 12.3338 3.23875 12.3338H10.2677C11.3643 12.3338 11.9134 11.0203 11.1372 10.2525L9.10427 8.23593C11.6552 5.94491 14.9947 4.62519 18.5006 4.62519C25.4223 4.62519 31.3796 9.73603 32.3564 16.515C32.5228 17.6682 33.5214 18.5008 34.6631 18.5008C34.7719 18.5008 34.8855 18.4931 34.9959 18.4776C36.2714 18.2973 37.1611 17.1255 36.9775 15.8613ZM20.5242 8.06634C19.4401 7.38489 17.9951 7.70403 17.306 8.78632C17.306 8.78632 12.4811 16.4102 12.4204 16.6106C12.1202 17.5942 12.3116 18.6719 12.9275 19.4983C13.545 20.3231 14.5327 20.8149 15.5686 20.8149H18.9097L15.7522 25.7407C15.0631 26.8184 15.3835 28.2491 16.4708 28.9337C16.8596 29.1773 17.292 29.2929 17.7213 29.2929C18.4928 29.2929 19.2472 28.9136 19.6936 28.2214L24.1764 21.2235C24.8436 20.226 24.9027 18.951 24.3319 17.898C23.7626 16.8434 22.6567 16.1897 21.4497 16.1897H18.1086L21.2522 11.2577C21.9397 10.177 21.6146 8.74778 20.5242 8.06634Z" fill="#DC6339"/>
</svg>
