<svg width="29" height="44" viewBox="0 0 29 44" fill="none" xmlns="http://www.w3.org/2000/svg">
<path d="M13.1507 44C12.5579 43.9978 11.9727 43.8652 11.4355 43.6113C10.558 43.2154 9.85332 42.5086 9.45359 41.6235C9.05386 40.7385 8.9866 39.7361 9.26442 38.8043L12.0886 29.3334H5.43426C4.58646 29.3344 3.7502 29.1342 2.99252 28.7487C2.23484 28.3633 1.57679 27.8034 1.07113 27.1138C0.565462 26.4243 0.226237 25.6243 0.0806396 24.7779C-0.0649582 23.9316 -0.0128804 23.0625 0.2327 22.2402L5.70384 3.90692C6.03733 2.77296 6.72477 1.7792 7.66297 1.07477C8.60118 0.370342 9.73954 -0.00674964 10.9072 9.14636e-05H17.5887C18.3482 0.000735224 19.0961 0.187689 19.7688 0.544975C20.4414 0.902261 21.0186 1.41926 21.4512 2.05178C21.8838 2.6843 22.1588 3.41354 22.2527 4.17718C22.3466 4.94082 22.2567 5.71615 21.9906 6.43691L18.9456 14.6667H23.5719C24.558 14.6667 25.5255 14.9388 26.3705 15.454C27.2155 15.9691 27.906 16.7078 28.3679 17.5907C28.8297 18.4736 29.0455 19.4673 28.992 20.4651C28.9385 21.4629 28.6178 22.4271 28.0642 23.254L16.4851 42.1373C16.1271 42.7054 15.6344 43.1735 15.0519 43.4989C14.4694 43.8243 13.8158 43.9966 13.1507 44ZM10.9072 3.66675C10.5187 3.66637 10.1403 3.79274 9.82817 4.02717C9.51602 4.26159 9.28663 4.59162 9.17395 4.96841L3.70282 23.3017C3.6209 23.5756 3.60342 23.8652 3.65177 24.1472C3.70012 24.4292 3.81296 24.6958 3.98126 24.9257C4.14956 25.1556 4.36863 25.3423 4.62094 25.471C4.87325 25.5997 5.15179 25.6667 5.43426 25.6667H14.5257C14.8081 25.6667 15.0867 25.7337 15.339 25.8624C15.5913 25.9911 15.8104 26.1778 15.9787 26.4077C16.147 26.6376 16.2598 26.9042 16.3082 27.1862C16.3565 27.4682 16.339 27.7578 16.2571 28.0317L12.7345 39.842C12.7182 39.8855 12.711 39.9319 12.7134 39.9783C12.7157 40.0247 12.7276 40.0701 12.7482 40.1117C12.7687 40.1532 12.7976 40.19 12.833 40.2196C12.8683 40.2493 12.9093 40.2711 12.9535 40.2838C12.9934 40.3098 13.0384 40.327 13.0853 40.3343C13.1323 40.3416 13.1802 40.3389 13.2261 40.3263C13.2719 40.3137 13.3147 40.2915 13.3515 40.2611C13.3884 40.2308 13.4186 40.1929 13.4401 40.15L25.0193 21.2667C25.2217 20.9884 25.3424 20.6578 25.3674 20.3129C25.3924 19.9681 25.3206 19.6231 25.1604 19.3179C25.0119 19.0205 24.7847 18.7709 24.5041 18.597C24.2235 18.4232 23.9007 18.3319 23.5719 18.3334H16.3349C16.0425 18.3336 15.7544 18.2619 15.4953 18.1246C15.2362 17.9873 15.0138 17.7884 14.8471 17.5449C14.6805 17.3014 14.5745 17.0206 14.5384 16.7266C14.5023 16.4325 14.537 16.134 14.6397 15.8566L18.6019 5.14991C18.6628 4.98392 18.6832 4.80548 18.6614 4.62977C18.6397 4.45406 18.5764 4.28627 18.4769 4.14067C18.3774 3.99506 18.2447 3.87594 18.0901 3.79343C17.9355 3.71092 17.7635 3.66746 17.5887 3.66675H10.9072Z" fill="#DC6339"/>
</svg>
