<svg width="39" height="39" viewBox="0 0 39 39" fill="none" xmlns="http://www.w3.org/2000/svg">
<path d="M38.9329 20.0947L37.2753 7.09475C36.759 3.05013 33.2976 0 29.2226 0H9.77581C5.70235 0 2.24097 3.05013 1.72468 7.09475L0.0654259 20.0947C-0.230058 22.4104 0.484299 24.7423 2.02666 26.494C3.5674 28.2458 5.78678 29.25 8.11818 29.25H17.8594V35.75H11.3653C10.4691 35.75 9.74172 36.4764 9.74172 37.375C9.74172 38.2736 10.4691 39 11.3653 39H27.6006C28.4968 39 29.2242 38.2736 29.2242 37.375C29.2242 36.4764 28.4968 35.75 27.6006 35.75H21.1065V29.25H30.8834C33.2148 29.25 35.4358 28.2458 36.975 26.494C38.5157 24.7439 39.2284 22.4104 38.9329 20.0947ZM34.0542 7.5075L34.7556 13H26.6898L26.081 3.25H29.2242C31.6692 3.25 33.7441 5.07975 34.0542 7.5075ZM14.7146 26L15.3234 16.25H23.6376L24.2464 26H14.7146ZM15.5264 13L16.1352 3.25H22.8258L23.4346 13H15.5264ZM9.77581 3.25H12.8816L12.2728 13H4.24441L4.94578 7.5075C5.25588 5.07975 7.33239 3.25 9.77581 3.25ZM4.46197 24.3458C3.53818 23.296 3.10956 21.8953 3.2849 20.5075L3.82879 16.25H12.0699L11.461 26H8.11656C6.71869 26 5.38576 25.3971 4.46197 24.3458ZM34.5364 24.3458C33.6126 25.3955 32.2797 26 30.8818 26H27.5L26.8912 16.25H35.1696L35.7135 20.5075C35.8904 21.8953 35.4602 23.296 34.5364 24.3458Z" fill="#DC6339"/>
</svg>
