<svg width="42" height="42" viewBox="0 0 42 42" fill="none" xmlns="http://www.w3.org/2000/svg">
<path d="M40.6088 10.129C39.5973 9.12275 38.2026 8.62575 36.7973 8.77625C34.8636 8.97925 28.3186 9.87 25.347 12.8328C22.407 15.7798 21.7473 20.8127 24.465 24.122C23.3503 25.816 22.7483 27.7987 22.7483 29.8742V33.25C22.7483 36.1445 20.3928 38.5 17.4983 38.5C14.6038 38.5 12.2483 36.1445 12.2483 33.25V22.5732C16.2365 21.7595 19.2483 18.2262 19.2483 14V10.5C20.216 10.5 20.9983 9.716 20.9983 8.75C20.9983 7.784 20.216 7 19.2483 7H15.7483V1.75C15.7483 0.784 14.966 0 13.9983 0C13.0305 0 12.2483 0.784 12.2483 1.75V7H8.74827V1.75C8.74827 0.784 7.96602 0 6.99826 0C6.03051 0 5.24826 0.784 5.24826 1.75V7H1.75C0.782252 7 0 7.784 0 8.75C0 9.716 0.782252 10.5 1.75 10.5V14C1.75 18.2245 4.76176 21.7595 8.75002 22.5732V33.25C8.75002 38.0747 12.6753 42 17.5 42C22.3248 42 26.25 38.0747 26.25 33.25V29.8742C26.25 28.7227 26.5563 27.6272 27.0778 26.6367C30.4046 28.9152 35.0771 28.2275 37.9243 25.3977C40.9098 22.4105 41.7778 15.8953 41.9773 13.9283C42.1156 12.5177 41.6168 11.1335 40.6088 10.129ZM5.25001 14V10.5H15.75V14C15.75 16.8945 13.3945 19.25 10.5 19.25C7.60551 19.25 5.25001 16.8945 5.25001 14ZM35.4551 22.918C33.8293 24.528 31.3916 24.9358 29.3231 23.9592C29.3143 23.9522 29.3003 23.9417 29.2916 23.933L34.4873 18.7355C35.1716 18.0513 35.1716 16.9435 34.4873 16.261C33.8031 15.5767 32.6971 15.5767 32.0128 16.261L26.8153 21.4585C26.8153 21.4585 26.8031 21.4427 26.7978 21.4357C25.8125 19.3707 26.2168 16.9243 27.8268 15.302C29.4298 13.7025 33.6718 12.6192 37.1631 12.2535C38.1168 12.3077 38.4476 12.6455 38.4913 13.615C38.1413 17.0835 37.0651 21.3062 35.4568 22.9145L35.4551 22.918Z" fill="#DC6339"/>
</svg>
