<svg width="60" height="60" viewBox="0 0 60 60" fill="none" xmlns="http://www.w3.org/2000/svg">
<rect width="60" height="60" rx="12" fill="#FFA788" fill-opacity="0.4"/>
<path d="M41.04 23.0964L30.8862 17.7211C30.6149 17.5761 30.31 17.5 30 17.5C29.69 17.5 29.3851 17.5761 29.1138 17.7211L18.96 23.0986C18.67 23.2521 18.428 23.4782 18.2591 23.7531C18.0902 24.028 18.0008 24.3417 18 24.6615V35.3385C18.0008 35.6583 18.0902 35.972 18.2591 36.2469C18.428 36.5218 18.67 36.7479 18.96 36.9014L29.1138 42.2789C29.3851 42.4239 29.69 42.5 30 42.5C30.31 42.5 30.6149 42.4239 30.8862 42.2789L41.04 36.9014C41.33 36.7479 41.572 36.5218 41.7409 36.2469C41.9098 35.972 41.9993 35.6583 42 35.3385V24.6627C41.9999 24.3423 41.9107 24.0278 41.7418 23.7523C41.5729 23.4767 41.3305 23.2502 41.04 23.0964ZM30 19.284L39.2712 24.196L35.835 26.0146L26.5638 21.1026L30 19.284ZM30 29.108L20.7288 24.196L24.6415 22.1229L33.9127 27.0349L30 29.108ZM40.1538 35.3429L30.9231 40.2315V30.652L34.6154 28.6972V32.6804C34.6154 32.9173 34.7126 33.1444 34.8857 33.3119C35.0589 33.4794 35.2936 33.5735 35.5385 33.5735C35.7833 33.5735 36.0181 33.4794 36.1912 33.3119C36.3643 33.1444 36.4615 32.9173 36.4615 32.6804V27.7193L40.1538 25.7645V35.3385V35.3429Z" fill="#DC6339"/>
</svg>
