<svg width="60" height="60" viewBox="0 0 60 60" fill="none" xmlns="http://www.w3.org/2000/svg">
<rect width="60" height="60" rx="12" fill="#FFA788" fill-opacity="0.4"/>
<path d="M30 17C27.4288 17 24.9154 17.7624 22.7776 19.1909C20.6398 20.6194 18.9735 22.6497 17.9896 25.0251C17.0056 27.4006 16.7482 30.0144 17.2498 32.5362C17.7514 35.0579 18.9895 37.3743 20.8076 39.1924C22.6257 41.0105 24.9421 42.2486 27.4638 42.7502C29.9856 43.2518 32.5994 42.9944 34.9749 42.0104C37.3503 41.0265 39.3806 39.3602 40.8091 37.2224C42.2376 35.0846 43 32.5712 43 30C42.996 26.5534 41.6251 23.2491 39.188 20.812C36.7509 18.3749 33.4466 17.004 30 17ZM39.795 25H35.3388C34.7776 22.9411 33.8318 21.0071 32.5513 19.3C34.0984 19.6717 35.5469 20.3735 36.7974 21.3573C38.0479 22.3412 39.0709 23.5838 39.7962 25H39.795ZM41 30C41.0009 31.0144 40.8608 32.0241 40.5837 33H35.77C36.0767 31.0118 36.0767 28.9882 35.77 27H40.5837C40.8608 27.9759 41.0009 28.9855 41 30ZM30 19.375C31.4974 20.9781 32.609 22.902 33.25 25H26.75C27.3904 22.9018 28.502 20.9777 30 19.375ZM26.75 35H33.25C32.6096 37.0982 31.498 39.0223 30 40.625C28.5026 39.0218 27.391 37.0979 26.75 35ZM26.2625 33C25.9192 31.0147 25.9192 28.9853 26.2625 27H33.7475C34.0908 28.9853 34.0908 31.0147 33.7475 33H26.2625ZM32.5563 40.7C33.8368 38.9929 34.7826 37.0589 35.3438 35H39.8013C39.0754 36.4168 38.0516 37.6597 36.8002 38.6436C35.5488 39.6275 34.0993 40.329 32.5513 40.7H32.5563Z" fill="#DC6339"/>
</svg>
