<svg width="60" height="60" viewBox="0 0 60 60" fill="none" xmlns="http://www.w3.org/2000/svg">
<rect width="60" height="60" rx="12" fill="#FFA788" fill-opacity="0.4"/>
<path d="M14 20.2222C14 19.898 14.1297 19.5872 14.3605 19.358C14.5914 19.1288 14.9045 19 15.231 19H42.3125C42.639 19 42.9521 19.1288 43.183 19.358C43.4138 19.5872 43.5435 19.898 43.5435 20.2222C43.5435 20.5463 43.4138 20.8572 43.183 21.0864C42.9521 21.3156 42.639 21.4444 42.3125 21.4444H15.231C14.9045 21.4444 14.5914 21.3156 14.3605 21.0864C14.1297 20.8572 14 20.5463 14 20.2222ZM15.231 31.2218H26.3098C26.6363 31.2218 26.9494 31.0931 27.1802 30.8639C27.4111 30.6347 27.5408 30.3238 27.5408 29.9997C27.5408 29.6755 27.4111 29.3646 27.1802 29.1354C26.9494 28.9062 26.6363 28.7775 26.3098 28.7775H15.231C14.9045 28.7775 14.5914 28.9062 14.3605 29.1354C14.1297 29.3646 14 29.6755 14 29.9997C14 30.3238 14.1297 30.6347 14.3605 30.8639C14.5914 31.0931 14.9045 31.2218 15.231 31.2218ZM28.7718 38.555H15.231C14.9045 38.555 14.5914 38.6837 14.3605 38.9129C14.1297 39.1421 14 39.453 14 39.7771C14 40.1013 14.1297 40.4121 14.3605 40.6414C14.5914 40.8706 14.9045 40.9993 15.231 40.9993H28.7718C29.0982 40.9993 29.4113 40.8706 29.6422 40.6414C29.873 40.4121 30.0027 40.1013 30.0027 39.7771C30.0027 39.453 29.873 39.1421 29.6422 38.9129C29.4113 38.6837 29.0982 38.555 28.7718 38.555ZM45.6454 38.9124L42.5218 35.805C43.3615 34.5413 43.6989 33.0132 43.4686 31.5166C43.2382 30.02 42.4565 28.6616 41.275 27.7046C40.0935 26.7476 38.5962 26.2601 37.0733 26.3366C35.5504 26.4131 34.1103 27.0481 33.0321 28.1187C31.9539 29.1892 31.3143 30.619 31.2373 32.131C31.1602 33.643 31.6512 35.1296 32.6151 36.3026C33.579 37.4757 34.9472 38.2518 36.4545 38.4805C37.9618 38.7092 39.501 38.3743 40.7738 37.5405L43.8974 40.6418C44.1284 40.8712 44.4417 41 44.7683 41C45.095 41 45.4083 40.8712 45.6393 40.6418C45.8702 40.4125 46 40.1015 46 39.7771C46 39.4528 45.8702 39.1418 45.6393 38.9124H45.6454Z" fill="#DC6339"/>
</svg>
