<svg width="60" height="60" viewBox="0 0 60 60" fill="none" xmlns="http://www.w3.org/2000/svg">
<rect width="60" height="60" rx="12" fill="#FFA788" fill-opacity="0.4"/>
<path d="M41.0769 21H18.9231C18.6783 21 18.4435 21.0948 18.2704 21.2636C18.0973 21.4324 18 21.6613 18 21.9V37.2C18 37.6774 18.1945 38.1352 18.5407 38.4728C18.8869 38.8104 19.3565 39 19.8462 39H40.1538C40.6435 39 41.1131 38.8104 41.4593 38.4728C41.8055 38.1352 42 37.6774 42 37.2V21.9C42 21.6613 41.9027 21.4324 41.7296 21.2636C41.5565 21.0948 41.3217 21 41.0769 21ZM26.6204 30L19.8462 36.0536V23.9464L26.6204 30ZM27.9865 31.2206L29.3712 32.4637C29.5415 32.6162 29.7642 32.7007 29.9954 32.7007C30.2266 32.7007 30.4493 32.6162 30.6196 32.4637L32.0042 31.2206L38.6965 37.2H21.2965L27.9865 31.2206ZM33.3796 30L40.1538 23.9453V36.0548L33.3796 30Z" fill="#DC6339"/>
</svg>
