<svg width="60" height="60" viewBox="0 0 60 60" fill="none" xmlns="http://www.w3.org/2000/svg">
<rect width="60" height="60" rx="12" fill="#FFA788" fill-opacity="0.4"/>
<path d="M31.3275 30C31.8796 30.0001 32.4297 30.0685 32.965 30.2038C32.8938 31.23 32.5475 32.0788 31.9513 32.655C31.3952 33.1956 30.6506 33.4986 29.875 33.5C28.3913 33.5 28 32.5525 28 31.9912C28 30.625 29.725 30 31.3275 30ZM42 30C42 38.14 37.5138 43 30 43C22.4862 43 18 38.14 18 30C18 21.86 22.4862 17 30 17C37.5138 17 42 21.86 42 30ZM23 30C23 24.6163 25.29 22 30 22C33.2925 22 35.375 23.26 36.3512 25.8538C36.4451 26.1024 36.6338 26.3036 36.876 26.4131C37.1181 26.5225 37.3939 26.5313 37.6425 26.4375C37.8911 26.3437 38.0923 26.1549 38.2018 25.9128C38.3113 25.6706 38.3201 25.3949 38.2262 25.1462C36.6125 20.8925 32.8625 20 30 20C26.7375 20 24.31 21.0875 22.785 23.2325C21.6 24.8988 21 27.175 21 30C21 32.825 21.6 35.1012 22.785 36.7675C24.31 38.9125 26.7375 40 30 40C33.0563 40 34.9775 38.9 36.0513 37.9775C37.3963 36.8213 38.2 35.2413 38.2 33.75C38.2 31.9625 37.3763 30.4012 35.88 29.3538C35.5724 29.1397 35.2475 28.9515 34.9088 28.7913C34.6475 26.96 33.6587 25.5725 32.1162 24.9075C30.3037 24.125 28 24.4913 26.6513 25.7738C26.4586 25.9561 26.3463 26.2075 26.3391 26.4726C26.3318 26.7377 26.4302 26.9949 26.6125 27.1875C26.7948 27.3801 27.0462 27.4924 27.3113 27.4997C27.5765 27.5069 27.8336 27.4086 28.0263 27.2262C28.705 26.5837 30.125 26.2263 31.3263 26.745C31.9382 27.0036 32.4224 27.4946 32.6725 28.11C32.2276 28.0395 31.7779 28.0039 31.3275 28.0037C28.1912 28 26 29.6437 26 31.9912C26 34.025 27.625 35.5 29.875 35.5C31.1704 35.4967 32.414 34.9908 33.3438 34.0888C33.9313 33.515 34.6075 32.5638 34.865 31.0888C35.2869 31.3906 35.629 31.7906 35.8616 32.2543C36.0942 32.718 36.2103 33.2313 36.2 33.75C36.2 35.4638 34.23 38 30 38C25.29 38 23 35.3838 23 30Z" fill="#DC6339"/>
</svg>
