<svg width="60" height="60" viewBox="0 0 60 60" fill="none" xmlns="http://www.w3.org/2000/svg">
<rect width="60" height="60" rx="12" fill="#FFA788" fill-opacity="0.4"/>
<path d="M37.1833 23.7583H32.4017C32.0521 23.7379 25.9599 23.3095 20.1584 18.4497C19.8783 18.2147 19.5368 18.0644 19.1741 18.0166C18.8114 17.9687 18.4426 18.0252 18.1109 18.1794C17.7792 18.3336 17.4985 18.5792 17.3017 18.8872C17.105 19.1953 17.0003 19.553 17 19.9184V39.1175C17 39.483 17.1046 39.8409 17.3013 40.1491C17.4979 40.4574 17.7786 40.7031 18.1104 40.8575C18.4421 41.0119 18.811 41.0685 19.1738 41.0206C19.5366 40.9728 19.8782 40.8225 20.1584 40.5874C24.6961 36.786 29.4091 35.6965 31.4166 35.3917V39.1979C31.4162 39.5143 31.4941 39.8258 31.6433 40.1049C31.7925 40.3839 32.0085 40.6218 32.272 40.7974L33.5935 41.677C33.8489 41.8473 34.1415 41.9539 34.4467 41.9881C34.7519 42.0222 35.0608 41.9828 35.3477 41.8732C35.6345 41.7636 35.8908 41.5869 36.0952 41.358C36.2996 41.129 36.4461 40.8545 36.5225 40.5574L37.9365 35.2345C39.3983 35.0551 40.736 34.3239 41.6752 33.1909C42.6144 32.0578 43.084 30.6088 42.9876 29.141C42.8913 27.6731 42.2363 26.2977 41.157 25.2969C40.0777 24.296 38.656 23.7455 37.1833 23.7583ZM34.6603 40.0643V40.0775L33.3388 39.1979V35.2777H35.9338L34.6603 40.0643ZM37.1833 33.3578H33.3388V25.6782H37.1833C38.2029 25.6782 39.1807 26.0827 39.9017 26.8028C40.6226 27.5229 41.0277 28.4996 41.0277 29.518C41.0277 30.5364 40.6226 31.513 39.9017 32.2331C39.1807 32.9532 38.2029 33.3578 37.1833 33.3578Z" fill="#DC6339"/>
</svg>
