<svg width="60" height="60" viewBox="0 0 60 60" fill="none" xmlns="http://www.w3.org/2000/svg">
<rect width="60" height="60" rx="12" fill="#FFA788" fill-opacity="0.4"/>
<path d="M39 21.8148H31V17.963C31 17.7076 30.8946 17.4626 30.7071 17.282C30.5196 17.1015 30.2652 17 30 17C29.7348 17 29.4804 17.1015 29.2929 17.282C29.1054 17.4626 29 17.7076 29 17.963V21.8148H21C19.9391 21.8148 18.9217 22.2206 18.1716 22.943C17.4214 23.6654 17 24.6451 17 25.6667V39.1481C17 40.1697 17.4214 41.1495 18.1716 41.8718C18.9217 42.5942 19.9391 43 21 43H39C40.0609 43 41.0783 42.5942 41.8284 41.8718C42.5786 41.1495 43 40.1697 43 39.1481V25.6667C43 24.6451 42.5786 23.6654 41.8284 22.943C41.0783 22.2206 40.0609 21.8148 39 21.8148ZM35.5 27.5926C35.7967 27.5926 36.0867 27.6773 36.3334 27.836C36.58 27.9947 36.7723 28.2203 36.8858 28.4843C36.9993 28.7482 37.0291 29.0386 36.9712 29.3188C36.9133 29.599 36.7704 29.8564 36.5607 30.0584C36.3509 30.2604 36.0836 30.398 35.7926 30.4537C35.5017 30.5095 35.2001 30.4809 34.926 30.3715C34.6519 30.2622 34.4176 30.0771 34.2528 29.8395C34.088 29.602 34 29.3227 34 29.037C34 28.6539 34.158 28.2865 34.4393 28.0157C34.7206 27.7448 35.1022 27.5926 35.5 27.5926ZM26 38.1852H24C23.4696 38.1852 22.9609 37.9823 22.5858 37.6211C22.2107 37.2599 22 36.77 22 36.2593C22 35.7485 22.2107 35.2586 22.5858 34.8974C22.9609 34.5362 23.4696 34.3333 24 34.3333H26V38.1852ZM24.5 30.4815C24.2033 30.4815 23.9133 30.3968 23.6666 30.238C23.42 30.0793 23.2277 29.8537 23.1142 29.5898C23.0006 29.3259 22.9709 29.0354 23.0288 28.7552C23.0867 28.475 23.2296 28.2177 23.4393 28.0157C23.6491 27.8137 23.9164 27.6761 24.2074 27.6203C24.4983 27.5646 24.7999 27.5932 25.074 27.7025C25.3481 27.8119 25.5824 27.997 25.7472 28.2345C25.912 28.4721 26 28.7514 26 29.037C26 29.4201 25.842 29.7875 25.5607 30.0584C25.2794 30.3293 24.8978 30.4815 24.5 30.4815ZM32 38.1852H28V34.3333H32V38.1852ZM36 38.1852H34V34.3333H36C36.5304 34.3333 37.0391 34.5362 37.4142 34.8974C37.7893 35.2586 38 35.7485 38 36.2593C38 36.77 37.7893 37.2599 37.4142 37.6211C37.0391 37.9823 36.5304 38.1852 36 38.1852Z" fill="#DC6339"/>
</svg>
