<svg width="60" height="60" viewBox="0 0 60 60" fill="none" xmlns="http://www.w3.org/2000/svg">
<rect width="60" height="60" rx="12" fill="#FFA788" fill-opacity="0.4"/>
<path d="M42 20.8807V40.0801C42 40.5893 41.7893 41.0776 41.4142 41.4377C41.0391 41.7977 40.5304 42 40 42H34C33.4696 42 32.9609 41.7977 32.5858 41.4377C32.2107 41.0776 32 40.5893 32 40.0801V36.7202C32 36.5929 32.0527 36.4708 32.1464 36.3808C32.2402 36.2908 32.3674 36.2402 32.5 36.2402H37C37.1371 36.2405 37.2728 36.2137 37.3986 36.1615C37.5245 36.1094 37.6378 36.0329 37.7316 35.9369C37.8254 35.8409 37.8976 35.7274 37.9438 35.6035C37.9899 35.4796 38.0091 35.3479 38 35.2166C37.9776 34.9699 37.8589 34.7404 37.6677 34.5741C37.4764 34.4079 37.2267 34.3172 36.9688 34.3202H32.5C32.3674 34.3202 32.2402 34.2697 32.1464 34.1797C32.0527 34.0896 32 33.9676 32 33.8403V31.9203C32 31.793 32.0527 31.6709 32.1464 31.5809C32.2402 31.4909 32.3674 31.4403 32.5 31.4403H37C37.1371 31.4406 37.2728 31.4138 37.3986 31.3617C37.5245 31.3095 37.6378 31.2331 37.7316 31.1371C37.8254 31.0411 37.8976 30.9276 37.9438 30.8037C37.9899 30.6798 38.0091 30.5481 38 30.4168C37.9776 30.17 37.8589 29.9405 37.6677 29.7743C37.4764 29.608 37.2267 29.5173 36.9688 29.5204H32.5C32.3674 29.5204 32.2402 29.4698 32.1464 29.3798C32.0527 29.2898 32 29.1677 32 29.0404V27.1205C32 26.9932 32.0527 26.8711 32.1464 26.7811C32.2402 26.6911 32.3674 26.6405 32.5 26.6405H37C37.1371 26.6408 37.2728 26.614 37.3986 26.5618C37.5245 26.5097 37.6378 26.4332 37.7316 26.3372C37.8254 26.2412 37.8976 26.1278 37.9438 26.0038C37.9899 25.8799 38.0091 25.7482 38 25.6169C37.9776 25.3698 37.8585 25.1399 37.6667 24.9736C37.4749 24.8073 37.2247 24.7169 36.9662 24.7205H32.5C32.3674 24.7205 32.2402 24.67 32.1464 24.58C32.0527 24.4899 32 24.3679 32 24.2406V20.8807C32 20.3715 32.2107 19.8831 32.5858 19.5231C32.9609 19.163 33.4696 18.9607 34 18.9607H40C40.5304 18.9607 41.0391 19.163 41.4142 19.5231C41.7893 19.8831 42 20.3715 42 20.8807ZM27.7075 22.1214C27.8003 22.2106 27.8739 22.3165 27.9241 22.4331C27.9743 22.5496 28.0001 22.6745 28 22.8006V40.0801C28 40.5893 27.7893 41.0776 27.4142 41.4377C27.0391 41.7977 26.5304 42 26 42H20C19.4696 42 18.9609 41.7977 18.5858 41.4377C18.2107 41.0776 18 40.5893 18 40.0801V22.8006C17.9999 22.6745 18.0257 22.5496 18.0759 22.4331C18.1261 22.3165 18.1997 22.2106 18.2925 22.1214L22.2925 18.2815C22.3854 18.1923 22.4957 18.1215 22.6171 18.0732C22.7385 18.0249 22.8686 18 23 18C23.1314 18 23.2615 18.0249 23.3829 18.0732C23.5043 18.1215 23.6146 18.1923 23.7075 18.2815L27.7075 22.1214ZM20 24.7205V37.2002H22V24.7205H20ZM24 24.7205V37.2002H26V24.7205H24ZM20.4138 22.8006H25.5863L23 20.3179L20.4138 22.8006Z" fill="#DC6339"/>
</svg>
