<svg width="60" height="60" viewBox="0 0 60 60" fill="none" xmlns="http://www.w3.org/2000/svg">
<rect width="60" height="60" rx="12" fill="#FFA788" fill-opacity="0.4"/>
<path d="M40.0885 30.2459C40.0931 30.0808 40.0931 29.9157 40.0885 29.7506L41.7992 27.6133C41.8889 27.5011 41.951 27.3694 41.9805 27.2288C42.01 27.0882 42.006 26.9426 41.9689 26.8038C41.688 25.7498 41.2685 24.7377 40.7214 23.794C40.6497 23.6705 40.5502 23.5655 40.4307 23.4872C40.3113 23.409 40.1753 23.3597 40.0334 23.3433L37.3137 23.0406C37.2005 22.9214 37.0859 22.8067 36.9697 22.6967L36.6486 19.97C36.6321 19.8281 36.5827 19.692 36.5042 19.5725C36.4258 19.4531 36.3206 19.3536 36.1969 19.282C35.2532 18.7354 34.2411 18.3166 33.187 18.0368C33.0482 17.9997 32.9027 17.9958 32.762 18.0252C32.6214 18.0547 32.4897 18.1168 32.3775 18.2065L30.2459 19.9081C30.0808 19.9081 29.9157 19.9081 29.7506 19.9081L27.6133 18.2008C27.5011 18.1111 27.3694 18.049 27.2288 18.0195C27.0882 17.99 26.9426 17.994 26.8038 18.0311C25.7498 18.312 24.7377 18.7315 23.794 19.2786C23.6705 19.3503 23.5655 19.4498 23.4872 19.5693C23.409 19.6887 23.3597 19.8247 23.3433 19.9666L23.0406 22.6909C22.9214 22.8048 22.8067 22.9195 22.6967 23.0349L19.97 23.3479C19.8281 23.3644 19.692 23.4139 19.5725 23.4923C19.4531 23.5708 19.3536 23.676 19.282 23.7997C18.7355 24.7435 18.3164 25.7556 18.0357 26.8096C17.9987 26.9484 17.995 27.094 18.0246 27.2347C18.0543 27.3753 18.1166 27.5069 18.2065 27.6191L19.9081 29.7506C19.9081 29.9157 19.9081 30.0808 19.9081 30.2459L18.2008 32.3832C18.1111 32.4955 18.049 32.6272 18.0195 32.7678C17.99 32.9084 17.994 33.0539 18.0311 33.1927C18.312 34.2468 18.7315 35.2589 19.2786 36.2026C19.3503 36.3261 19.4498 36.4311 19.5693 36.5093C19.6887 36.5876 19.8247 36.6368 19.9666 36.6532L22.6863 36.9559C22.8002 37.0752 22.9149 37.1898 23.0303 37.2999L23.3479 40.0266C23.3644 40.1685 23.4139 40.3046 23.4923 40.4241C23.5708 40.5435 23.676 40.643 23.7997 40.7145C24.7435 41.2611 25.7556 41.6802 26.8096 41.9609C26.9484 41.9978 27.094 42.0016 27.2347 41.9719C27.3753 41.9422 27.5069 41.8799 27.6191 41.79L29.7506 40.0885C29.9157 40.0931 30.0808 40.0931 30.2459 40.0885L32.3832 41.7992C32.4955 41.8889 32.6272 41.951 32.7678 41.9805C32.9084 42.01 33.0539 42.006 33.1927 41.9689C34.2469 41.6885 35.2591 41.2689 36.2026 40.7214C36.3261 40.6497 36.4311 40.5502 36.5093 40.4307C36.5876 40.3113 36.6368 40.1753 36.6532 40.0334L36.9559 37.3137C37.0752 37.2005 37.1898 37.0859 37.2999 36.9697L40.0266 36.6486C40.1685 36.6321 40.3046 36.5827 40.4241 36.5042C40.5435 36.4258 40.643 36.3206 40.7145 36.1969C41.2611 35.253 41.6802 34.2409 41.9609 33.187C41.9978 33.0481 42.0016 32.9025 41.9719 32.7619C41.9422 32.6213 41.8799 32.4896 41.79 32.3775L40.0885 30.2459ZM29.9983 34.5847C29.0912 34.5847 28.2044 34.3157 27.4502 33.8118C26.6959 33.3078 26.1081 32.5915 25.761 31.7534C25.4138 30.9154 25.323 29.9932 25.5 29.1035C25.6769 28.2138 26.1137 27.3966 26.7552 26.7552C27.3966 26.1137 28.2138 25.6769 29.1035 25.5C29.9932 25.323 30.9154 25.4138 31.7534 25.761C32.5915 26.1081 33.3078 26.6959 33.8118 27.4502C34.3157 28.2044 34.5847 29.0912 34.5847 29.9983C34.5847 31.2147 34.1015 32.3813 33.2414 33.2414C32.3813 34.1015 31.2147 34.5847 29.9983 34.5847Z" fill="#DC6339"/>
</svg>
