<svg width="60" height="60" viewBox="0 0 60 60" fill="none" xmlns="http://www.w3.org/2000/svg">
<rect width="60" height="60" rx="12" fill="#FFA788" fill-opacity="0.4"/>
<path d="M41.8462 18H18.1538C17.5826 18 17.0348 18.2299 16.6308 18.639C16.2269 19.0482 16 19.6032 16 20.1818V39.8182C16 40.3968 16.2269 40.9518 16.6308 41.361C17.0348 41.7701 17.5826 42 18.1538 42H41.8462C42.4174 42 42.9652 41.7701 43.3692 41.361C43.7731 40.9518 44 40.3968 44 39.8182V20.1818C44 19.6032 43.7731 19.0482 43.3692 18.639C42.9652 18.2299 42.4174 18 41.8462 18ZM33.7692 24.5455C34.0887 24.5455 34.401 24.6414 34.6667 24.8212C34.9323 25.001 35.1394 25.2566 35.2617 25.5556C35.3839 25.8546 35.4159 26.1836 35.3536 26.5011C35.2912 26.8185 35.1374 27.1101 34.9115 27.3389C34.6856 27.5678 34.3977 27.7236 34.0844 27.7867C33.771 27.8499 33.4462 27.8175 33.1511 27.6936C32.8559 27.5698 32.6036 27.36 32.4261 27.0909C32.2486 26.8218 32.1538 26.5055 32.1538 26.1818C32.1538 25.7478 32.324 25.3316 32.627 25.0247C32.9299 24.7179 33.3408 24.5455 33.7692 24.5455ZM41.8462 39.8182H18.1538V34.4577L24.3919 28.1373C24.4919 28.0358 24.6107 27.9554 24.7414 27.9005C24.8722 27.8456 25.0123 27.8173 25.1538 27.8173C25.2954 27.8173 25.4355 27.8456 25.5662 27.9005C25.697 27.9554 25.8158 28.0358 25.9158 28.1373L34.9808 37.3173C35.1828 37.522 35.4569 37.637 35.7427 37.637C36.0285 37.637 36.3025 37.522 36.5046 37.3173C36.7067 37.1126 36.8202 36.8349 36.8202 36.5455C36.8202 36.256 36.7067 35.9783 36.5046 35.7736L34.1273 33.3668L36.0577 31.41C36.2596 31.2056 36.5334 31.0907 36.8189 31.0907C37.1044 31.0907 37.3783 31.2056 37.5802 31.41L41.8462 35.7368V39.8182Z" fill="#DC6339"/>
</svg>
