<svg width="50" height="50" viewBox="0 0 50 50" fill="none" xmlns="http://www.w3.org/2000/svg">
<circle cx="24.9412" cy="24.9412" r="24.9412" fill="#1C1C1C"/>
<path d="M21.2002 17.4587L28.8696 25.1282C28.9293 25.1841 28.9768 25.2517 29.0093 25.3268C29.0418 25.4019 29.0586 25.4828 29.0586 25.5646C29.0586 25.6464 29.0418 25.7274 29.0093 25.8024C28.9768 25.8775 28.9293 25.9451 28.8696 26.0011L21.2002 33.6705" fill="#1C1C1C"/>
<path d="M21.2002 17.4587L28.8696 25.1282C28.9293 25.1841 28.9768 25.2517 29.0093 25.3268C29.0418 25.4019 29.0586 25.4828 29.0586 25.5646C29.0586 25.6464 29.0418 25.7274 29.0093 25.8024C28.9768 25.8775 28.9293 25.9451 28.8696 26.0011L21.2002 33.6705" stroke="white" stroke-linecap="round" stroke-linejoin="round"/>
</svg>
