<svg width="39" height="39" viewBox="0 0 39 39" fill="none" xmlns="http://www.w3.org/2000/svg">
<g clip-path="url(#clip0_222_7971)">
<path d="M38.9999 18.2764C38.7649 14.474 37.4223 10.8234 35.1376 7.77475C32.8529 4.72611 29.726 2.41269 26.1424 1.11968C22.5588 -0.17333 18.6752 -0.389397 14.9703 0.498117C11.2654 1.38563 7.90119 3.33792 5.29243 6.11432C2.68367 8.89071 0.944397 12.3698 0.289037 16.1228C-0.366324 19.8757 0.0908753 23.7384 1.60427 27.2346C3.11766 30.7308 5.62109 33.7078 8.80593 35.7984C11.9908 37.889 15.7178 39.002 19.5275 39.0001H30.8749C33.0291 38.9979 35.0945 38.1412 36.6178 36.6179C38.141 35.0947 38.9977 33.0293 38.9999 30.8751V18.2764ZM35.7499 30.8751C35.7499 32.168 35.2363 33.408 34.322 34.3222C33.4078 35.2365 32.1678 35.7501 30.8749 35.7501H19.5275C17.2345 35.749 14.9675 35.2647 12.8743 34.3287C10.781 33.3927 8.90858 32.026 7.37901 30.3177C5.84204 28.6103 4.68789 26.594 3.99396 24.404C3.30002 22.214 3.08234 19.9009 3.35551 17.6199C3.78684 14.0221 5.40331 10.6701 7.9501 8.09244C10.4969 5.51476 13.8291 3.85799 17.4215 3.38331C18.1223 3.29548 18.8278 3.25098 19.534 3.25006C23.321 3.23973 26.9908 4.5629 29.8999 6.98756C31.5989 8.3996 32.9934 10.1419 33.999 12.109C35.0046 14.076 35.6002 16.2267 35.7499 18.4308V30.8751Z" fill="#DC6339"/>
<path d="M13 14.625H19.5C19.931 14.625 20.3443 14.4538 20.649 14.149C20.9538 13.8443 21.125 13.431 21.125 13C21.125 12.569 20.9538 12.1557 20.649 11.851C20.3443 11.5462 19.931 11.375 19.5 11.375H13C12.569 11.375 12.1557 11.5462 11.851 11.851C11.5462 12.1557 11.375 12.569 11.375 13C11.375 13.431 11.5462 13.8443 11.851 14.149C12.1557 14.4538 12.569 14.625 13 14.625Z" fill="#DC6339"/>
<path d="M26 17.875H13C12.569 17.875 12.1557 18.0462 11.851 18.351C11.5462 18.6557 11.375 19.069 11.375 19.5C11.375 19.931 11.5462 20.3443 11.851 20.649C12.1557 20.9538 12.569 21.125 13 21.125H26C26.431 21.125 26.8443 20.9538 27.1491 20.649C27.4538 20.3443 27.625 19.931 27.625 19.5C27.625 19.069 27.4538 18.6557 27.1491 18.351C26.8443 18.0462 26.431 17.875 26 17.875Z" fill="#DC6339"/>
<path d="M26 24.375H13C12.569 24.375 12.1557 24.5462 11.851 24.851C11.5462 25.1557 11.375 25.569 11.375 26C11.375 26.431 11.5462 26.8443 11.851 27.149C12.1557 27.4538 12.569 27.625 13 27.625H26C26.431 27.625 26.8443 27.4538 27.1491 27.149C27.4538 26.8443 27.625 26.431 27.625 26C27.625 25.569 27.4538 25.1557 27.1491 24.851C26.8443 24.5462 26.431 24.375 26 24.375Z" fill="#DC6339"/>
</g>
<defs>
<clipPath id="clip0_222_7971">
<rect width="39" height="39" fill="white"/>
</clipPath>
</defs>
</svg>
