<svg width="39" height="39" viewBox="0 0 39 39" fill="none" xmlns="http://www.w3.org/2000/svg">
<g clip-path="url(#clip0_222_7734)">
<path d="M21.1253 3.33288V1.625C21.1253 1.19402 20.9541 0.780698 20.6493 0.475952C20.3446 0.171205 19.9312 0 19.5003 0C19.0693 0 18.656 0.171205 18.3512 0.475952C18.0465 0.780698 17.8753 1.19402 17.8753 1.625V3.33288C14.6038 3.62617 11.4767 4.81683 8.83863 6.77368C6.20054 8.73053 4.15381 11.3776 2.92395 14.4233C1.69408 17.469 1.3288 20.7951 1.86836 24.0351C2.40792 27.2751 3.83138 30.3033 5.9819 32.786C5.13262 33.2061 4.42292 33.8629 3.93827 34.677C3.45362 35.4912 3.2147 36.4282 3.25027 37.375C3.25027 37.806 3.42148 38.2193 3.72622 38.5241C4.03097 38.8288 4.44429 39 4.87527 39C5.30625 39 5.71957 38.8288 6.02432 38.5241C6.32907 38.2193 6.50027 37.806 6.50027 37.375C6.48676 36.8741 6.66658 36.3873 7.00242 36.0154C7.33827 35.6436 7.80436 35.4153 8.30402 35.3779C8.4158 35.3566 8.52482 35.3228 8.62902 35.2771C11.7418 37.6914 15.5691 39.0017 19.5084 39.0017C23.4477 39.0017 27.275 37.6914 30.3878 35.2771C30.4829 35.3209 30.5819 35.3558 30.6835 35.3811C31.1849 35.4153 31.6538 35.6418 31.9923 36.0133C32.3308 36.3848 32.5127 36.8726 32.5003 37.375C32.5003 37.806 32.6715 38.2193 32.9762 38.5241C33.281 38.8288 33.6943 39 34.1253 39C34.5562 39 34.9696 38.8288 35.2743 38.5241C35.5791 38.2193 35.7503 37.806 35.7503 37.375C35.7858 36.4282 35.5469 35.4912 35.0623 34.677C34.5776 33.8629 33.8679 33.2061 33.0186 32.786C35.1692 30.3033 36.5926 27.2751 37.1322 24.0351C37.6717 20.7951 37.3065 17.469 36.0766 14.4233C34.8467 11.3776 32.8 8.73053 30.1619 6.77368C27.5238 4.81683 24.3968 3.62617 21.1253 3.33288ZM4.87527 21.125C4.87527 18.2325 5.73301 15.4049 7.34003 12.9998C8.94704 10.5947 11.2312 8.72019 13.9035 7.61326C16.5759 6.50633 19.5165 6.21671 22.3535 6.78102C25.1904 7.34533 27.7964 8.73822 29.8417 10.7836C31.8871 12.8289 33.2799 15.4348 33.8443 18.2718C34.4086 21.1088 34.1189 24.0494 33.012 26.7217C31.9051 29.3941 30.0306 31.6782 27.6255 33.2852C25.2204 34.8923 22.3928 35.75 19.5003 35.75C15.6229 35.7453 11.9058 34.2029 9.16406 31.4612C6.42236 28.7195 4.88 25.0023 4.87527 21.125Z" fill="#DC6339"/>
<path d="M31.2246 1.04448e-05C30.7936 1.04448e-05 30.3803 0.171215 30.0756 0.475962C29.7708 0.780709 29.5996 1.19403 29.5996 1.62501C29.5996 2.05599 29.7708 2.46931 30.0756 2.77406C30.3803 3.07881 30.7936 3.25001 31.2246 3.25001C31.7913 3.20694 32.3608 3.27906 32.8988 3.46204C33.4368 3.64502 33.9322 3.93507 34.3551 4.31468C34.778 4.6943 35.1196 5.15563 35.3594 5.67085C35.5992 6.18607 35.7321 6.74451 35.7502 7.31251C35.7502 7.74349 35.9214 8.15681 36.2262 8.46156C36.5309 8.76631 36.9443 8.93751 37.3752 8.93751C37.8062 8.93751 38.2195 8.76631 38.5243 8.46156C38.829 8.15681 39.0002 7.74349 39.0002 7.31251C38.9794 6.31882 38.7607 5.33925 38.3568 4.43111C37.9528 3.52297 37.3719 2.70451 36.6478 2.0236C35.9238 1.34269 35.0713 0.813008 34.1401 0.465547C33.2089 0.118086 32.2177 -0.0401797 31.2246 1.04448e-05Z" fill="#DC6339"/>
<path d="M3.25 7.31227C3.26811 6.74427 3.40107 6.18583 3.64084 5.6706C3.88062 5.15538 4.22225 4.69405 4.64515 4.31444C5.06804 3.93482 5.56343 3.64478 6.10145 3.4618C6.63947 3.27882 7.20898 3.20669 7.77563 3.24977C8.2066 3.24977 8.61993 3.07856 8.92467 2.77382C9.22942 2.46907 9.40063 2.05574 9.40063 1.62477C9.40063 1.19379 9.22942 0.780464 8.92467 0.475718C8.61993 0.170971 8.2066 -0.000233696 7.77563 -0.000233696C6.78253 -0.0404238 5.79138 0.117841 4.86018 0.465303C3.92898 0.812764 3.07643 1.34244 2.35239 2.02335C1.62836 2.70426 1.04739 3.52273 0.643469 4.43086C0.23955 5.339 0.0207939 6.31857 0 7.31227C0 7.74324 0.171205 8.15657 0.475952 8.46132C0.780698 8.76606 1.19402 8.93727 1.625 8.93727C2.05598 8.93727 2.4693 8.76606 2.77405 8.46132C3.0788 8.15657 3.25 7.74324 3.25 7.31227Z" fill="#DC6339"/>
<path d="M21.125 18.8273V11.375C21.125 10.944 20.9538 10.5307 20.649 10.226C20.3443 9.92121 19.931 9.75 19.5 9.75C19.069 9.75 18.6557 9.92121 18.351 10.226C18.0462 10.5307 17.875 10.944 17.875 11.375V19.5C17.8751 19.9309 18.0464 20.3442 18.3511 20.6489L23.2261 25.5239C23.5326 25.8199 23.9431 25.9837 24.3692 25.98C24.7952 25.9763 25.2028 25.8054 25.5041 25.5041C25.8054 25.2028 25.9763 24.7952 25.98 24.3692C25.9837 23.9431 25.8199 23.5326 25.5239 23.2261L21.125 18.8273Z" fill="#DC6339"/>
</g>
<defs>
<clipPath id="clip0_222_7734">
<rect width="39" height="39" fill="white"/>
</clipPath>
</defs>
</svg>
