<svg width="46" height="46" viewBox="0 0 46 46" fill="none" xmlns="http://www.w3.org/2000/svg">
<g clip-path="url(#clip0_222_7988)">
<path d="M32.5833 30.6667C31.5253 30.6667 30.6667 31.5253 30.6667 32.5833V34.5H26.8333V32.5833C26.8333 31.5253 25.9747 30.6667 24.9167 30.6667C23.8587 30.6667 23 31.5253 23 32.5833V42.1667H11.5V21.0833C11.5 20.0253 10.6413 19.1667 9.58333 19.1667H8.625C3.86975 19.1667 0 23.0364 0 27.7917V37.375C0 42.1302 3.86975 46 8.625 46H25.875C30.6302 46 34.5 42.1302 34.5 37.375V32.5833C34.5 31.5253 33.6413 30.6667 32.5833 30.6667ZM7.66667 30.6667V34.5H3.83333V30.6667H7.66667ZM7.66667 23.0958V26.8333H3.93875C4.32208 24.9607 5.79408 23.4792 7.66667 23.0958ZM3.93875 38.3333H7.66667V42.0708C5.79217 41.6894 4.32208 40.2078 3.93875 38.3333ZM26.8333 42.0689V38.3333H30.5689C30.1875 40.2078 28.7078 41.6875 26.8333 42.0689ZM36.4167 0H24.9167C19.6324 0 15.3333 4.29908 15.3333 9.58333V17.25C15.3333 22.5343 19.6324 26.8333 24.9167 26.8333H36.4167C41.7009 26.8333 46 22.5343 46 17.25V9.58333C46 4.29908 41.7009 0 36.4167 0ZM19.1667 9.58333C19.1667 6.41317 21.7465 3.83333 24.9167 3.83333H36.4167C38.6151 3.83333 40.5068 5.08683 41.4728 6.90383L34.8469 13.5432L33.9365 12.6232C32.5258 11.2106 30.3025 11.1109 28.7519 12.4066L19.895 19.9985C19.4446 19.1782 19.1647 18.2524 19.1647 17.2519V9.58333H19.1667ZM36.4167 23H24.9167C24.1596 23 23.4389 22.8447 22.7758 22.5764L31.2206 15.3237L32.131 16.2437C33.6241 17.7388 36.0583 17.7407 37.5532 16.2437L42.1686 11.6284V17.2481C42.1686 20.4182 39.5887 22.9981 36.4186 22.9981L36.4167 23ZM21.0833 8.625C21.0833 7.038 22.3713 5.75 23.9583 5.75C25.5453 5.75 26.8333 7.038 26.8333 8.625C26.8333 10.212 25.5453 11.5 23.9583 11.5C22.3713 11.5 21.0833 10.212 21.0833 8.625Z" fill="#DC6339"/>
</g>
<defs>
<clipPath id="clip0_222_7988">
<rect width="46" height="46" fill="white"/>
</clipPath>
</defs>
</svg>
