<svg width="50" height="50" viewBox="0 0 50 50" fill="none" xmlns="http://www.w3.org/2000/svg">
<path d="M35.4125 17.6816L29.3225 11.589C27.0125 9.27809 23.9325 8.00006 20.66 8.00006H12.75C7.92 7.98255 4 11.9042 4 16.7362V41.2464C4 46.0784 7.92 50 12.75 50H30.25C35.08 50 39 46.0784 39 41.2464V26.3477C39 23.0738 37.7225 19.9925 35.4125 17.6816ZM32.945 20.1501C33.505 20.7103 33.9775 21.3231 34.3625 21.9884H26.7675C25.805 21.9884 25.0175 21.2005 25.0175 20.2376V12.6395C25.6825 13.0246 26.295 13.4973 26.855 14.0576L32.945 20.1501ZM35.5 41.2464C35.5 44.1351 33.1375 46.4985 30.25 46.4985H12.75C9.8625 46.4985 7.5 44.1351 7.5 41.2464V16.7362C7.5 13.8475 9.8625 11.484 12.75 11.484H20.6425C20.9225 11.484 21.22 11.484 21.5 11.519V20.2376C21.5 23.1263 23.8625 25.4898 26.75 25.4898H35.465C35.5 25.7699 35.5 26.0501 35.5 26.3477V41.2464ZM18 41.2464C18 42.2093 17.2125 42.9971 16.25 42.9971H12.75C11.7875 42.9971 11 42.2093 11 41.2464V39.4956C11 38.5327 11.7875 37.7449 12.75 37.7449C13.7125 37.7449 14.5 38.5327 14.5 39.4956H16.25C17.2125 39.4956 18 40.2835 18 41.2464ZM32 39.4956V41.2464C32 42.2093 31.2125 42.9971 30.25 42.9971H26.75C25.7875 42.9971 25 42.2093 25 41.2464C25 40.2835 25.7875 39.4956 26.75 39.4956H28.5C28.5 38.5327 29.2875 37.7449 30.25 37.7449C31.2125 37.7449 32 38.5327 32 39.4956ZM32 30.742V32.4927C32 33.4556 31.2125 34.2435 30.25 34.2435C29.2875 34.2435 28.5 33.4556 28.5 32.4927H26.75C25.7875 32.4927 25 31.7049 25 30.742C25 29.7791 25.7875 28.9913 26.75 28.9913H30.25C31.2125 28.9913 32 29.7791 32 30.742ZM18 30.742C18 31.7049 17.2125 32.4927 16.25 32.4927H14.5C14.5 33.4556 13.7125 34.2435 12.75 34.2435C11.7875 34.2435 11 33.4556 11 32.4927V30.742C11 29.7791 11.7875 28.9913 12.75 28.9913H16.25C17.2125 28.9913 18 29.7791 18 30.742ZM18 23.7391C18 24.702 17.2125 25.4898 16.25 25.4898H12.75C11.7875 25.4898 11 24.702 11 23.7391C11 22.7762 11.7875 21.9884 12.75 21.9884H16.25C17.2125 21.9884 18 22.7762 18 23.7391Z" fill="#DC6339"/>
</svg>
