<svg width="37" height="44" viewBox="0 0 37 44" fill="none" xmlns="http://www.w3.org/2000/svg">
<path d="M33.2057 10.1475L26.7603 3.76017C24.3146 1.3365 21.0623 0 17.6028 0H9.25C4.14955 0 0 4.11217 0 9.16667V34.8333C0 39.8878 4.14955 44 9.25 44H27.75C32.8504 44 37 39.8878 37 34.8333V19.2225C37 15.7942 35.6513 12.5712 33.2057 10.1475ZM30.5898 12.7398C31.1725 13.3173 31.6332 13.9773 32.0346 14.6667H24.05C23.0288 14.6667 22.2 13.8453 22.2 12.8333V4.92067C22.8956 5.3185 23.5616 5.775 24.1444 6.3525L30.5898 12.7398ZM33.3 34.8333C33.3 37.8657 30.8099 40.3333 27.75 40.3333H9.25C6.1901 40.3333 3.7 37.8657 3.7 34.8333V9.16667C3.7 6.13433 6.1901 3.66667 9.25 3.66667H17.6028C17.908 3.66667 18.2003 3.72533 18.5 3.75283V12.8333C18.5 15.8657 20.9901 18.3333 24.05 18.3333H33.2131C33.2426 18.6303 33.3 18.92 33.3 19.2225V34.8333ZM24.444 24.8105C23.3581 22.0458 20.6793 20.1667 17.575 20.1667C13.4939 20.1667 10.175 23.4557 10.175 27.5C10.175 27.6265 10.1787 27.753 10.1861 27.8777C8.54885 28.5853 7.4 30.2042 7.4 32.0833C7.4 34.6115 9.4757 36.6667 12.025 36.6667H23.5875C26.9027 36.6667 29.6 33.9937 29.6 30.7083C29.6 27.7108 27.3541 25.2248 24.444 24.8105ZM23.5875 33H12.025C11.5144 33 11.1 32.5875 11.1 32.0833C11.1 31.5792 11.5144 31.1667 12.1452 31.152C12.7835 31.2235 13.418 30.9742 13.8214 30.4773C14.2228 29.9787 14.3338 29.3077 14.1136 28.7082C13.949 28.2553 13.875 27.8832 13.875 27.5C13.875 25.4778 15.5344 23.8333 17.575 23.8333C19.3954 23.8333 20.9235 25.1332 21.2103 26.9262C21.3675 27.9143 22.3647 28.5835 23.3822 28.4423C24.7216 28.259 25.9 29.3773 25.9 30.7083C25.9 31.9715 24.8622 33 23.5875 33Z" fill="#DC6339"/>
</svg>
