<svg width="44" height="44" viewBox="0 0 44 44" fill="none" xmlns="http://www.w3.org/2000/svg">
<path d="M22 0C17.6488 0 13.3953 1.29028 9.77746 3.70767C6.15958 6.12506 3.33979 9.56099 1.67466 13.581C0.00953226 17.6009 -0.426141 22.0244 0.422734 26.292C1.27161 30.5596 3.3669 34.4796 6.44366 37.5563C9.52041 40.6331 13.4404 42.7284 17.708 43.5773C21.9756 44.4261 26.3991 43.9905 30.419 42.3253C34.439 40.6602 37.8749 37.8404 40.2923 34.2225C42.7097 30.6047 44 26.3512 44 22C43.9937 16.1672 41.6738 10.5751 37.5494 6.45062C33.425 2.32618 27.8328 0.00630865 22 0ZM22 40.3333C18.374 40.3333 14.8295 39.2581 11.8146 37.2436C8.79965 35.2291 6.44982 32.3658 5.06222 29.0159C3.67461 25.6659 3.31155 21.9797 4.01895 18.4233C4.72634 14.867 6.47242 11.6003 9.03638 9.03637C11.6003 6.47241 14.867 4.72633 18.4234 4.01894C21.9797 3.31154 25.6659 3.6746 29.0159 5.06221C32.3658 6.44981 35.2291 8.79964 37.2436 11.8145C39.2581 14.8294 40.3333 18.374 40.3333 22C40.328 26.8607 38.3947 31.5207 34.9577 34.9577C31.5207 38.3947 26.8607 40.328 22 40.3333ZM22 12.8333C20.7042 12.8309 19.4493 13.2871 18.4576 14.1212C17.4659 14.9554 16.8014 16.1136 16.5818 17.3907C16.3622 18.6678 16.6017 19.9814 17.2578 21.0989C17.914 22.2163 18.9444 23.0655 20.1667 23.496V29.3333C20.1667 29.8196 20.3598 30.2859 20.7036 30.6297C21.0475 30.9735 21.5138 31.1667 22 31.1667C22.4862 31.1667 22.9526 30.9735 23.2964 30.6297C23.6402 30.2859 23.8333 29.8196 23.8333 29.3333V23.496C25.0556 23.0655 26.086 22.2163 26.7422 21.0989C27.3983 19.9814 27.6378 18.6678 27.4182 17.3907C27.1986 16.1136 26.5341 14.9554 25.5424 14.1212C24.5508 13.2871 23.2959 12.8309 22 12.8333ZM22 20.1667C21.6374 20.1667 21.2829 20.0591 20.9815 19.8577C20.68 19.6562 20.445 19.3699 20.3062 19.0349C20.1675 18.6999 20.1312 18.3313 20.2019 17.9757C20.2726 17.62 20.4472 17.2934 20.7036 17.037C20.96 16.7806 21.2867 16.606 21.6423 16.5352C21.998 16.4645 22.3666 16.5008 22.7016 16.6395C23.0366 16.7783 23.3229 17.0133 23.5244 17.3148C23.7258 17.6163 23.8333 17.9707 23.8333 18.3333C23.8333 18.8196 23.6402 19.2859 23.2964 19.6297C22.9526 19.9735 22.4862 20.1667 22 20.1667Z" fill="#DC6339"/>
</svg>
