<svg width="44" height="44" viewBox="0 0 44 44" fill="none" xmlns="http://www.w3.org/2000/svg">
<path d="M34.8333 0H9.16667C4.11217 0 0 4.486 0 10V34C0 39.514 4.11217 44 9.16667 44H34.8333C39.8878 44 44 39.514 44 34V10C44 4.486 39.8878 0 34.8333 0ZM9.16667 4H34.8333C37.8657 4 40.3333 6.692 40.3333 10V14H3.66667V10C3.66667 6.692 6.13433 4 9.16667 4ZM34.8333 40H9.16667C6.13433 40 3.66667 37.308 3.66667 34V18H40.3333V34C40.3333 37.308 37.8657 40 34.8333 40ZM5.5 9C5.5 7.344 6.732 6 8.25 6C9.768 6 11 7.344 11 9C11 10.656 9.768 12 8.25 12C6.732 12 5.5 10.656 5.5 9ZM12.8333 9C12.8333 7.344 14.0653 6 15.5833 6C17.1013 6 18.3333 7.344 18.3333 9C18.3333 10.656 17.1013 12 15.5833 12C14.0653 12 12.8333 10.656 12.8333 9ZM16.5 30V34C16.5 35.106 15.6787 36 14.6667 36C13.6547 36 12.8333 35.106 12.8333 34V30C12.8333 28.894 13.6547 28 14.6667 28C15.6787 28 16.5 28.894 16.5 30ZM23.8333 24V34C23.8333 35.106 23.012 36 22 36C20.988 36 20.1667 35.106 20.1667 34V24C20.1667 22.894 20.988 22 22 22C23.012 22 23.8333 22.894 23.8333 24ZM31.1667 28V34C31.1667 35.106 30.3453 36 29.3333 36C28.3213 36 27.5 35.106 27.5 34V28C27.5 26.894 28.3213 26 29.3333 26C30.3453 26 31.1667 26.894 31.1667 28Z" fill="#DC6339"/>
</svg>
