<svg width="42" height="42" viewBox="0 0 42 42" fill="none" xmlns="http://www.w3.org/2000/svg">
<path d="M41.4709 39.0238L37.0282 34.5769C37.9377 33.1938 38.48 31.5306 38.48 29.7449C38.48 24.9129 34.562 20.9912 29.7345 20.9912C24.907 20.9912 20.9891 24.9129 20.9891 29.7449C20.9891 34.5769 24.907 38.4985 29.7345 38.4985C31.5186 38.4985 33.1802 37.9558 34.562 37.0454L39.0047 41.4923C39.3545 41.8424 39.7918 42 40.2465 42C40.7013 42 41.1386 41.8249 41.4884 41.4923C42.1705 40.8095 42.1705 39.7065 41.4884 39.0238H41.4709ZM24.4872 29.7624C24.4872 26.8737 26.8485 24.5102 29.7345 24.5102C32.6205 24.5102 34.9818 26.8737 34.9818 29.7624C34.9818 32.6511 32.6205 35.0146 29.7345 35.0146C26.8485 35.0146 24.4872 32.6511 24.4872 29.7624ZM19.24 36.7653C19.24 37.7282 18.4529 38.516 17.4909 38.516H8.74545C3.91796 38.516 0 34.5944 0 29.7624V8.75365C0 3.92163 3.91796 0 8.74545 0H29.7345C34.562 0 38.48 3.92163 38.48 8.75365V17.5073C38.48 18.4702 37.6929 19.258 36.7309 19.258C35.7689 19.258 34.9818 18.4702 34.9818 17.5073V8.75365C34.9818 5.86494 32.6205 3.50146 29.7345 3.50146H8.74545C5.85945 3.50146 3.49818 5.86494 3.49818 8.75365V29.7624C3.49818 32.6511 5.85945 35.0146 8.74545 35.0146H17.4909C18.4529 35.0146 19.24 35.8024 19.24 36.7653ZM10.4945 14.7236V28.0117H15.7418C16.7038 28.0117 17.4909 28.7995 17.4909 29.7624C17.4909 30.7253 16.7038 31.5131 15.7418 31.5131H10.4945C8.57054 31.5131 6.99636 29.9375 6.99636 28.0117V10.5044C6.99636 8.57857 8.57054 7.00292 10.4945 7.00292H13.9927C14.6923 7.00292 15.3395 7.42309 15.6019 8.08837C15.8817 8.73614 15.7243 9.48895 15.2171 9.99667L10.477 14.7411L10.4945 14.7236ZM19.24 22.7595C19.24 23.7224 18.4529 24.5102 17.4909 24.5102C15.5669 24.5102 13.9927 22.9346 13.9927 21.0088V18.085C13.9927 16.6845 14.5349 15.3539 15.5319 14.3735L21.3564 8.54356C22.3534 7.54564 23.6652 7.00292 25.0644 7.00292H27.9854C29.9094 7.00292 31.4836 8.57857 31.4836 10.5044V15.7566C31.4836 16.7195 30.6965 17.5073 29.7345 17.5073C28.7725 17.5073 27.9854 16.7195 27.9854 15.7566V10.5044H25.0644C24.6097 10.5044 24.1549 10.697 23.8226 11.0121L17.9981 16.842C17.6658 17.1747 17.4909 17.6123 17.4909 18.085V21.0088C18.4529 21.0088 19.24 21.7966 19.24 22.7595Z" fill="#DC6339"/>
</svg>
