<svg width="46" height="46" viewBox="0 0 46 46" fill="none" xmlns="http://www.w3.org/2000/svg">
<path d="M24.9192 21.0847C24.9192 19.6701 24.1429 18.4472 23.0024 17.7821V9.58381C23.0024 8.52573 22.1437 7.66699 21.0856 7.66699C20.0275 7.66699 19.1688 8.52573 19.1688 9.58381V17.7821C18.0283 18.4453 17.252 19.6682 17.252 21.0847C17.252 23.2028 18.9675 24.9184 21.0856 24.9184C23.2037 24.9184 24.9192 23.2028 24.9192 21.0847Z" fill="#DC6339"/>
<path d="M34.5029 22.998C28.1505 22.998 23.002 28.1466 23.002 34.499C23.002 40.8513 28.1505 45.9999 34.5029 45.9999C40.8552 45.9999 46.0038 40.8513 46.0038 34.499C46.0038 28.1466 40.8552 22.998 34.5029 22.998ZM39.7377 37.3589L36.2414 42.4174C35.6453 43.2799 34.4665 43.5023 33.5981 42.9157C32.7126 42.3196 32.4864 41.112 33.0959 40.236L35.7507 36.4196H31.85C30.8743 36.4196 29.9447 35.9519 29.3639 35.1699C28.7831 34.3859 28.6048 33.3604 28.8866 32.4269L32.5765 26.6573C33.1611 25.7659 34.3591 25.5206 35.2466 26.1129C36.1226 26.6975 36.3641 27.8764 35.7891 28.7581L33.2915 32.5879H37.1807C38.3154 32.5879 39.3524 33.209 39.8892 34.2095C40.4259 35.2101 40.3684 36.4158 39.7416 37.3627L39.7377 37.3589Z" fill="#DC6339"/>
<path d="M12.8614 31.8315L11.0711 33.3784C10.4519 33.9113 9.51462 33.8902 8.94341 33.3228C5.10018 29.516 3.28879 24.2294 3.97693 18.8201C4.96025 11.0723 11.3145 4.81774 19.0796 3.94559C28.8554 2.8645 37.2817 9.83598 38.2459 19.3185C38.3532 20.3708 39.2867 21.1318 40.3467 21.0321C41.399 20.9248 42.1677 19.9836 42.0603 18.9313C40.8834 7.3422 30.4751 -1.18574 18.654 0.134948C9.15043 1.2007 1.37771 8.85649 0.173951 18.3371C-0.6637 24.9405 1.55023 31.3945 6.24644 36.0466C7.28344 37.074 8.65589 37.5935 10.0341 37.5935C11.2954 37.5935 12.5624 37.1564 13.5783 36.2785L15.3667 34.7317C16.1679 34.0397 16.2561 32.8283 15.5641 32.0289C14.8702 31.2277 13.6607 31.1395 12.8614 31.8315Z" fill="#DC6339"/>
</svg>
