<svg width="43" height="44" viewBox="0 0 43 44" fill="none" xmlns="http://www.w3.org/2000/svg">
<path d="M32.2487 14.6667C36.2009 14.6667 39.415 11.3777 39.415 7.33333C39.415 3.289 36.2009 0 32.2487 0C28.2964 0 25.0823 3.289 25.0823 7.33333C25.0823 11.3777 28.2964 14.6667 32.2487 14.6667ZM32.2487 3.66667C34.2248 3.66667 35.8318 5.31117 35.8318 7.33333C35.8318 9.3555 34.2248 11 32.2487 11C30.2725 11 28.6655 9.3555 28.6655 7.33333C28.6655 5.31117 30.2725 3.66667 32.2487 3.66667ZM14.3327 20.1667C14.3327 24.211 17.5469 27.5 21.4991 27.5C25.4514 27.5 28.6655 24.211 28.6655 20.1667C28.6655 16.1223 25.4514 12.8333 21.4991 12.8333C17.5469 12.8333 14.3327 16.1223 14.3327 20.1667ZM21.4991 16.5C23.4752 16.5 25.0823 18.1445 25.0823 20.1667C25.0823 22.1888 23.4752 23.8333 21.4991 23.8333C19.523 23.8333 17.9159 22.1888 17.9159 20.1667C17.9159 18.1445 19.523 16.5 21.4991 16.5ZM10.7496 14.6667C14.7018 14.6667 17.9159 11.3777 17.9159 7.33333C17.9159 3.289 14.7018 0 10.7496 0C6.7973 0 3.58318 3.289 3.58318 7.33333C3.58318 11.3777 6.7973 14.6667 10.7496 14.6667ZM10.7496 3.66667C12.7257 3.66667 14.3327 5.31117 14.3327 7.33333C14.3327 9.3555 12.7257 11 10.7496 11C8.77343 11 7.16637 9.3555 7.16637 7.33333C7.16637 5.31117 8.77343 3.66667 10.7496 3.66667ZM41.2066 40.3333H32.2487C32.2487 34.2668 27.4275 29.3333 21.4991 29.3333C15.5707 29.3333 10.7496 34.2668 10.7496 40.3333H1.79159C0.800842 40.3333 0 41.1528 0 42.1667C0 43.1805 0.800842 44 1.79159 44H41.2066C42.1974 44 42.9982 43.1805 42.9982 42.1667C42.9982 41.1528 42.1974 40.3333 41.2066 40.3333ZM21.4991 33C25.4514 33 28.6655 36.289 28.6655 40.3333H14.3327C14.3327 36.289 17.5469 33 21.4991 33ZM42.9982 29.3333C42.9982 30.3472 42.1974 31.1667 41.2066 31.1667C40.2159 31.1667 39.415 30.3472 39.415 29.3333C39.415 25.8097 36.9516 22.6417 33.6837 21.9633C32.7145 21.7617 32.0874 20.7937 32.2845 19.8C32.4816 18.81 33.4186 18.1757 34.3986 18.3682C39.381 19.4022 43 24.0148 43 29.3315L42.9982 29.3333ZM0 29.3333C0 24.0167 3.61902 19.404 8.60143 18.37C9.58681 18.183 10.5166 18.8118 10.7155 19.8018C10.9108 20.7955 10.2855 21.7617 9.31628 21.9652C6.04841 22.6417 3.58498 25.8115 3.58498 29.3352C3.58498 30.349 2.78413 31.1685 1.79338 31.1685C0.802633 31.1685 0.00179159 30.349 0.00179159 29.3352L0 29.3333Z" fill="#DC6339"/>
</svg>
