<svg width="46" height="44" viewBox="0 0 46 44" fill="none" xmlns="http://www.w3.org/2000/svg">
<path d="M40.251 32.5197C38.7646 32.5214 37.3371 33.1005 36.2708 34.1346L30.5985 31.3009C30.6367 31.0711 30.6604 30.8391 30.6694 30.6063C30.6604 30.3735 30.6367 30.1415 30.5985 29.9117L36.2708 27.078C37.226 27.9915 38.4678 28.5474 39.7863 28.6517C41.1048 28.756 42.4189 28.4023 43.5062 27.6504C44.5935 26.8986 45.3872 25.7947 45.7531 24.5257C46.119 23.2566 46.0345 21.9004 45.514 20.6864C44.9935 19.4724 44.0688 18.4752 42.8966 17.8636C41.7244 17.252 40.3766 17.0636 39.0812 17.3302C37.7858 17.5968 36.6225 18.3021 35.7881 19.3266C34.9536 20.3512 34.4993 21.6322 34.502 22.9527C34.5111 23.1855 34.5347 23.4175 34.573 23.6473L28.9006 26.481C28.0893 25.6972 27.0647 25.1692 25.9548 24.963C24.8449 24.7568 23.6987 24.8814 22.6593 25.3214C21.6199 25.7613 20.7332 26.4971 20.1098 27.4369C19.4865 28.3768 19.1541 29.4791 19.1541 30.6063C19.1541 31.7335 19.4865 32.8358 20.1098 33.7757C20.7332 34.7155 21.6199 35.4513 22.6593 35.8912C23.6987 36.3312 24.8449 36.4558 25.9548 36.2496C27.0647 36.0433 28.0893 35.5154 28.9006 34.7316L34.573 37.5653C34.5347 37.7951 34.5111 38.0271 34.502 38.2598C34.502 39.3951 34.8392 40.5049 35.4709 41.4489C36.1026 42.3929 37.0005 43.1286 38.051 43.5631C39.1015 43.9975 40.2574 44.1112 41.3726 43.8897C42.4878 43.6682 43.5122 43.1215 44.3162 42.3187C45.1202 41.516 45.6677 40.4932 45.8895 39.3797C46.1114 38.2662 45.9975 37.1121 45.5624 36.0632C45.1273 35.0143 44.3904 34.1178 43.445 33.4871C42.4996 32.8563 41.3881 32.5197 40.251 32.5197ZM40.251 21.0394C40.63 21.0394 41.0005 21.1516 41.3157 21.3618C41.6308 21.5721 41.8764 21.8709 42.0215 22.2205C42.1665 22.5702 42.2045 22.9549 42.1305 23.326C42.0566 23.6972 41.8741 24.0381 41.6061 24.3057C41.3381 24.5733 40.9966 24.7555 40.6249 24.8294C40.2532 24.9032 39.8678 24.8653 39.5177 24.7205C39.1675 24.5757 38.8682 24.3304 38.6577 24.0158C38.4471 23.7011 38.3347 23.3312 38.3347 22.9527C38.3347 22.4453 38.5366 21.9586 38.896 21.5998C39.2554 21.241 39.7428 21.0394 40.251 21.0394ZM24.9204 32.5197C24.5414 32.5197 24.1709 32.4075 23.8558 32.1972C23.5406 31.987 23.295 31.6881 23.15 31.3385C23.0049 30.9889 22.967 30.6042 23.0409 30.233C23.1149 29.8618 23.2974 29.5209 23.5654 29.2533C23.8334 28.9857 24.1748 28.8035 24.5466 28.7297C24.9183 28.6558 25.3036 28.6937 25.6538 28.8386C26.0039 28.9834 26.3032 29.2286 26.5138 29.5433C26.7244 29.8579 26.8367 30.2279 26.8367 30.6063C26.8367 31.1138 26.6348 31.6004 26.2755 31.9593C25.9161 32.3181 25.4287 32.5197 24.9204 32.5197ZM40.251 40.1732C39.872 40.1732 39.5015 40.061 39.1864 39.8508C38.8712 39.6405 38.6256 39.3417 38.4806 38.9921C38.3355 38.6424 38.2976 38.2577 38.3715 37.8866C38.4455 37.5154 38.628 37.1745 38.896 36.9069C39.164 36.6393 39.5054 36.4571 39.8772 36.3832C40.2489 36.3094 40.6342 36.3473 40.9844 36.4921C41.3345 36.6369 41.6338 36.8822 41.8444 37.1968C42.055 37.5115 42.1673 37.8814 42.1673 38.2598C42.1673 38.7673 41.9655 39.254 41.6061 39.6128C41.2467 39.9716 40.7593 40.1732 40.251 40.1732ZM23.0041 40.1732C23.0041 40.6807 22.8022 41.1674 22.4428 41.5262C22.0834 41.885 21.596 42.0866 21.0878 42.0866H10.891C8.33707 42.04 5.8759 41.1227 3.91616 39.4868C1.95641 37.851 0.615982 35.5951 0.11743 33.0937C-0.208903 30.9406 0.148946 28.7394 1.14065 26.7999C2.13235 24.8604 3.70801 23.2801 5.64603 22.2812C3.98237 19.2606 3.43948 15.7508 4.11297 12.3698C4.76782 9.02575 6.52143 5.99545 9.09602 3.75892C11.6706 1.5224 14.919 0.207518 18.3266 0.0225742C21.7341 -0.16237 25.1061 0.793193 27.9083 2.7379C30.7106 4.6826 32.7828 7.50526 33.7968 10.7587C33.8934 11.0889 34.0703 11.3901 34.3117 11.6354C34.5531 11.8808 34.8515 12.0628 35.1804 12.1651C35.4264 12.2342 35.6561 12.3518 35.8559 12.5108C36.0557 12.6699 36.2217 12.8673 36.3439 13.0913C36.4662 13.3153 36.5424 13.5616 36.568 13.8154C36.5936 14.0693 36.568 14.3257 36.4929 14.5696C36.4177 14.8135 36.2945 15.0399 36.1304 15.2355C35.9663 15.4311 35.7647 15.592 35.5374 15.7086C35.3101 15.8253 35.0617 15.8954 34.8069 15.9148C34.5521 15.9342 34.296 15.9025 34.0536 15.8216C33.1297 15.5348 32.2899 15.027 31.6073 14.3424C30.9247 13.6578 30.4198 12.8171 30.1367 11.8934C29.6755 10.3611 28.8987 8.94208 27.856 7.7272C26.8134 6.51232 25.5279 5.52846 24.0821 4.83872C22.6362 4.14897 21.062 3.76859 19.4603 3.72196C17.8586 3.67533 16.2648 3.96349 14.7812 4.56794C13.2976 5.1724 11.9569 6.07981 10.8451 7.23197C9.73332 8.38413 8.875 9.75559 8.32521 11.2584C7.77542 12.7612 7.54629 14.3621 7.65253 15.9585C7.75876 17.5549 8.19801 19.1115 8.94211 20.5285C9.41627 21.4124 9.52287 22.4472 9.23884 23.4089C8.95481 24.3707 8.30299 25.1822 7.42438 25.6678C6.19088 26.3051 5.18835 27.3123 4.55763 28.5478C3.92691 29.7833 3.6997 31.185 3.90792 32.556C4.26264 34.1509 5.14406 35.5805 6.41054 36.615C7.67702 37.6494 9.25503 38.2287 10.891 38.2598H21.0878C21.596 38.2598 22.0834 38.4614 22.4428 38.8203C22.8022 39.1791 23.0041 39.6658 23.0041 40.1732Z" fill="#DC6339"/>
</svg>
