<svg width="32" height="44" viewBox="0 0 32 44" fill="none" xmlns="http://www.w3.org/2000/svg">
<path d="M26.6572 4.19486C24.4879 2.19589 21.8313 0.844926 18.9731 0.287367C16.1148 -0.270191 13.1633 -0.013236 10.4362 1.03058C7.70901 2.0744 5.30943 3.86555 3.49569 6.21128C1.68194 8.55702 0.522698 11.3685 0.142711 14.3432C-0.198553 16.9515 0.0743792 19.6062 0.938411 22.0827C1.80244 24.5592 3.23214 26.7845 5.10652 28.5703C6.26563 29.6188 7.20095 30.9042 7.8532 32.345C8.50545 33.7859 8.8604 35.3508 8.89557 36.9405V37.2357C8.89745 39.0291 9.58899 40.7485 10.8184 42.0166C12.0479 43.2848 13.7148 43.9981 15.4536 44H16.5554C18.2941 43.9981 19.9611 43.2848 21.1905 42.0166C22.42 40.7485 23.1115 39.0291 23.1134 37.2357V36.2293C23.14 34.8241 23.4606 33.4414 24.0532 32.1758C24.6458 30.9103 25.4965 29.7917 26.547 28.8966C28.2507 27.3576 29.6178 25.4627 30.5578 23.3376C31.4979 21.2124 31.9894 18.9054 31.9998 16.5695C32.0103 14.2336 31.5393 11.9221 30.6183 9.78811C29.6972 7.65411 28.347 5.74634 26.6572 4.1912V4.19486ZM16.5554 40.3337H15.4536C14.6573 40.3327 13.8938 40.006 13.3308 39.4252C12.7677 38.8444 12.451 38.057 12.45 37.2357C12.45 37.2357 12.4376 36.759 12.4358 36.6674H19.559V37.2357C19.558 38.057 19.2413 38.8444 18.6782 39.4252C18.1151 40.006 17.3517 40.3327 16.5554 40.3337ZM24.1975 26.1432C22.174 27.9535 20.7127 30.3389 19.9962 33.0011H17.7817V19.8317C18.8177 19.4539 19.7152 18.7552 20.3514 17.8312C20.9877 16.9071 21.3316 15.8029 21.3362 14.6695C21.3362 14.1833 21.1489 13.7171 20.8156 13.3733C20.4823 13.0295 20.0303 12.8364 19.559 12.8364C19.0876 12.8364 18.6356 13.0295 18.3023 13.3733C17.969 13.7171 17.7817 14.1833 17.7817 14.6695C17.7817 15.1557 17.5945 15.622 17.2612 15.9658C16.9279 16.3095 16.4758 16.5027 16.0045 16.5027C15.5331 16.5027 15.0811 16.3095 14.7478 15.9658C14.4145 15.622 14.2273 15.1557 14.2273 14.6695C14.2273 14.1833 14.04 13.7171 13.7067 13.3733C13.3734 13.0295 12.9214 12.8364 12.45 12.8364C11.9787 12.8364 11.5266 13.0295 11.1933 13.3733C10.86 13.7171 10.6728 14.1833 10.6728 14.6695C10.6774 15.8029 11.0213 16.9071 11.6575 17.8312C12.2938 18.7552 13.1913 19.4539 14.2273 19.8317V33.0011H11.8778C11.0762 30.2682 9.5729 27.8099 7.5271 25.8866C5.79067 24.2177 4.55331 22.0712 3.96104 19.7006C3.36877 17.3299 3.44631 14.834 4.18451 12.5073C4.92271 10.1806 6.29076 8.12029 8.12722 6.56947C9.96368 5.01864 12.1919 4.04204 14.5489 3.75491C15.0376 3.69865 15.5288 3.67049 16.0205 3.67058C19.073 3.66122 22.0198 4.82295 24.2882 6.92993C25.6028 8.13908 26.6532 9.62263 27.3698 11.2823C28.0864 12.9419 28.4528 14.7397 28.4447 16.5564C28.4367 18.3732 28.0543 20.1674 27.323 21.8202C26.5917 23.473 25.5281 24.9466 24.2029 26.1432H24.1975Z" fill="#DC6339"/>
</svg>
