<svg width="36" height="36" viewBox="0 0 36 36" fill="none" xmlns="http://www.w3.org/2000/svg">
<path d="M30.7498 22.5003H18.7493C15.8541 22.5003 13.499 24.8553 13.499 27.7504C13.499 30.6454 15.8541 33.0004 18.7493 33.0004H30.7498C33.6449 33.0004 36 30.6454 36 27.7504C36 24.8553 33.6449 22.5003 30.7498 22.5003ZM16.4992 27.7504C16.4992 26.5098 17.5087 25.5003 18.7493 25.5003H20.9994V30.0004H18.7493C17.5087 30.0004 16.4992 28.9909 16.4992 27.7504ZM30.7498 30.0004H23.9995V25.5003H30.7498C31.9903 25.5003 32.9999 26.5098 32.9999 27.7504C32.9999 28.9909 31.9903 30.0004 30.7498 30.0004ZM18.7493 13.5002H30.7498C33.6449 13.5002 36 11.1451 36 8.25011C36 5.35507 33.6449 3.00004 30.7498 3.00004H18.7493C15.8541 3.00004 13.499 5.35507 13.499 8.25011C13.499 11.1451 15.8541 13.5002 18.7493 13.5002ZM32.9999 8.25011C32.9999 9.49062 31.9903 10.5001 30.7498 10.5001H28.4997V6.00008H30.7498C31.9903 6.00008 32.9999 7.00959 32.9999 8.25011ZM18.7493 6.00008H25.4996V10.5001H18.7493C17.5087 10.5001 16.4992 9.49062 16.4992 8.25011C16.4992 7.00959 17.5087 6.00008 18.7493 6.00008ZM5.99873 9.00012C8.47984 9.00012 10.4989 6.98109 10.4989 4.50006C10.4989 2.01903 8.47984 0 5.99873 0C3.51763 0 1.49854 2.01903 1.49854 4.50006C1.49854 6.98109 3.51763 9.00012 5.99873 9.00012ZM11.9045 14.4737C12.1955 15.2492 11.8025 16.1132 11.0269 16.4042C10.8529 16.4687 10.6759 16.4987 10.5004 16.4987C9.8929 16.4987 9.32137 16.1282 9.09486 15.5252C8.64034 14.3132 7.39679 13.4987 6.00023 13.4987C4.60367 13.4987 3.35862 14.3132 2.9056 15.5252C2.61609 16.3037 1.74905 16.6937 0.973521 16.4042C0.197988 16.1132 -0.195029 15.2477 0.0959837 14.4737C0.987021 12.0962 3.36012 10.5001 6.00173 10.5001C8.64334 10.5001 11.0164 12.0962 11.9075 14.4737H11.9045ZM10.4989 24.0003C10.4989 21.5193 8.47984 19.5003 5.99873 19.5003C3.51763 19.5003 1.49854 21.5193 1.49854 24.0003C1.49854 26.4813 3.51763 28.5004 5.99873 28.5004C8.47984 28.5004 10.4989 26.4813 10.4989 24.0003ZM11.9045 33.9739C12.1955 34.7495 11.8025 35.6135 11.0269 35.9045C10.8529 35.969 10.6759 35.999 10.5004 35.999C9.8929 35.999 9.32137 35.6285 9.09486 35.0255C8.64034 33.8134 7.39679 32.9989 6.00023 32.9989C4.60367 32.9989 3.35862 33.8134 2.9056 35.0255C2.61609 35.804 1.74905 36.194 0.973521 35.9045C0.197988 35.6135 -0.195029 34.748 0.0959837 33.9739C0.987021 31.5964 3.36012 30.0004 6.00173 30.0004C8.64334 30.0004 11.0164 31.5964 11.9075 33.9739H11.9045Z" fill="white"/>
</svg>
