<svg width="36" height="36" viewBox="0 0 36 36" fill="none" xmlns="http://www.w3.org/2000/svg">
<path d="M16.5 15V16.5C16.5 17.328 15.828 18 15 18H7.5C6.672 18 6 17.328 6 16.5V15C6 14.172 6.672 13.5 7.5 13.5H15C15.828 13.5 16.5 14.172 16.5 15ZM36 9.75V25.5C36 26.0355 35.715 26.532 35.25 26.799C34.7865 27.066 34.215 27.066 33.7515 26.799L30.4965 24.924L27.846 26.7375C27.588 26.9145 27.2925 27 27.0015 27C26.523 27 26.052 26.772 25.7625 26.346C25.2945 25.6635 25.47 24.7305 26.154 24.261L29.5815 21.915C30.054 21.5895 30.678 21.564 31.176 21.8535L33 22.9035V9.75C33 6.0285 29.9715 3 26.25 3C22.8765 3 20.1045 5.436 19.6035 8.7225C21.3495 9.9435 22.5 11.9625 22.5 14.25V29.25C22.5 32.9715 19.4715 36 15.75 36H6.75C3.0285 36 0 32.9715 0 29.25V14.25C0 11.9145 1.1925 9.855 3 8.643V7.5C3 3.3645 6.3645 0 10.5 0H26.25C31.626 0 36 4.374 36 9.75ZM19.5 14.25C19.5 12.1815 17.8185 10.5 15.75 10.5H6.75C4.6815 10.5 3 12.1815 3 14.25V29.25C3 31.3185 4.6815 33 6.75 33H15.75C17.8185 33 19.5 31.3185 19.5 29.25V14.25ZM16.746 7.6005C17.1405 5.826 18.0015 4.251 19.1985 3H10.5C8.019 3 6 5.019 6 7.5V7.5765C6.249 7.548 6.4935 7.5 6.75 7.5H15.75C16.0905 7.5 16.419 7.551 16.746 7.6005ZM15 21H13.5C12.6705 21 12 21.6705 12 22.5C12 23.3295 12.6705 24 13.5 24H15C15.8295 24 16.5 23.3295 16.5 22.5C16.5 21.6705 15.8295 21 15 21ZM15 27H13.5C12.6705 27 12 27.6705 12 28.5C12 29.3295 12.6705 30 13.5 30H15C15.8295 30 16.5 29.3295 16.5 28.5C16.5 27.6705 15.8295 27 15 27ZM9 21H7.5C6.6705 21 6 21.6705 6 22.5C6 23.3295 6.6705 24 7.5 24H9C9.8295 24 10.5 23.3295 10.5 22.5C10.5 21.6705 9.8295 21 9 21ZM9 27H7.5C6.6705 27 6 27.6705 6 28.5C6 29.3295 6.6705 30 7.5 30H9C9.8295 30 10.5 29.3295 10.5 28.5C10.5 27.6705 9.8295 27 9 27Z" fill="white"/>
</svg>
