<svg width="34" height="34" viewBox="0 0 34 34" fill="none" xmlns="http://www.w3.org/2000/svg">
<g clip-path="url(#clip0_222_8534)">
<path d="M33.1656 22.4768C32.6428 21.8719 31.9373 21.4753 31.1667 21.3237V20.5417C31.1667 17.0269 28.3064 14.1667 24.7917 14.1667C21.2769 14.1667 18.4167 17.0269 18.4167 20.5417V21.3237C17.646 21.4753 16.9405 21.8719 16.4177 22.4768C15.7448 23.256 15.4445 24.2873 15.5932 25.3059L16.3356 30.3677C16.6402 32.4388 18.4478 34 20.5402 34H29.0403C31.1327 34 32.9403 32.4388 33.2449 30.3677L33.9872 25.3059C34.136 24.2873 33.8371 23.256 33.1628 22.4768H33.1656ZM24.7917 17C26.7438 17 28.3333 18.5895 28.3333 20.5417V21.25H21.25V20.5417C21.25 18.5895 22.8395 17 24.7917 17ZM30.4442 29.9554C30.3422 30.6453 29.7401 31.1667 29.0417 31.1667H20.5417C19.8433 31.1667 19.2412 30.6453 19.1392 29.9568L18.3968 24.8951C18.3557 24.616 18.4832 24.4205 18.5626 24.3284C18.6419 24.2377 18.8162 24.0833 19.0981 24.0833H30.4867C30.7686 24.0833 30.9428 24.2363 31.0222 24.3284C31.1015 24.4205 31.229 24.616 31.1879 24.8951L30.4442 29.9554ZM5.66667 6.375C5.66667 5.202 6.61867 4.25 7.79167 4.25C8.96467 4.25 9.91667 5.202 9.91667 6.375C9.91667 7.548 8.96467 8.5 7.79167 8.5C6.61867 8.5 5.66667 7.548 5.66667 6.375ZM11.3333 6.375C11.3333 5.202 12.2853 4.25 13.4583 4.25C14.6313 4.25 15.5833 5.202 15.5833 6.375C15.5833 7.548 14.6313 8.5 13.4583 8.5C12.2853 8.5 11.3333 7.548 11.3333 6.375ZM11.3333 28.3333H7.08333C4.74017 28.3333 2.83333 26.4265 2.83333 24.0833V12.75H31.1667V14.1667C31.1667 14.9487 31.8013 15.5833 32.5833 15.5833C33.3653 15.5833 34 14.9487 34 14.1667V7.08333C34 3.17758 30.8224 0 26.9167 0H7.08333C3.17758 0 0 3.17758 0 7.08333V24.0833C0 27.9891 3.17758 31.1667 7.08333 31.1667H11.3333C12.1153 31.1667 12.75 30.532 12.75 29.75C12.75 28.968 12.1153 28.3333 11.3333 28.3333ZM7.08333 2.83333H26.9167C29.2598 2.83333 31.1667 4.74017 31.1667 7.08333V9.91667H2.83333V7.08333C2.83333 4.74017 4.74017 2.83333 7.08333 2.83333Z" fill="white"/>
</g>
<defs>
<clipPath id="clip0_222_8534">
<rect width="34" height="34" fill="white"/>
</clipPath>
</defs>
</svg>
