<svg width="42" height="42" viewBox="0 0 42 42" fill="none" xmlns="http://www.w3.org/2000/svg">
<g clip-path="url(#clip0_222_16914)">
<path d="M36.75 0H11.3733C7.9975 0 5.25 2.74925 5.25 6.125V12.25C5.25 13.216 6.034 14 7 14C7.966 14 8.75 13.216 8.75 12.25V6.125C8.75 4.67775 9.92775 3.5 11.375 3.5C12.8223 3.5 14 4.67775 14 6.125C14 8.5365 15.9635 10.5 18.375 10.5H33.25V33.25C33.25 36.1445 30.8945 38.5 28 38.5H24.5C23.534 38.5 22.75 39.284 22.75 40.25C22.75 41.216 23.534 42 24.5 42H28C32.8247 42 36.75 38.0747 36.75 33.25V10.5H37.625C40.0365 10.5 42 8.5365 42 6.125V5.25C42 2.3555 39.6445 0 36.75 0ZM38.5 6.125C38.5 6.608 38.108 7 37.625 7H18.375C17.892 7 17.5 6.608 17.5 6.125C17.5 5.18525 17.2865 4.29625 16.9085 3.5H36.75C37.7142 3.5 38.5 4.28575 38.5 5.25V6.125ZM14.875 17.5H6.125C2.7475 17.5 0 20.2475 0 23.625V35.875C0 39.2525 2.7475 42 6.125 42H14.875C18.2525 42 21 39.2525 21 35.875V23.625C21 20.2475 18.2525 17.5 14.875 17.5ZM17.5 35.875C17.5 37.3223 16.3223 38.5 14.875 38.5H6.125C4.67775 38.5 3.5 37.3223 3.5 35.875V23.625C3.5 22.1777 4.67775 21 6.125 21H14.875C16.3223 21 17.5 22.1777 17.5 23.625V35.875ZM15.75 24.5C15.75 25.466 14.966 26.25 14 26.25H7C6.034 26.25 5.25 25.466 5.25 24.5C5.25 23.534 6.034 22.75 7 22.75H14C14.966 22.75 15.75 23.534 15.75 24.5ZM15.75 29.75C15.75 30.716 14.966 31.5 14 31.5H13.125C12.159 31.5 11.375 30.716 11.375 29.75C11.375 28.784 12.159 28 13.125 28H14C14.966 28 15.75 28.784 15.75 29.75ZM9.625 29.75C9.625 30.716 8.841 31.5 7.875 31.5H7C6.034 31.5 5.25 30.716 5.25 29.75C5.25 28.784 6.034 28 7 28H7.875C8.841 28 9.625 28.784 9.625 29.75ZM15.75 35C15.75 35.966 14.966 36.75 14 36.75H13.125C12.159 36.75 11.375 35.966 11.375 35C11.375 34.034 12.159 33.25 13.125 33.25H14C14.966 33.25 15.75 34.034 15.75 35ZM9.625 35C9.625 35.966 8.841 36.75 7.875 36.75H7C6.034 36.75 5.25 35.966 5.25 35C5.25 34.034 6.034 33.25 7 33.25H7.875C8.841 33.25 9.625 34.034 9.625 35Z" fill="#DC6339"/>
</g>
<defs>
<clipPath id="clip0_222_16914">
<rect width="42" height="42" fill="white"/>
</clipPath>
</defs>
</svg>
