<svg width="64" height="64" viewBox="0 0 64 64" fill="none" xmlns="http://www.w3.org/2000/svg">
<rect width="64" height="63.2967" rx="14" fill="#DC6339"/>
<g clip-path="url(#clip0_222_17005)">
<path d="M28 30.5182C27.2627 30.5182 26.6667 31.1156 26.6667 31.8516V32.0342C24.328 32.6236 22.5867 34.7062 22.5307 37.2116C21.8613 37.2822 21.3333 37.8289 21.3333 38.5169C21.3333 39.2529 21.9293 39.8502 22.6667 39.8502H33.3333C34.0707 39.8502 34.6667 39.2529 34.6667 38.5169C34.6667 37.8289 34.1387 37.2822 33.4693 37.2116C33.4133 34.7062 31.6707 32.6236 29.3333 32.0342V31.8516C29.3333 31.1156 28.7373 30.5182 28 30.5182ZM30.8107 37.1849H25.1893C25.2667 35.7009 26.4973 34.5182 28 34.5182C29.5027 34.5182 30.7347 35.7009 30.8107 37.1849ZM48 44.5596V46.5182C48 47.2542 47.404 47.8516 46.6667 47.8516C45.9293 47.8516 45.3333 47.2542 45.3333 46.5182V44.5596C45.3333 43.4622 44.676 42.4902 43.6573 42.0836L40 40.6209V46.2102C40 47.1169 39.2653 47.8516 38.3587 47.8516H36.4707C35.6067 47.8516 34.7773 47.5169 34.1547 46.9182L32.7547 45.5702C31.6467 44.4622 31.7573 42.5956 33.0867 41.6382C33.5147 41.3289 34.0147 41.1849 34.5187 41.1849C35.24 41.1849 35.968 41.4822 36.5027 42.0169L37.332 42.7809V33.8502C37.332 32.7476 38.2293 31.8502 39.332 31.8502C40.4347 31.8502 41.332 32.7476 41.332 33.8502V38.2809L44.6453 39.6062C46.6813 40.4209 47.9987 42.3649 47.9987 44.5582L48 44.5596ZM24 21.8516C24 22.9556 23.104 23.8516 22 23.8516C20.896 23.8516 20 22.9556 20 21.8516C20 20.7476 20.896 19.8516 22 19.8516C23.104 19.8516 24 20.7476 24 21.8516ZM29.3333 21.8516C29.3333 22.9556 28.4373 23.8516 27.3333 23.8516C26.2293 23.8516 25.3333 22.9556 25.3333 21.8516C25.3333 20.7476 26.2293 19.8516 27.3333 19.8516C28.4373 19.8516 29.3333 20.7476 29.3333 21.8516ZM41.3333 15.8516H22.6667C18.9907 15.8516 16 18.8422 16 22.5182V38.5182C16 42.1942 18.9907 45.1849 22.6667 45.1849H28C28.7373 45.1849 29.3333 44.5876 29.3333 43.8516C29.3333 43.1156 28.7373 42.5182 28 42.5182H22.6667C20.4613 42.5182 18.6667 40.7236 18.6667 38.5182V27.8516H45.3333V35.8516C45.3333 36.5876 45.9293 37.1849 46.6667 37.1849C47.404 37.1849 48 36.5876 48 35.8516V22.5182C48 18.8422 45.0093 15.8516 41.3333 15.8516ZM18.6667 25.1849V22.5182C18.6667 20.3129 20.4613 18.5182 22.6667 18.5182H41.3333C43.5387 18.5182 45.3333 20.3129 45.3333 22.5182V25.1849H18.6667Z" fill="#FFF5F5"/>
</g>
<defs>
<clipPath id="clip0_222_17005">
<rect width="32" height="32" fill="white" transform="translate(16 15.8516)"/>
</clipPath>
</defs>
</svg>
