<svg width="38" height="41" viewBox="0 0 38 41" fill="none" xmlns="http://www.w3.org/2000/svg">
<path d="M37.5834 32.9362V39.2929C37.5834 40.2359 36.8197 41.0012 35.875 41.0012C34.9303 41.0012 34.1667 40.2359 34.1667 39.2929V32.9362C34.1667 30.5018 32.4327 28.3886 30.0462 27.9103L18.4569 25.5921C17.6591 25.4332 17.0834 24.7311 17.0834 23.9179V12.1423C17.0834 11.2233 16.4649 10.4033 15.6757 10.2768C15.1529 10.1914 14.6575 10.3281 14.2697 10.6578C13.8871 10.9824 13.6667 11.4573 13.6667 11.9596V35.2578C13.6667 35.9138 13.2909 36.5117 12.6998 36.797C12.1121 37.0823 11.4083 37.0054 10.8941 36.5937L6.3892 33.0062C5.59824 32.2751 4.51857 32.3126 3.87795 32.9994C3.23561 33.6878 3.27149 34.7743 3.95824 35.4201L6.31061 37.6888C6.98882 38.3431 7.00932 39.4244 6.35332 40.1043C5.69903 40.7826 4.61766 40.8013 3.93774 40.1471L1.60245 37.8955C-0.439012 35.9804 -0.548345 32.7312 1.38036 30.6675C3.30907 28.6073 6.55491 28.4962 8.61857 30.4215L10.25 31.7181V11.9596C10.25 10.4545 10.9077 9.03147 12.0557 8.05431C13.202 7.07714 14.7224 6.65689 16.2224 6.90289C18.6602 7.29751 20.4983 9.55081 20.4983 12.1406V22.5153L30.7142 24.5585C34.6929 25.3546 37.5817 28.8772 37.5817 32.9345L37.5834 32.9362ZM6.05436 17.9387C6.29353 17.9387 6.53441 17.8892 6.76674 17.7833C7.62432 17.3903 8.00016 16.3756 7.60724 15.518C7.09303 14.3991 6.83336 13.2015 6.83336 11.9596C6.83336 7.24968 10.6652 3.41789 15.375 3.41789C20.0849 3.41789 23.9167 7.24968 23.9167 11.9596C23.9167 13.2049 23.657 14.4008 23.1445 15.518C22.7499 16.3756 23.1257 17.3903 23.9816 17.7833C24.8443 18.1779 25.8557 17.8021 26.2469 16.9445C26.9678 15.3779 27.3334 13.7003 27.3334 11.9613C27.3334 5.3671 21.9692 0.00292969 15.375 0.00292969C8.78087 0.00292969 3.4167 5.36539 3.4167 11.9596C3.4167 13.6969 3.78228 15.3728 4.50149 16.9428C4.78849 17.5697 5.40861 17.9387 6.05607 17.9387H6.05436Z" fill="#DC6339"/>
</svg>
