<svg width="33" height="43" viewBox="0 0 33 43" fill="none" xmlns="http://www.w3.org/2000/svg">
<path d="M27.4902 4.01995C25.2532 2.10432 22.5135 0.809694 19.566 0.275385C16.6184 -0.258925 13.5747 -0.0126841 10.7623 0.987606C7.94992 1.9879 5.47535 3.70436 3.60493 5.95229C1.7345 8.20021 0.539032 10.8945 0.147171 13.7451C-0.204758 16.2447 0.0767035 18.7887 0.967736 21.1619C1.85877 23.5351 3.33315 25.6676 5.26609 27.379C6.46143 28.3837 7.42597 29.6155 8.09861 30.9963C8.77124 32.3771 9.13729 33.8767 9.17356 35.4002V35.683C9.1755 37.4016 9.88864 39.0494 11.1565 40.2646C12.4244 41.4799 14.1434 42.1634 15.9365 42.1653H17.0728C18.8658 42.1634 20.5849 41.4799 21.8528 40.2646C23.1206 39.0494 23.8338 37.4016 23.8357 35.683V34.7186C23.8631 33.372 24.1937 32.047 24.8049 30.8342C25.416 29.6214 26.2933 28.5494 27.3766 27.6917C29.1335 26.2168 30.5433 24.401 31.5128 22.3644C32.4822 20.3279 32.9891 18.1171 32.9998 15.8786C33.0106 13.6401 32.5249 11.425 31.5751 9.37996C30.6252 7.33495 29.2329 5.50673 27.4902 4.01643V4.01995ZM17.0728 38.6519H15.9365C15.1153 38.6509 14.328 38.3378 13.7474 37.7813C13.1667 37.2247 12.8401 36.4701 12.8391 35.683C12.8391 35.683 12.8263 35.2263 12.8244 35.1384H20.1702V35.683C20.1692 36.4701 19.8426 37.2247 19.2619 37.7813C18.6812 38.3378 17.894 38.6509 17.0728 38.6519ZM24.9537 25.0531C22.867 26.7879 21.3599 29.0738 20.621 31.625H18.3374V19.0047C19.4057 18.6427 20.3313 17.9731 20.9874 17.0876C21.6436 16.2021 21.9982 15.1439 22.0029 14.0578C22.0029 13.5919 21.8098 13.1451 21.4661 12.8156C21.1224 12.4862 20.6563 12.3011 20.1702 12.3011C19.6841 12.3011 19.2179 12.4862 18.8742 12.8156C18.5305 13.1451 18.3374 13.5919 18.3374 14.0578C18.3374 14.5237 18.1443 14.9706 17.8006 15.3C17.4569 15.6295 16.9907 15.8145 16.5046 15.8145C16.0186 15.8145 15.5524 15.6295 15.2087 15.3C14.865 14.9706 14.6719 14.5237 14.6719 14.0578C14.6719 13.5919 14.4788 13.1451 14.1351 12.8156C13.7913 12.4862 13.3252 12.3011 12.8391 12.3011C12.353 12.3011 11.8868 12.4862 11.5431 12.8156C11.1994 13.1451 11.0063 13.5919 11.0063 14.0578C11.011 15.1439 11.3657 16.2021 12.0218 17.0876C12.678 17.9731 13.6035 18.6427 14.6719 19.0047V31.625H12.2489C11.4223 29.0061 9.87206 26.6503 7.76233 24.8072C5.97163 23.2078 4.6956 21.1509 4.08482 18.8791C3.47404 16.6073 3.554 14.2154 4.31527 11.9858C5.07654 9.7561 6.48734 7.78169 8.38119 6.29553C10.275 4.80938 12.5729 3.8735 15.0036 3.59833C15.5075 3.54442 16.0141 3.51744 16.5211 3.51753C19.669 3.50856 22.708 4.62184 25.0472 6.64097C26.4029 7.79969 27.4861 9.22139 28.2251 10.8118C28.9641 12.4022 29.3419 14.125 29.3336 15.866C29.3253 17.6071 28.931 19.3265 28.1768 20.9103C27.4227 22.4942 26.3259 23.9063 24.9592 25.0531H24.9537Z" fill="#DC6339"/>
</svg>
