<svg width="64" height="64" viewBox="0 0 64 64" fill="none" xmlns="http://www.w3.org/2000/svg">
<rect width="64" height="63.2967" rx="14" fill="#DC6339"/>
<path d="M26 24.0542H47.75C48.3467 24.0542 48.919 23.815 49.341 23.3893C49.7629 22.9635 50 22.3861 50 21.7839C50 21.1818 49.7629 20.6044 49.341 20.1786C48.919 19.7529 48.3467 19.5137 47.75 19.5137H26C25.4033 19.5137 24.831 19.7529 24.409 20.1786C23.9871 20.6044 23.75 21.1818 23.75 21.7839C23.75 22.3861 23.9871 22.9635 24.409 23.3893C24.831 23.815 25.4033 24.0542 26 24.0542Z" fill="#FFF5F5"/>
<path d="M47.75 30.1084H26C25.4033 30.1084 24.831 30.3476 24.409 30.7733C23.9871 31.1991 23.75 31.7766 23.75 32.3787C23.75 32.9808 23.9871 33.5582 24.409 33.984C24.831 34.4098 25.4033 34.6489 26 34.6489H47.75C48.3467 34.6489 48.919 34.4098 49.341 33.984C49.7629 33.5582 50 32.9808 50 32.3787C50 31.7766 49.7629 31.1991 49.341 30.7733C48.919 30.3476 48.3467 30.1084 47.75 30.1084Z" fill="#FFF5F5"/>
<path d="M47.75 40.7031H26C25.4033 40.7031 24.831 40.9423 24.409 41.3681C23.9871 41.7938 23.75 42.3713 23.75 42.9734C23.75 43.5755 23.9871 44.153 24.409 44.5787C24.831 45.0045 25.4033 45.2437 26 45.2437H47.75C48.3467 45.2437 48.919 45.0045 49.341 44.5787C49.7629 44.153 50 43.5755 50 42.9734C50 42.3713 49.7629 41.7938 49.341 41.3681C48.919 40.9423 48.3467 40.7031 47.75 40.7031Z" fill="#FFF5F5"/>
<path d="M17.75 25.5676C19.8211 25.5676 21.5 23.8735 21.5 21.7838C21.5 19.6941 19.8211 18 17.75 18C15.6789 18 14 19.6941 14 21.7838C14 23.8735 15.6789 25.5676 17.75 25.5676Z" fill="#FFF5F5"/>
<path d="M17.75 35.4055C19.8211 35.4055 21.5 33.7114 21.5 31.6217C21.5 29.5319 19.8211 27.8379 17.75 27.8379C15.6789 27.8379 14 29.5319 14 31.6217C14 33.7114 15.6789 35.4055 17.75 35.4055Z" fill="#FFF5F5"/>
<path d="M17.75 46.0002C19.8211 46.0002 21.5 44.3061 21.5 42.2164C21.5 40.1267 19.8211 38.4326 17.75 38.4326C15.6789 38.4326 14 40.1267 14 42.2164C14 44.3061 15.6789 46.0002 17.75 46.0002Z" fill="#FFF5F5"/>
</svg>
