<svg width="36" height="36" viewBox="0 0 36 36" fill="none" xmlns="http://www.w3.org/2000/svg">
<path d="M31.5 0H9.7485C6.855 0 4.5 2.3565 4.5 5.25V10.5C4.5 11.328 5.172 12 6 12C6.828 12 7.5 11.328 7.5 10.5V5.25C7.5 4.0095 8.5095 3 9.75 3C10.9905 3 12 4.0095 12 5.25C12 7.317 13.683 9 15.75 9H28.5V28.5C28.5 30.981 26.481 33 24 33H21C20.172 33 19.5 33.672 19.5 34.5C19.5 35.328 20.172 36 21 36H24C28.1355 36 31.5 32.6355 31.5 28.5V9H32.25C34.317 9 36 7.317 36 5.25V4.5C36 2.019 33.981 0 31.5 0ZM33 5.25C33 5.664 32.664 6 32.25 6H15.75C15.336 6 15 5.664 15 5.25C15 4.4445 14.817 3.6825 14.493 3H31.5C32.3265 3 33 3.6735 33 4.5V5.25ZM12.75 15H5.25C2.355 15 0 17.355 0 20.25V30.75C0 33.645 2.355 36 5.25 36H12.75C15.645 36 18 33.645 18 30.75V20.25C18 17.355 15.645 15 12.75 15ZM15 30.75C15 31.9905 13.9905 33 12.75 33H5.25C4.0095 33 3 31.9905 3 30.75V20.25C3 19.0095 4.0095 18 5.25 18H12.75C13.9905 18 15 19.0095 15 20.25V30.75ZM13.5 21C13.5 21.828 12.828 22.5 12 22.5H6C5.172 22.5 4.5 21.828 4.5 21C4.5 20.172 5.172 19.5 6 19.5H12C12.828 19.5 13.5 20.172 13.5 21ZM13.5 25.5C13.5 26.328 12.828 27 12 27H11.25C10.422 27 9.75 26.328 9.75 25.5C9.75 24.672 10.422 24 11.25 24H12C12.828 24 13.5 24.672 13.5 25.5ZM8.25 25.5C8.25 26.328 7.578 27 6.75 27H6C5.172 27 4.5 26.328 4.5 25.5C4.5 24.672 5.172 24 6 24H6.75C7.578 24 8.25 24.672 8.25 25.5ZM13.5 30C13.5 30.828 12.828 31.5 12 31.5H11.25C10.422 31.5 9.75 30.828 9.75 30C9.75 29.172 10.422 28.5 11.25 28.5H12C12.828 28.5 13.5 29.172 13.5 30ZM8.25 30C8.25 30.828 7.578 31.5 6.75 31.5H6C5.172 31.5 4.5 30.828 4.5 30C4.5 29.172 5.172 28.5 6 28.5H6.75C7.578 28.5 8.25 29.172 8.25 30Z" fill="white"/>
</svg>
