<svg width="64" height="64" viewBox="0 0 64 64" fill="none" xmlns="http://www.w3.org/2000/svg">
<rect width="64" height="63.2967" rx="14" fill="#DC6339"/>
<g clip-path="url(#clip0_222_16962)">
<path d="M44.7452 36.8037C44.7452 39.3171 42.6998 41.3625 40.1864 41.3625C40.1864 42.2013 39.5071 42.8821 38.6668 42.8821C37.8264 42.8821 37.1471 42.2013 37.1471 41.3625H36.7399C35.1185 41.3625 33.6049 40.4902 32.792 39.0846C32.371 38.3582 32.6202 37.4297 33.3451 37.0088C34.073 36.5879 35.0015 36.8371 35.4209 37.5635C35.6929 38.0315 36.1974 38.3233 36.7384 38.3233H40.1848C41.0237 38.3233 41.7045 37.641 41.7045 36.8037C41.7045 36.2292 41.2926 35.743 40.7258 35.6488L36.1047 34.8783C34.0654 34.5394 32.5868 32.7919 32.5868 30.7252C32.5868 28.2118 34.6322 26.1664 37.1456 26.1664C37.1456 25.3276 37.8249 24.6468 38.6652 24.6468C39.5056 24.6468 40.1848 25.3276 40.1848 26.1664H40.5921C42.2135 26.1664 43.727 27.0387 44.54 28.4443C44.961 29.1707 44.7118 30.0991 43.9869 30.5201C43.256 30.9395 42.3275 30.6903 41.9111 29.9654C41.6391 29.4974 41.1346 29.2056 40.5936 29.2056H37.1471C36.3083 29.2056 35.6275 29.8864 35.6275 30.7252C35.6275 31.2996 36.0394 31.7859 36.6062 31.8801L41.2273 32.6506C43.2666 32.9894 44.7452 34.737 44.7452 36.8037ZM50.8236 26.1664V41.3625C50.8236 45.552 47.4151 48.9605 43.2256 48.9605H21.9511C17.7615 48.9605 14.353 45.552 14.353 41.3625V26.1664C14.353 21.9768 17.7615 18.5684 21.9511 18.5684H43.2256C47.4151 18.5684 50.8236 21.9768 50.8236 26.1664ZM47.7844 26.1664C47.7844 23.653 45.739 21.6076 43.2256 21.6076H21.9511C19.4376 21.6076 17.3922 23.653 17.3922 26.1664V41.3625C17.3922 43.8759 19.4376 45.9213 21.9511 45.9213H43.2256C45.739 45.9213 47.7844 43.8759 47.7844 41.3625V26.1664ZM28.0295 26.1664H21.9511C21.1107 26.1664 20.4315 26.8472 20.4315 27.686C20.4315 28.5248 21.1107 29.2056 21.9511 29.2056H28.0295C28.8698 29.2056 29.5491 28.5248 29.5491 27.686C29.5491 26.8472 28.8698 26.1664 28.0295 26.1664ZM28.0295 32.2448H21.9511C21.1107 32.2448 20.4315 32.9256 20.4315 33.7644C20.4315 34.6033 21.1107 35.284 21.9511 35.284H28.0295C28.8698 35.284 29.5491 34.6033 29.5491 33.7644C29.5491 32.9256 28.8698 32.2448 28.0295 32.2448ZM28.0295 38.3233H21.9511C21.1107 38.3233 20.4315 39.004 20.4315 39.8429C20.4315 40.6817 21.1107 41.3625 21.9511 41.3625H28.0295C28.8698 41.3625 29.5491 40.6817 29.5491 39.8429C29.5491 39.004 28.8698 38.3233 28.0295 38.3233Z" fill="#FFF5F5"/>
</g>
<defs>
<clipPath id="clip0_222_16962">
<rect width="36.4706" height="36.4706" fill="white" transform="translate(14.353 15.5293)"/>
</clipPath>
</defs>
</svg>
