<svg width="38" height="38" viewBox="0 0 38 38" fill="none" xmlns="http://www.w3.org/2000/svg">
<path d="M30.0833 0H7.91667C3.55142 0 0 3.55142 0 7.91667V23.75C0 28.1153 3.55142 31.6667 7.91667 31.6667C7.91667 35.1595 10.7572 38 14.25 38H23.75C27.2428 38 30.0833 35.1595 30.0833 31.6667C34.4486 31.6667 38 28.1153 38 23.75V7.91667C38 3.55142 34.4486 0 30.0833 0ZM26.9167 31.6667C26.9167 33.4131 25.4964 34.8333 23.75 34.8333H14.25C12.5036 34.8333 11.0833 33.4131 11.0833 31.6667V25.3333H15.1208C15.0686 25.5898 15.0417 25.8542 15.0417 26.125C15.0417 28.3116 16.8134 30.0833 19 30.0833C21.1866 30.0833 22.9583 28.3116 22.9583 26.125C22.9583 25.8542 22.9298 25.5898 22.8792 25.3333H26.9167V31.6667ZM34.8333 23.75C34.8333 26.3688 32.7022 28.5 30.0833 28.5V23.75C30.0833 22.8744 29.374 22.1667 28.5 22.1667H9.5C8.626 22.1667 7.91667 22.8744 7.91667 23.75V28.5C5.29783 28.5 3.16667 26.3688 3.16667 23.75V7.91667C3.16667 5.29783 5.29783 3.16667 7.91667 3.16667H30.0833C32.7022 3.16667 34.8333 5.29783 34.8333 7.91667V23.75ZM15.8333 6.33333H9.5C7.75358 6.33333 6.33333 7.75358 6.33333 9.5V15.8333C6.33333 17.5798 7.75358 19 9.5 19H15.8333C17.5798 19 19 17.5798 19 15.8333V9.5C19 7.75358 17.5798 6.33333 15.8333 6.33333ZM9.5 15.8333V9.5H15.8333V15.8333H9.5ZM25.3333 9.5C25.3333 10.811 24.2693 11.875 22.9583 11.875C21.6473 11.875 20.5833 10.811 20.5833 9.5C20.5833 8.189 21.6473 7.125 22.9583 7.125C24.2693 7.125 25.3333 8.189 25.3333 9.5ZM31.6667 9.5C31.6667 10.811 30.6027 11.875 29.2917 11.875C27.9807 11.875 26.9167 10.811 26.9167 9.5C26.9167 8.189 27.9807 7.125 29.2917 7.125C30.6027 7.125 31.6667 8.189 31.6667 9.5ZM25.3333 15.8333C25.3333 17.1443 24.2693 18.2083 22.9583 18.2083C21.6473 18.2083 20.5833 17.1443 20.5833 15.8333C20.5833 14.5223 21.6473 13.4583 22.9583 13.4583C24.2693 13.4583 25.3333 14.5223 25.3333 15.8333ZM31.6667 15.8333C31.6667 17.1443 30.6027 18.2083 29.2917 18.2083C27.9807 18.2083 26.9167 17.1443 26.9167 15.8333C26.9167 14.5223 27.9807 13.4583 29.2917 13.4583C30.6027 13.4583 31.6667 14.5223 31.6667 15.8333Z" fill="white"/>
</svg>
