<svg width="64" height="64" viewBox="0 0 64 64" fill="none" xmlns="http://www.w3.org/2000/svg">
<rect width="64" height="63.2967" rx="14" fill="#DC6339"/>
<path d="M29.8753 47.4306C29.8753 47.1202 29.9706 46.8167 30.1491 46.5586C30.3276 46.3006 30.5814 46.0994 30.8782 45.9806C31.175 45.8618 31.5017 45.8307 31.8168 45.8913C32.132 45.9519 32.4214 46.1013 32.6486 46.3208C32.8758 46.5403 33.0305 46.82 33.0932 47.1244C33.1559 47.4288 33.1237 47.7444 33.0008 48.0312C32.8778 48.3179 32.6696 48.5631 32.4024 48.7355C32.1353 48.908 31.8212 49 31.4999 49C31.069 49 30.6558 48.8347 30.3512 48.5403C30.0465 48.246 29.8753 47.8468 29.8753 47.4306ZM37.2426 44.1002C37.5472 43.8059 37.7183 43.4068 37.7183 42.9907C37.7183 42.5745 37.5472 42.1754 37.2426 41.8811C35.7194 40.41 33.6537 39.5835 31.4999 39.5835C29.346 39.5835 27.2804 40.41 25.7571 41.8811C25.4612 42.1771 25.2975 42.5735 25.3012 42.985C25.3049 43.3965 25.4757 43.7901 25.7769 44.0811C26.0781 44.3721 26.4856 44.5372 26.9115 44.5407C27.3375 44.5443 27.7478 44.3861 28.0542 44.1002C28.983 43.245 30.2168 42.7679 31.4999 42.7679C32.783 42.7679 34.0168 43.245 34.9455 44.1002C35.2502 44.3945 35.6633 44.5598 36.0941 44.5598C36.5249 44.5598 36.938 44.3945 37.2426 44.1002ZM41.8385 39.6619C42.143 39.3676 42.3141 38.9685 42.3141 38.5523C42.3141 38.1362 42.143 37.737 41.8385 37.4427C39.0944 34.7976 35.3763 33.3121 31.4999 33.3121C27.6235 33.3121 23.9054 34.7976 21.1613 37.4427C20.8654 37.7387 20.7016 38.1352 20.7053 38.5467C20.709 38.9582 20.8799 39.3518 21.1811 39.6428C21.4823 39.9338 21.8897 40.0988 22.3157 40.1024C22.7416 40.106 23.152 39.9478 23.4584 39.6619C25.5934 37.6056 28.4851 36.4509 31.4999 36.4509C34.5146 36.4509 37.4064 37.6056 39.5414 39.6619C39.846 39.9561 40.2592 40.1214 40.6899 40.1214C41.1207 40.1214 41.5338 39.9561 41.8385 39.6619ZM21.7315 46.1138C21.7659 45.9104 21.7584 45.7024 21.7096 45.5018C21.6607 45.3012 21.5715 45.1118 21.4468 44.9445C21.3222 44.7772 21.1647 44.6352 20.9833 44.5267C20.802 44.4182 20.6002 44.3453 20.3896 44.3121C19.1621 44.1246 18.0214 43.5843 17.1162 42.7615C16.211 41.9388 15.5832 40.8719 15.3146 39.6996C15.1398 38.5786 15.3311 37.4329 15.8619 36.4219C16.3927 35.4109 17.2366 34.585 18.2761 34.059C19.0244 33.6624 19.5811 32.9971 19.8258 32.2071C20.0705 31.4172 19.9836 30.5659 19.5839 29.8373C18.9522 28.6751 18.579 27.3981 18.4883 26.0883C18.3976 24.7786 18.5913 23.465 19.0571 22.2318C19.5228 20.9986 20.2504 19.8732 21.1929 18.9277C22.1355 17.9821 23.2722 17.2374 24.5302 16.7414C25.7883 16.2453 27.1398 16.0088 28.498 16.0471C29.8562 16.0853 31.1911 16.3975 32.4171 16.9636C33.643 17.5297 34.7329 18.3371 35.6168 19.3341C36.5007 20.3311 37.1591 21.4956 37.5497 22.7529C37.7901 23.5105 38.2184 24.1998 38.7974 24.7611C39.3764 25.3223 40.0885 25.7385 40.8719 25.9734C42.9941 26.5975 44.8309 27.9054 46.076 29.6792C47.3211 31.453 47.8994 33.5854 47.7145 35.7211C47.5692 37.3249 46.9776 38.8609 46.0024 40.1663C45.0272 41.4718 43.7046 42.4981 42.1748 43.1366C41.7959 43.3211 41.5068 43.6415 41.3693 44.0292C41.2318 44.417 41.2567 44.8413 41.4387 45.2115C41.6208 45.5817 41.9455 45.8684 42.3435 46.0103C42.7416 46.1523 43.1812 46.1382 43.5686 45.971C45.6201 45.1024 47.39 43.7136 48.6905 41.9518C49.9911 40.1901 50.7737 38.1211 50.9554 35.9643C51.2008 33.1169 50.4283 30.2743 48.7669 27.9104C47.1055 25.5465 44.6555 23.8043 41.8255 22.9742C41.5468 22.8905 41.2939 22.7416 41.0892 22.5406C40.8846 22.3396 40.7346 22.0928 40.6526 21.8222C39.7925 19.1543 38.0359 16.8398 35.6607 15.2452C33.2855 13.6506 30.4276 12.867 27.5394 13.0185C24.6512 13.17 21.8979 14.2479 19.7154 16.0816C17.5329 17.9153 16.046 20.3999 15.49 23.1421C14.9221 25.9167 15.3688 28.7957 16.7539 31.2874C15.1213 32.1122 13.7954 33.4081 12.9609 34.9949C12.1264 36.5817 11.8247 38.3804 12.098 40.1406C12.4692 41.9738 13.4127 43.6533 14.8015 44.953C16.1904 46.2526 17.958 47.1102 19.8665 47.4102C20.0771 47.4434 20.2924 47.4362 20.5001 47.389C20.7077 47.3418 20.9038 47.2555 21.077 47.1352C21.2501 47.0148 21.3971 46.8626 21.5094 46.6874C21.6217 46.5121 21.6972 46.3172 21.7315 46.1138Z" fill="#FFF5F5"/>
</svg>
