<svg width="64" height="64" viewBox="0 0 64 64" fill="none" xmlns="http://www.w3.org/2000/svg">
<rect width="64" height="63.2967" rx="14" fill="#DC6339"/>
<path d="M47.3334 43.705V48.6663C47.3334 49.4023 46.7374 49.9996 46 49.9996C45.2627 49.9996 44.6667 49.4023 44.6667 48.6663V43.705C44.6667 41.805 43.3134 40.1556 41.4507 39.7823L32.4054 37.973C31.7827 37.849 31.3334 37.301 31.3334 36.6663V27.4756C31.3334 26.7583 30.8507 26.1183 30.2347 26.0196C29.8267 25.953 29.44 26.0596 29.1374 26.317C28.8387 26.5703 28.6667 26.941 28.6667 27.333V45.517C28.6667 46.029 28.3734 46.4956 27.912 46.7183C27.4534 46.941 26.904 46.881 26.5027 46.5596L22.9867 43.7596C22.3694 43.189 21.5267 43.2183 21.0267 43.7543C20.5254 44.2916 20.5534 45.1396 21.0894 45.6436L22.9254 47.4143C23.4547 47.925 23.4707 48.769 22.9587 49.2996C22.448 49.829 21.604 49.8436 21.0734 49.333L19.2507 47.5756C17.6574 46.081 17.572 43.545 19.0774 41.9343C20.5827 40.3263 23.116 40.2396 24.7267 41.7423L26 42.7543V27.333C26 26.1583 26.5134 25.0476 27.4094 24.285C28.304 23.5223 29.4907 23.1943 30.6614 23.3863C32.564 23.6943 33.9987 25.453 33.9987 27.4743V35.5716L41.972 37.1663C45.0774 37.7876 47.332 40.537 47.332 43.7036L47.3334 43.705ZM22.7254 31.9996C22.912 31.9996 23.1 31.961 23.2814 31.8783C23.9507 31.5716 24.244 30.7796 23.9374 30.1103C23.536 29.237 23.3334 28.3023 23.3334 27.333C23.3334 23.657 26.324 20.6663 30 20.6663C33.676 20.6663 36.6667 23.657 36.6667 27.333C36.6667 28.305 36.464 29.2383 36.064 30.1103C35.756 30.7796 36.0494 31.5716 36.7174 31.8783C37.3907 32.1863 38.18 31.893 38.4854 31.2236C39.048 30.001 39.3334 28.6916 39.3334 27.3343C39.3334 22.1876 35.1467 18.001 30 18.001C24.8534 18.001 20.6667 22.1863 20.6667 27.333C20.6667 28.689 20.952 29.997 21.5134 31.2223C21.7374 31.7116 22.2214 31.9996 22.7267 31.9996H22.7254Z" fill="#FFF5F5"/>
</svg>
