<svg width="45" height="45" viewBox="0 0 45 45" fill="none" xmlns="http://www.w3.org/2000/svg">
<g clip-path="url(#clip0_222_16934)">
<path d="M45 35.625C45 38.7262 42.4762 41.25 39.375 41.25V43.125C39.375 44.1619 38.535 45 37.5 45C36.465 45 35.625 44.1619 35.625 43.125V41.25H35.1225C33.1219 41.25 31.2544 40.1737 30.2513 38.4394C29.7338 37.5412 30.0394 36.3956 30.9356 35.8781C31.83 35.3569 32.9794 35.6663 33.4969 36.5606C33.8325 37.1419 34.455 37.5 35.1225 37.5H39.375C40.4081 37.5 41.25 36.66 41.25 35.625C41.25 34.9144 40.7419 34.3162 40.0425 34.1981L34.3406 33.2494C31.8244 32.8294 30 30.6731 30 28.125C30 25.0238 32.5238 22.5 35.625 22.5V20.625C35.625 19.5881 36.465 18.75 37.5 18.75C38.535 18.75 39.375 19.5881 39.375 20.625V22.5H39.8775C41.8781 22.5 43.7456 23.5763 44.7487 25.3106C45.2662 26.2087 44.9606 27.3544 44.0644 27.8719C43.17 28.3931 42.0225 28.0856 41.5031 27.1894C41.1675 26.6081 40.545 26.25 39.8775 26.25H35.625C34.5919 26.25 33.75 27.09 33.75 28.125C33.75 28.8356 34.2581 29.4338 34.9575 29.5519L40.6594 30.5006C43.1756 30.9206 45 33.0769 45 35.625ZM9.375 7.5H11.25C12.285 7.5 13.125 6.66187 13.125 5.625C13.125 4.58813 13.9669 3.75 15 3.75H18.75C19.7831 3.75 20.625 4.59 20.625 5.625C20.625 6.66 21.465 7.5 22.5 7.5H24.375C27.4762 7.5 30 10.0238 30 13.125V16.875C30 17.9119 30.84 18.75 31.875 18.75C32.91 18.75 33.75 17.9119 33.75 16.875V13.125C33.75 7.95563 29.5444 3.75 24.375 3.75H24.0544C23.28 1.5675 21.195 0 18.75 0H15C12.555 0 10.47 1.5675 9.69563 3.75H9.375C4.20563 3.75 0 7.95563 0 13.125V35.625C0 40.7944 4.20563 45 9.375 45H24.375C25.1644 45 25.9519 44.9006 26.7169 44.7056C27.72 44.4469 28.3237 43.425 28.0669 42.4237C27.81 41.4206 26.7919 40.8131 25.785 41.0719C25.3256 41.1881 24.8513 41.25 24.3769 41.25H9.375C6.27375 41.25 3.75 38.7262 3.75 35.625V13.125C3.75 10.0238 6.27375 7.5 9.375 7.5Z" fill="#DC6339"/>
<path d="M18.2382 12.7373C18.9713 13.4705 18.9713 14.6555 18.2382 15.3886L14.1526 19.4742C13.3857 20.2411 12.3788 20.6236 11.3719 20.6236C10.3651 20.6236 9.35818 20.2411 8.59131 19.4742L6.17631 17.0573C5.44318 16.3242 5.44318 15.1373 6.17631 14.4061C6.90943 13.673 8.09443 13.673 8.82756 14.4061L11.2426 16.823C11.3044 16.8848 11.4394 16.8848 11.5032 16.823L15.5888 12.7373C16.3219 12.0042 17.5051 12.0042 18.2382 12.7373Z" fill="#DC6339"/>
<path d="M18.2382 23.9873C18.9713 24.7205 18.9713 25.9055 18.2382 26.6386L14.1526 30.7242C13.3857 31.4911 12.3788 31.8736 11.3719 31.8736C10.3651 31.8736 9.35818 31.4911 8.59131 30.7242L6.17631 28.3073C5.44318 27.5742 5.44318 26.3873 6.17631 25.6561C6.90943 24.923 8.09443 24.923 8.82756 25.6561L11.2426 28.073C11.3044 28.1348 11.4394 28.1348 11.5032 28.073L15.5888 23.9873C16.3219 23.2542 17.5051 23.2542 18.2382 23.9873Z" fill="#DC6339"/>
</g>
<defs>
<clipPath id="clip0_222_16934">
<rect width="45" height="45" fill="white"/>
</clipPath>
</defs>
</svg>
