<svg width="42" height="42" viewBox="0 0 42 42" fill="none" xmlns="http://www.w3.org/2000/svg">
<g clip-path="url(#clip0_222_16921)">
<path d="M14 39.5517C14 40.5006 13.2177 41.2677 12.25 41.2677H8.75C3.92525 41.2677 0 37.4187 0 32.6876V8.66315C0 3.93206 3.92525 0.0830078 8.75 0.0830078H19.25C20.2178 0.0830078 21 0.850073 21 1.79904C21 2.748 20.2178 3.51507 19.25 3.51507H8.75C5.8555 3.51507 3.5 5.82484 3.5 8.66315V32.6876C3.5 35.5259 5.8555 37.8356 8.75 37.8356H12.25C13.2177 37.8356 14 38.6027 14 39.5517ZM21 12.0952V8.66315C21 7.71419 20.2178 6.94712 19.25 6.94712H8.75C7.78225 6.94712 7 7.71419 7 8.66315V12.0952C7 13.0442 7.78225 13.8112 8.75 13.8112H19.25C20.2178 13.8112 21 13.0442 21 12.0952ZM10.5 17.2433H8.75C7.78225 17.2433 7 18.0104 7 18.9593C7 19.9083 7.78225 20.6754 8.75 20.6754H10.5C11.4677 20.6754 12.25 19.9083 12.25 18.9593C12.25 18.0104 11.4677 17.2433 10.5 17.2433ZM10.5 24.1074H8.75C7.78225 24.1074 7 24.8745 7 25.8234C7 26.7724 7.78225 27.5395 8.75 27.5395H10.5C11.4677 27.5395 12.25 26.7724 12.25 25.8234C12.25 24.8745 11.4677 24.1074 10.5 24.1074ZM15.75 17.2433C14.7823 17.2433 14 18.0104 14 18.9593C14 19.9083 14.7823 20.6754 15.75 20.6754H17.5C18.4678 20.6754 19.25 19.9083 19.25 18.9593C19.25 18.0104 18.4678 17.2433 17.5 17.2433H15.75ZM19.25 25.8234C19.25 24.8745 18.4678 24.1074 17.5 24.1074H15.75C14.7823 24.1074 14 24.8745 14 25.8234C14 26.7724 14.7823 27.5395 15.75 27.5395H17.5C18.4678 27.5395 19.25 26.7724 19.25 25.8234ZM10.5 30.9715H8.75C7.78225 30.9715 7 31.7386 7 32.6876C7 33.6365 7.78225 34.4036 8.75 34.4036H10.5C11.4677 34.4036 12.25 33.6365 12.25 32.6876C12.25 31.7386 11.4677 30.9715 10.5 30.9715ZM33.6613 22.3862C32.7267 21.3618 31.4405 20.7577 30.044 20.6822C28.6475 20.6084 27.3018 21.0718 26.1818 22.0602L20.5362 27.6544C18.578 29.5953 17.5 32.1659 17.5 34.8961V39.5534C17.5 40.5024 18.2822 41.2694 19.25 41.2694C20.2178 41.2694 21 40.5024 21 39.5534V34.8961C21 33.0754 21.7192 31.3611 23.0247 30.0689L28.595 24.545C28.9398 24.2395 29.393 24.0851 29.8533 24.1108C30.3188 24.1366 30.744 24.3374 31.0572 24.6789C31.6313 25.3069 31.6487 26.2696 31.1552 26.8513L26.7225 31.5207C26.0627 32.2139 26.103 33.3002 26.81 33.9454C27.5205 34.5941 28.6265 34.5529 29.2827 33.8596L33.775 29.1234C35.4427 27.1757 35.3955 24.2807 33.6647 22.388L33.6613 22.3862ZM39.9753 27.3764C39.963 27.3799 39.9508 27.3816 39.9385 27.385C39.116 27.5635 38.5 28.2293 38.5 29.0564V29.8201C38.5 32.3049 37.583 34.7073 35.9188 36.5812L34.3088 38.3951C33.3112 39.5174 34.125 41.2694 35.644 41.2694C36.1585 41.2694 36.6485 41.0498 36.9845 40.6671L38.6068 38.8189C40.796 36.3273 42 33.1475 42 29.8595V29.0513C42 27.9977 41.0218 27.1448 39.9753 27.3782V27.3764ZM36.75 0.0830078H29.75C26.8555 0.0830078 24.5 2.39278 24.5 5.23109V16.3853C24.5 17.3342 25.2822 18.1013 26.25 18.1013C27.2178 18.1013 28 17.3342 28 16.3853V5.23109C28 4.28385 28.784 3.51507 29.75 3.51507H36.75C37.716 3.51507 38.5 4.28385 38.5 5.23109V18.9593C38.5 19.5702 38.1658 20.14 37.6233 20.4471C36.7868 20.9207 36.4998 21.971 36.9863 22.7912C37.31 23.3403 37.898 23.6475 38.5017 23.6475C38.7992 23.6475 39.1003 23.5737 39.3767 23.4159C40.9955 22.4995 42 20.7903 42 18.9576V5.23109C42 2.39278 39.6445 0.0830078 36.75 0.0830078Z" fill="#DC6339"/>
</g>
<defs>
<clipPath id="clip0_222_16921">
<rect width="42" height="41.1847" fill="white" transform="translate(0 0.0830078)"/>
</clipPath>
</defs>
</svg>
