<svg width="36" height="30" viewBox="0 0 36 30" fill="none" xmlns="http://www.w3.org/2000/svg">
<path d="M35.6998 10.0093L27.2992 0.409494C27.1869 0.28122 27.0485 0.178352 26.8933 0.107742C26.7381 0.0371327 26.5696 0.000403109 26.3991 0H9.59796C9.42745 0.000403109 9.25899 0.0371327 9.10379 0.107742C8.94859 0.178352 8.81022 0.28122 8.6979 0.409494L0.297318 10.0093C0.10134 10.2331 -0.00456118 10.5216 0.000150738 10.819C0.00486266 11.1164 0.119852 11.4014 0.32282 11.6188L17.124 29.6185C17.2363 29.7389 17.3721 29.8349 17.5231 29.9005C17.6741 29.9661 17.8369 30 18.0015 30C18.1662 30 18.329 29.9661 18.48 29.9005C18.631 29.8349 18.7668 29.7389 18.8791 29.6185L35.6803 11.6188C35.8824 11.4007 35.9963 11.1152 35.9999 10.8178C36.0035 10.5205 35.8965 10.2323 35.6998 10.0093ZM32.155 9.59985H25.7991L20.3987 2.39996H25.8546L32.155 9.59985ZM9.98499 11.9998L14.5048 23.2991L3.95907 11.9998H9.98499ZM26.0121 11.9998H32.038L21.4923 23.2991L26.0121 11.9998ZM10.1425 2.39996H15.5984L10.198 9.59985H3.84206L10.1425 2.39996Z" fill="white"/>
</svg>
