<svg width="31" height="30" viewBox="0 0 31 30" fill="none" xmlns="http://www.w3.org/2000/svg">
<path d="M30.2186 13.7298L23.9873 19.1237L25.8858 27.1903C25.9905 27.6282 25.9636 28.0874 25.8083 28.5099C25.653 28.9324 25.3763 29.2993 25.0133 29.5642C24.6503 29.8291 24.2171 29.9801 23.7686 29.9982C23.32 30.0162 22.8762 29.9005 22.4932 29.6657L15.5003 25.3483L8.50322 29.6657C8.12024 29.8992 7.67695 30.0138 7.22918 29.9951C6.7814 29.9763 6.34916 29.8251 5.98688 29.5605C5.6246 29.2958 5.34848 28.9295 5.1933 28.5078C5.03811 28.086 5.01079 27.6276 5.11477 27.1903L7.02017 19.1237L0.788866 13.7298C0.450019 13.436 0.204958 13.0486 0.084289 12.6159C-0.0363802 12.1833 -0.0273098 11.7245 0.110367 11.297C0.248044 10.8695 0.508226 10.4921 0.858419 10.212C1.20861 9.93196 1.6333 9.76159 2.07944 9.7222L10.2494 9.06098L13.401 1.40976C13.5716 0.992768 13.862 0.636087 14.2351 0.385061C14.6083 0.134034 15.0475 0 15.4968 0C15.9461 0 16.3853 0.134034 16.7585 0.385061C17.1317 0.636087 17.422 0.992768 17.5926 1.40976L20.7429 9.06098L28.9128 9.7222C29.3598 9.76013 29.7858 9.92954 30.1372 10.2092C30.4887 10.4889 30.7501 10.8664 30.8886 11.2945C31.0271 11.7225 31.0367 12.1821 30.916 12.6155C30.7954 13.049 30.5499 13.4371 30.2103 13.7312L30.2186 13.7298Z" fill="white"/>
</svg>
