<svg width="48" height="48" viewBox="0 0 48 48" fill="none" xmlns="http://www.w3.org/2000/svg">
<rect width="48" height="48" rx="9.6" fill="#FFA788" fill-opacity="0.4"/>
<path d="M24 14.25C22.0716 14.25 20.1866 14.8218 18.5832 15.8932C16.9798 16.9645 15.7301 18.4873 14.9922 20.2688C14.2542 22.0504 14.0611 24.0108 14.4373 25.9021C14.8136 27.7934 15.7422 29.5307 17.1057 30.8943C18.4693 32.2579 20.2066 33.1865 22.0979 33.5627C23.9892 33.9389 25.9496 33.7458 27.7312 33.0078C29.5127 32.2699 31.0355 31.0202 32.1068 29.4168C33.1782 27.8134 33.75 25.9284 33.75 24C33.7473 21.415 32.7192 18.9366 30.8913 17.1087C29.0634 15.2808 26.585 14.2527 24 14.25ZM24 21.75C24.1989 21.75 24.3897 21.829 24.5303 21.9697C24.671 22.1103 24.75 22.3011 24.75 22.5C24.75 22.6989 24.671 22.8897 24.5303 23.0303C24.3897 23.171 24.1989 23.25 24 23.25H20.25V24.75H22.5C22.6989 24.75 22.8897 24.829 23.0303 24.9697C23.171 25.1103 23.25 25.3011 23.25 25.5C23.25 25.6989 23.171 25.8897 23.0303 26.0303C22.8897 26.171 22.6989 26.25 22.5 26.25H20.3259C20.4578 26.8965 20.7579 27.4968 21.196 27.9902C21.6341 28.4837 22.1946 28.8528 22.8209 29.0603C23.4473 29.2678 24.1173 29.3064 24.7633 29.1721C25.4093 29.0379 26.0085 28.7355 26.5003 28.2956C26.573 28.2261 26.659 28.172 26.753 28.1364C26.8471 28.1008 26.9474 28.0845 27.0479 28.0885C27.1484 28.0924 27.247 28.1165 27.338 28.1594C27.429 28.2023 27.5104 28.263 27.5775 28.3379C27.6445 28.4129 27.6958 28.5006 27.7283 28.5958C27.7607 28.691 27.7737 28.7917 27.7665 28.892C27.7592 28.9923 27.7319 29.0902 27.686 29.1797C27.6402 29.2692 27.5768 29.3486 27.4997 29.4131C26.7919 30.0459 25.9258 30.4749 24.9936 30.6545C24.0614 30.8341 23.0979 30.7576 22.2057 30.433C21.3135 30.1085 20.526 29.5481 19.9271 28.8115C19.3281 28.0749 18.9401 27.1896 18.8044 26.25H18C17.8011 26.25 17.6103 26.171 17.4697 26.0303C17.329 25.8897 17.25 25.6989 17.25 25.5C17.25 25.3011 17.329 25.1103 17.4697 24.9697C17.6103 24.829 17.8011 24.75 18 24.75H18.75V23.25H18C17.8011 23.25 17.6103 23.171 17.4697 23.0303C17.329 22.8897 17.25 22.6989 17.25 22.5C17.25 22.3011 17.329 22.1103 17.4697 21.9697C17.6103 21.829 17.8011 21.75 18 21.75H18.8044C18.9401 20.8104 19.3281 19.9251 19.9271 19.1885C20.526 18.4519 21.3135 17.8915 22.2057 17.567C23.0979 17.2424 24.0614 17.1659 24.9936 17.3455C25.9258 17.5251 26.7919 17.9541 27.4997 18.5869C27.5768 18.6514 27.6402 18.7308 27.686 18.8203C27.7319 18.9098 27.7592 19.0077 27.7665 19.108C27.7737 19.2083 27.7607 19.309 27.7283 19.4042C27.6958 19.4994 27.6445 19.5871 27.5775 19.6621C27.5104 19.737 27.429 19.7977 27.338 19.8406C27.247 19.8835 27.1484 19.9076 27.0479 19.9115C26.9474 19.9155 26.8471 19.8992 26.753 19.8636C26.659 19.828 26.573 19.7739 26.5003 19.7044C26.0085 19.2645 25.4093 18.9621 24.7633 18.8279C24.1173 18.6936 23.4473 18.7322 22.8209 18.9397C22.1946 19.1472 21.6341 19.5163 21.196 20.0098C20.7579 20.5032 20.4578 21.1035 20.3259 21.75H24Z" fill="#DC6339"/>
</svg>
