<svg width="48" height="48" viewBox="0 0 48 48" fill="none" xmlns="http://www.w3.org/2000/svg">
<rect width="48" height="48" rx="9.6" fill="#FFA788" fill-opacity="0.4"/>
<path d="M26.625 21V19.5H25.125C24.9261 19.5 24.7353 19.579 24.5947 19.7197C24.454 19.8603 24.375 20.0511 24.375 20.25V27.75C24.375 27.9489 24.454 28.1397 24.5947 28.2803C24.7353 28.421 24.9261 28.5 25.125 28.5H26.625V27C26.625 26.6022 26.783 26.2206 27.0643 25.9393C27.3456 25.658 27.7272 25.5 28.125 25.5H32.625C33.0228 25.5 33.4044 25.658 33.6857 25.9393C33.967 26.2206 34.125 26.6022 34.125 27V31.5C34.125 31.8978 33.967 32.2794 33.6857 32.5607C33.4044 32.842 33.0228 33 32.625 33H28.125C27.7272 33 27.3456 32.842 27.0643 32.5607C26.783 32.2794 26.625 31.8978 26.625 31.5V30H25.125C24.5283 30 23.956 29.7629 23.534 29.341C23.1121 28.919 22.875 28.3467 22.875 27.75V24.75H19.875V25.5C19.875 25.8978 19.717 26.2794 19.4357 26.5607C19.1544 26.842 18.7728 27 18.375 27H15.375C14.9772 27 14.5956 26.842 14.3143 26.5607C14.033 26.2794 13.875 25.8978 13.875 25.5V22.5C13.875 22.1022 14.033 21.7206 14.3143 21.4393C14.5956 21.158 14.9772 21 15.375 21H18.375C18.7728 21 19.1544 21.158 19.4357 21.4393C19.717 21.7206 19.875 22.1022 19.875 22.5V23.25H22.875V20.25C22.875 19.6533 23.1121 19.081 23.534 18.659C23.956 18.2371 24.5283 18 25.125 18H26.625V16.5C26.625 16.1022 26.783 15.7206 27.0643 15.4393C27.3456 15.158 27.7272 15 28.125 15H32.625C33.0228 15 33.4044 15.158 33.6857 15.4393C33.967 15.7206 34.125 16.1022 34.125 16.5V21C34.125 21.3978 33.967 21.7794 33.6857 22.0607C33.4044 22.342 33.0228 22.5 32.625 22.5H28.125C27.7272 22.5 27.3456 22.342 27.0643 22.0607C26.783 21.7794 26.625 21.3978 26.625 21Z" fill="#DC6339"/>
</svg>
