<svg width="48" height="48" viewBox="0 0 48 48" fill="none" xmlns="http://www.w3.org/2000/svg">
<rect width="48" height="48" rx="9.6" fill="#FFA788" fill-opacity="0.4"/>
<path d="M34.5 21.7471H31.8103L27.75 17.6868C27.6112 17.5469 27.446 17.436 27.264 17.3605C27.082 17.285 26.8867 17.2464 26.6897 17.2471H16.1512C15.9049 17.2475 15.6624 17.3087 15.4453 17.4251C15.2281 17.5415 15.043 17.7096 14.9062 17.9146L12.1256 22.0808C12.0439 22.2043 12.0002 22.349 12 22.4971V26.9971C12 27.3949 12.158 27.7764 12.4393 28.0577C12.7206 28.339 13.1022 28.4971 13.5 28.4971H15.0938C15.259 29.1424 15.6343 29.7144 16.1605 30.1228C16.6867 30.5313 17.3339 30.753 18 30.753C18.6661 30.753 19.3133 30.5313 19.8395 30.1228C20.3657 29.7144 20.741 29.1424 20.9062 28.4971H27.0938C27.259 29.1424 27.6343 29.7144 28.1605 30.1228C28.6867 30.5313 29.3339 30.753 30 30.753C30.6661 30.753 31.3133 30.5313 31.8395 30.1228C32.3657 29.7144 32.741 29.1424 32.9062 28.4971H34.5C34.8978 28.4971 35.2794 28.339 35.5607 28.0577C35.842 27.7764 36 27.3949 36 26.9971V23.2471C36 22.8493 35.842 22.4677 35.5607 22.1864C35.2794 21.9051 34.8978 21.7471 34.5 21.7471ZM16.1512 18.7471H26.6897L29.6897 21.7471H14.1562L16.1512 18.7471ZM18 29.2471C17.7033 29.2471 17.4133 29.1591 17.1666 28.9943C16.92 28.8295 16.7277 28.5952 16.6142 28.3211C16.5006 28.047 16.4709 27.7454 16.5288 27.4544C16.5867 27.1635 16.7296 26.8962 16.9393 26.6864C17.1491 26.4766 17.4164 26.3338 17.7074 26.2759C17.9983 26.218 18.2999 26.2477 18.574 26.3613C18.8481 26.4748 19.0824 26.667 19.2472 26.9137C19.412 27.1604 19.5 27.4504 19.5 27.7471C19.5 28.1449 19.342 28.5264 19.0607 28.8077C18.7794 29.089 18.3978 29.2471 18 29.2471ZM30 29.2471C29.7033 29.2471 29.4133 29.1591 29.1666 28.9943C28.92 28.8295 28.7277 28.5952 28.6142 28.3211C28.5007 28.047 28.4709 27.7454 28.5288 27.4544C28.5867 27.1635 28.7296 26.8962 28.9393 26.6864C29.1491 26.4766 29.4164 26.3338 29.7074 26.2759C29.9983 26.218 30.2999 26.2477 30.574 26.3613C30.8481 26.4748 31.0824 26.667 31.2472 26.9137C31.412 27.1604 31.5 27.4504 31.5 27.7471C31.5 28.1449 31.342 28.5264 31.0607 28.8077C30.7794 29.089 30.3978 29.2471 30 29.2471Z" fill="#DC6339"/>
</svg>
