<svg width="48" height="48" viewBox="0 0 48 48" fill="none" xmlns="http://www.w3.org/2000/svg">
<rect width="48" height="48" rx="9.6" fill="#FFA788" fill-opacity="0.4"/>
<path d="M30.75 17.625H24.75V14.625C24.75 14.4261 24.671 14.2353 24.5303 14.0947C24.3897 13.954 24.1989 13.875 24 13.875C23.8011 13.875 23.6103 13.954 23.4697 14.0947C23.329 14.2353 23.25 14.4261 23.25 14.625V17.625H17.25C16.4544 17.625 15.6913 17.9411 15.1287 18.5037C14.5661 19.0663 14.25 19.8294 14.25 20.625V31.125C14.25 31.9206 14.5661 32.6837 15.1287 33.2463C15.6913 33.8089 16.4544 34.125 17.25 34.125H30.75C31.5456 34.125 32.3087 33.8089 32.8713 33.2463C33.4339 32.6837 33.75 31.9206 33.75 31.125V20.625C33.75 19.8294 33.4339 19.0663 32.8713 18.5037C32.3087 17.9411 31.5456 17.625 30.75 17.625ZM28.125 22.125C28.3475 22.125 28.565 22.191 28.75 22.3146C28.935 22.4382 29.0792 22.6139 29.1644 22.8195C29.2495 23.025 29.2718 23.2512 29.2284 23.4695C29.185 23.6877 29.0778 23.8882 28.9205 24.0455C28.7632 24.2028 28.5627 24.31 28.3445 24.3534C28.1262 24.3968 27.9 24.3745 27.6945 24.2894C27.4889 24.2042 27.3132 24.06 27.1896 23.875C27.066 23.69 27 23.4725 27 23.25C27 22.9516 27.1185 22.6655 27.3295 22.4545C27.5405 22.2435 27.8266 22.125 28.125 22.125ZM21 30.375H19.5C19.1022 30.375 18.7206 30.217 18.4393 29.9357C18.158 29.6544 18 29.2728 18 28.875C18 28.4772 18.158 28.0956 18.4393 27.8143C18.7206 27.533 19.1022 27.375 19.5 27.375H21V30.375ZM19.875 24.375C19.6525 24.375 19.435 24.309 19.25 24.1854C19.065 24.0618 18.9208 23.8861 18.8356 23.6805C18.7505 23.475 18.7282 23.2488 18.7716 23.0305C18.815 22.8123 18.9222 22.6118 19.0795 22.4545C19.2368 22.2972 19.4373 22.19 19.6555 22.1466C19.8738 22.1032 20.1 22.1255 20.3055 22.2106C20.5111 22.2958 20.6868 22.44 20.8104 22.625C20.934 22.81 21 23.0275 21 23.25C21 23.5484 20.8815 23.8345 20.6705 24.0455C20.4595 24.2565 20.1734 24.375 19.875 24.375ZM25.5 30.375H22.5V27.375H25.5V30.375ZM28.5 30.375H27V27.375H28.5C28.8978 27.375 29.2794 27.533 29.5607 27.8143C29.842 28.0956 30 28.4772 30 28.875C30 29.2728 29.842 29.6544 29.5607 29.9357C29.2794 30.217 28.8978 30.375 28.5 30.375Z" fill="#DC6339"/>
</svg>
