<svg width="48" height="48" viewBox="0 0 48 48" fill="none" xmlns="http://www.w3.org/2000/svg">
<rect width="48" height="48" rx="9.6" fill="#FFA788" fill-opacity="0.4"/>
<path d="M30.75 14.25H17.25C16.8522 14.25 16.4706 14.408 16.1893 14.6893C15.908 14.9706 15.75 15.3522 15.75 15.75V32.25C15.75 32.6478 15.908 33.0294 16.1893 33.3107C16.4706 33.592 16.8522 33.75 17.25 33.75H30.75C31.1478 33.75 31.5294 33.592 31.8107 33.3107C32.092 33.0294 32.25 32.6478 32.25 32.25V15.75C32.25 15.3522 32.092 14.9706 31.8107 14.6893C31.5294 14.408 31.1478 14.25 30.75 14.25ZM28.5 27C28.5 27.9445 28.2028 28.865 27.6506 29.6312C27.0983 30.3974 26.319 30.9704 25.423 31.2691C24.527 31.5677 23.5598 31.5769 22.6582 31.2953C21.7567 31.0137 20.9667 30.4556 20.4 29.7C20.3409 29.6212 20.2979 29.5315 20.2735 29.4361C20.249 29.3407 20.2436 29.2414 20.2575 29.1439C20.2715 29.0464 20.3045 28.9526 20.3546 28.8679C20.4048 28.7831 20.4712 28.7091 20.55 28.65C20.6288 28.5909 20.7185 28.5479 20.8139 28.5235C20.9093 28.499 21.0086 28.4936 21.1061 28.5075C21.2036 28.5215 21.2974 28.5545 21.3821 28.6046C21.4669 28.6548 21.5409 28.7212 21.6 28.8C21.9778 29.3037 22.5045 29.6758 23.1055 29.8635C23.7065 30.0513 24.3513 30.0452 24.9487 29.8461C25.546 29.6469 26.0656 29.2649 26.4337 28.7541C26.8019 28.2433 27 27.6296 27 27V25.8506C26.3527 26.4296 25.5518 26.8088 24.6938 26.9427C23.8358 27.0766 22.9573 26.9594 22.1645 26.6052C21.3716 26.2509 20.6982 25.6749 20.2254 24.9465C19.7526 24.218 19.5007 23.3684 19.5 22.5V21.75C19.5007 20.8816 19.7526 20.032 20.2254 19.3035C20.6982 18.5751 21.3716 17.9991 22.1645 17.6448C22.9573 17.2906 23.8358 17.1734 24.6938 17.3073C25.5518 17.4412 26.3527 17.8204 27 18.3994V18C27 17.8011 27.079 17.6103 27.2197 17.4697C27.3603 17.329 27.5511 17.25 27.75 17.25C27.9489 17.25 28.1397 17.329 28.2803 17.4697C28.421 17.6103 28.5 17.8011 28.5 18V27ZM27 21.75V22.5C27 23.2956 26.6839 24.0587 26.1213 24.6213C25.5587 25.1839 24.7956 25.5 24 25.5C23.2044 25.5 22.4413 25.1839 21.8787 24.6213C21.3161 24.0587 21 23.2956 21 22.5V21.75C21 20.9544 21.3161 20.1913 21.8787 19.6287C22.4413 19.0661 23.2044 18.75 24 18.75C24.7956 18.75 25.5587 19.0661 26.1213 19.6287C26.6839 20.1913 27 20.9544 27 21.75Z" fill="#DC6339"/>
</svg>
