<svg width="48" height="48" viewBox="0 0 48 48" fill="none" xmlns="http://www.w3.org/2000/svg">
<rect width="48" height="48" rx="9.6" fill="#FFA788" fill-opacity="0.4"/>
<path d="M32.25 15.75H15.75C15.3522 15.75 14.9706 15.908 14.6893 16.1893C14.408 16.4706 14.25 16.8522 14.25 17.25V30.75C14.25 31.1478 14.408 31.5294 14.6893 31.8107C14.9706 32.092 15.3522 32.25 15.75 32.25H32.25C32.6478 32.25 33.0294 32.092 33.3107 31.8107C33.592 31.5294 33.75 31.1478 33.75 30.75V17.25C33.75 16.8522 33.592 16.4706 33.3107 16.1893C33.0294 15.908 32.6478 15.75 32.25 15.75ZM30.75 30H17.25C17.0511 30 16.8603 29.921 16.7197 29.7803C16.579 29.6397 16.5 29.4489 16.5 29.25V18.75C16.5 18.5511 16.579 18.3603 16.7197 18.2197C16.8603 18.079 17.0511 18 17.25 18C17.4489 18 17.6397 18.079 17.7803 18.2197C17.921 18.3603 18 18.5511 18 18.75V25.9397L21.2194 22.7194C21.289 22.6496 21.3717 22.5943 21.4628 22.5566C21.5538 22.5188 21.6514 22.4994 21.75 22.4994C21.8486 22.4994 21.9462 22.5188 22.0372 22.5566C22.1283 22.5943 22.211 22.6496 22.2806 22.7194L24 24.4397L28.1897 20.25H25.5C25.3011 20.25 25.1103 20.171 24.9697 20.0303C24.829 19.8897 24.75 19.6989 24.75 19.5C24.75 19.3011 24.829 19.1103 24.9697 18.9697C25.1103 18.829 25.3011 18.75 25.5 18.75H30C30.1989 18.75 30.3897 18.829 30.5303 18.9697C30.671 19.1103 30.75 19.3011 30.75 19.5V24C30.75 24.1989 30.671 24.3897 30.5303 24.5303C30.3897 24.671 30.1989 24.75 30 24.75C29.8011 24.75 29.6103 24.671 29.4697 24.5303C29.329 24.3897 29.25 24.1989 29.25 24V21.3103L24.5306 26.0306C24.461 26.1004 24.3783 26.1557 24.2872 26.1934C24.1962 26.2312 24.0986 26.2506 24 26.2506C23.9014 26.2506 23.8038 26.2312 23.7128 26.1934C23.6217 26.1557 23.539 26.1004 23.4694 26.0306L21.75 24.3103L18 28.0603V28.5H30.75C30.9489 28.5 31.1397 28.579 31.2803 28.7197C31.421 28.8603 31.5 29.0511 31.5 29.25C31.5 29.4489 31.421 29.6397 31.2803 29.7803C31.1397 29.921 30.9489 30 30.75 30Z" fill="#DC6339"/>
</svg>
