<svg width="48" height="48" viewBox="0 0 48 48" fill="none" xmlns="http://www.w3.org/2000/svg">
<rect width="48" height="48" rx="9.6" fill="#FFA788" fill-opacity="0.4"/>
<path d="M33.75 27.375H33V18.375C33 17.7783 32.7629 17.206 32.341 16.784C31.919 16.3621 31.3467 16.125 30.75 16.125H17.25C16.6533 16.125 16.081 16.3621 15.659 16.784C15.2371 17.206 15 17.7783 15 18.375V27.375H14.25C14.0511 27.375 13.8603 27.454 13.7197 27.5947C13.579 27.7353 13.5 27.9261 13.5 28.125V29.625C13.5 30.2217 13.7371 30.794 14.159 31.216C14.581 31.6379 15.1533 31.875 15.75 31.875H32.25C32.8467 31.875 33.419 31.6379 33.841 31.216C34.2629 30.794 34.5 30.2217 34.5 29.625V28.125C34.5 27.9261 34.421 27.7353 34.2803 27.5947C34.1397 27.454 33.9489 27.375 33.75 27.375ZM22.5 18.375H25.5C25.6989 18.375 25.8897 18.454 26.0303 18.5947C26.171 18.7353 26.25 18.9261 26.25 19.125C26.25 19.3239 26.171 19.5147 26.0303 19.6553C25.8897 19.796 25.6989 19.875 25.5 19.875H22.5C22.3011 19.875 22.1103 19.796 21.9697 19.6553C21.829 19.5147 21.75 19.3239 21.75 19.125C21.75 18.9261 21.829 18.7353 21.9697 18.5947C22.1103 18.454 22.3011 18.375 22.5 18.375ZM33 29.625C33 29.8239 32.921 30.0147 32.7803 30.1553C32.6397 30.296 32.4489 30.375 32.25 30.375H15.75C15.5511 30.375 15.3603 30.296 15.2197 30.1553C15.079 30.0147 15 29.8239 15 29.625V28.875H33V29.625Z" fill="#DC6339"/>
</svg>
