<svg width="48" height="48" viewBox="0 0 48 48" fill="none" xmlns="http://www.w3.org/2000/svg">
<rect width="48" height="48" rx="9.6" fill="#FFA788" fill-opacity="0.4"/>
<path d="M25.5 25.875C25.5 26.2458 25.39 26.6084 25.184 26.9167C24.978 27.225 24.6851 27.4654 24.3425 27.6073C23.9999 27.7492 23.6229 27.7863 23.2592 27.714C22.8955 27.6416 22.5614 27.463 22.2992 27.2008C22.037 26.9386 21.8584 26.6045 21.786 26.2408C21.7137 25.8771 21.7508 25.5001 21.8927 25.1575C22.0346 24.8149 22.275 24.522 22.5833 24.316C22.8916 24.11 23.2542 24 23.625 24C24.1223 24 24.5992 24.1975 24.9508 24.5492C25.3025 24.9008 25.5 25.3777 25.5 25.875ZM32.25 20.25V32.25C32.25 32.6478 32.092 33.0294 31.8107 33.3107C31.5294 33.592 31.1478 33.75 30.75 33.75H17.25C16.8522 33.75 16.4706 33.592 16.1893 33.3107C15.908 33.0294 15.75 32.6478 15.75 32.25V15.75C15.75 15.3522 15.908 14.9706 16.1893 14.6893C16.4706 14.408 16.8522 14.25 17.25 14.25H26.25C26.3485 14.2499 26.4461 14.2693 26.5371 14.3069C26.6282 14.3445 26.7109 14.3997 26.7806 14.4694L32.0306 19.7194C32.1003 19.7891 32.1555 19.8718 32.1931 19.9629C32.2307 20.0539 32.2501 20.1515 32.25 20.25ZM27.5306 28.7194L26.4806 27.6703C26.9233 26.967 27.0912 26.1252 26.9524 25.3058C26.8137 24.4865 26.3779 23.747 25.7283 23.2286C25.0788 22.7102 24.261 22.4494 23.4313 22.4958C22.6016 22.5423 21.818 22.8928 21.2304 23.4804C20.6428 24.068 20.2923 24.8516 20.2458 25.6813C20.1994 26.511 20.4602 27.3288 20.9786 27.9783C21.497 28.6279 22.2365 29.0637 23.0558 29.2024C23.8752 29.3412 24.717 29.1733 25.4203 28.7306L26.4694 29.7806C26.5391 29.8503 26.6218 29.9056 26.7128 29.9433C26.8039 29.981 26.9015 30.0004 27 30.0004C27.0985 30.0004 27.1961 29.981 27.2872 29.9433C27.3782 29.9056 27.4609 29.8503 27.5306 29.7806C27.6003 29.7109 27.6556 29.6282 27.6933 29.5372C27.731 29.4461 27.7504 29.3485 27.7504 29.25C27.7504 29.1515 27.731 29.0539 27.6933 28.9628C27.6556 28.8718 27.6003 28.7891 27.5306 28.7194ZM30.375 20.25L26.25 16.125V20.25H30.375Z" fill="#DC6339"/>
</svg>
