<svg width="48" height="48" viewBox="0 0 48 48" fill="none" xmlns="http://www.w3.org/2000/svg">
<rect width="48" height="48" rx="9.6" fill="#FFA788" fill-opacity="0.4"/>
<path d="M34.1441 32.843C34.0041 33.0102 33.8292 33.1447 33.6315 33.2369C33.4339 33.3291 33.2184 33.3767 33.0003 33.3764C32.8288 33.3763 32.6586 33.3471 32.4969 33.2902L25.0016 30.7589C24.9272 30.7338 24.8627 30.686 24.8169 30.6223C24.7712 30.5585 24.7466 30.4821 24.7466 30.4036V23.6264C24.7468 23.5236 24.7259 23.4218 24.6851 23.3274C24.6444 23.233 24.5846 23.148 24.5096 23.0777C24.4346 23.0074 24.346 22.9532 24.2492 22.9186C24.1524 22.884 24.0495 22.8696 23.9469 22.8764C23.754 22.8934 23.5747 22.9827 23.4449 23.1262C23.315 23.2698 23.2442 23.4572 23.2466 23.6508V30.4008C23.2466 30.4792 23.222 30.5557 23.1762 30.6195C23.1305 30.6832 23.0659 30.731 22.9916 30.7561L15.4963 33.2873C15.2087 33.3884 14.8972 33.3994 14.6032 33.319C14.3092 33.2386 14.0467 33.0705 13.8506 32.8372C13.6546 32.6038 13.5342 32.3163 13.5056 32.0128C13.4771 31.7094 13.5416 31.4044 13.6906 31.1386L22.6878 15.3886C22.8183 15.1566 23.0082 14.9636 23.2379 14.8292C23.4677 14.6948 23.729 14.624 23.9952 14.624C24.2613 14.624 24.5227 14.6948 24.7524 14.8292C24.9822 14.9636 25.172 15.1566 25.3025 15.3886L34.3034 31.1358C34.456 31.4021 34.5225 31.709 34.494 32.0146C34.4655 32.3202 34.3433 32.6095 34.1441 32.843Z" fill="#DC6339"/>
</svg>
