<svg width="48" height="48" viewBox="0 0 48 48" fill="none" xmlns="http://www.w3.org/2000/svg">
<rect width="48" height="48" rx="9.6" fill="#FFA788" fill-opacity="0.4"/>
<path d="M31.4131 23.9645C31.4614 23.8766 31.4915 23.7798 31.5018 23.68C31.512 23.5801 31.5021 23.4793 31.4726 23.3833C31.4431 23.2874 31.3947 23.1983 31.3302 23.1215C31.2657 23.0446 31.1864 22.9814 31.0971 22.9357C31.0077 22.8901 30.9101 22.8628 30.81 22.8555C30.7099 22.8482 30.6094 22.8611 30.5143 22.8934C30.4193 22.9257 30.3317 22.9767 30.2568 23.0435C30.1819 23.1103 30.1211 23.1914 30.0781 23.282C29.3847 24.6177 28.3037 25.7125 26.9768 26.4227L25.2668 22.5742C25.7819 22.1881 26.1759 21.6628 26.4022 21.0601C26.6286 20.4575 26.6778 19.8027 26.5442 19.173C26.4106 18.5432 26.0996 17.9649 25.648 17.5061C25.1965 17.0473 24.6231 16.7272 23.9956 16.5836V14.6233C23.9956 14.4244 23.9165 14.2336 23.7759 14.093C23.6352 13.9523 23.4445 13.8733 23.2456 13.8733C23.0467 13.8733 22.8559 13.9523 22.7152 14.093C22.5746 14.2336 22.4956 14.4244 22.4956 14.6233V16.5836C21.868 16.7272 21.2947 17.0473 20.8431 17.5061C20.3915 17.9649 20.0806 18.5432 19.9469 19.173C19.8133 19.8027 19.8626 20.4575 20.0889 21.0601C20.3152 21.6628 20.7092 22.1881 21.2243 22.5742L16.5603 33.0686C16.5197 33.1587 16.4973 33.2559 16.4945 33.3546C16.4916 33.4534 16.5082 33.5517 16.5435 33.644C16.5787 33.7363 16.6318 33.8207 16.6998 33.8924C16.7677 33.9641 16.8492 34.0217 16.9394 34.0618C17.0297 34.1019 17.127 34.1239 17.2258 34.1263C17.3245 34.1287 17.4228 34.1116 17.5149 34.0759C17.607 34.0402 17.6912 33.9867 17.7626 33.9184C17.834 33.8501 17.8912 33.7684 17.9309 33.678L20.2878 28.3755C21.2387 28.7066 22.2386 28.8749 23.2456 28.8733C24.253 28.8721 25.2536 28.7072 26.2081 28.3849L28.5603 33.678C28.6417 33.8588 28.7914 34 28.9766 34.0708C29.1619 34.1415 29.3676 34.136 29.5488 34.0554C29.73 33.9748 29.872 33.8258 29.9436 33.6409C30.0151 33.4559 30.0106 33.2502 29.9309 33.0686L27.5871 27.7952C29.2261 26.9422 30.5621 25.6045 31.4131 23.9645ZM23.2456 27.3733C22.4493 27.3743 21.658 27.2477 20.9018 26.9983L22.5968 23.1845C23.0264 23.2696 23.4685 23.2696 23.8981 23.1845L25.5987 27.0095C24.8376 27.2505 24.0439 27.3732 23.2456 27.3733Z" fill="#DC6339"/>
</svg>
