<svg width="48" height="48" viewBox="0 0 48 48" fill="none" xmlns="http://www.w3.org/2000/svg">
<rect width="48" height="48" rx="9.6" fill="#FFA788" fill-opacity="0.4"/>
<path d="M27.75 32.25C27.75 32.4489 27.671 32.6397 27.5303 32.7803C27.3897 32.921 27.1989 33 27 33H21C20.8011 33 20.6103 32.921 20.4697 32.7803C20.329 32.6397 20.25 32.4489 20.25 32.25C20.25 32.0511 20.329 31.8603 20.4697 31.7197C20.6103 31.579 20.8011 31.5 21 31.5H27C27.1989 31.5 27.3897 31.579 27.5303 31.7197C27.671 31.8603 27.75 32.0511 27.75 32.25ZM33.75 17.25V27.75C33.75 28.3467 33.5129 28.919 33.091 29.341C32.669 29.7629 32.0967 30 31.5 30H16.5C15.9033 30 15.331 29.7629 14.909 29.341C14.4871 28.919 14.25 28.3467 14.25 27.75V17.25C14.25 16.6533 14.4871 16.081 14.909 15.659C15.331 15.2371 15.9033 15 16.5 15H31.5C32.0967 15 32.669 15.2371 33.091 15.659C33.5129 16.081 33.75 16.6533 33.75 17.25ZM27.375 22.5C27.375 22.3795 27.3459 22.2608 27.2902 22.1539C27.2346 22.047 27.154 21.9551 27.0553 21.8859L23.3053 19.2609C23.1929 19.1822 23.0611 19.1358 22.9242 19.1268C22.7873 19.1178 22.6506 19.1465 22.5289 19.2099C22.4071 19.2732 22.3051 19.3687 22.2339 19.486C22.1627 19.6032 22.125 19.7378 22.125 19.875V25.125C22.125 25.2622 22.1627 25.3968 22.2339 25.514C22.3051 25.6313 22.4071 25.7268 22.5289 25.7901C22.6506 25.8535 22.7873 25.8822 22.9242 25.8732C23.0611 25.8642 23.1929 25.8178 23.3053 25.7391L27.0553 23.1141C27.154 23.0449 27.2346 22.953 27.2902 22.8461C27.3459 22.7392 27.375 22.6205 27.375 22.5Z" fill="#DC6339"/>
</svg>
