<svg width="48" height="48" viewBox="0 0 48 48" fill="none" xmlns="http://www.w3.org/2000/svg">
<rect width="48" height="48" rx="9.6" fill="#FFA788" fill-opacity="0.4"/>
<path d="M21.3754 29.8125C21.3754 30.4058 21.1995 30.9859 20.8698 31.4792C20.5402 31.9726 20.0716 32.3571 19.5235 32.5841C18.9753 32.8112 18.3721 32.8706 17.7901 32.7549C17.2082 32.6391 16.6737 32.3534 16.2541 31.9338C15.8345 31.5143 15.5488 30.9797 15.4331 30.3978C15.3173 29.8158 15.3767 29.2126 15.6038 28.6644C15.8308 28.1163 16.2154 27.6477 16.7087 27.3181C17.2021 26.9884 17.7821 26.8125 18.3754 26.8125C19.1711 26.8125 19.9341 27.1286 20.4967 27.6912C21.0593 28.2538 21.3754 29.0169 21.3754 29.8125ZM16.281 23.2181L17.6254 21.8728L18.9698 23.2181C19.1105 23.3589 19.3014 23.4379 19.5004 23.4379C19.6994 23.4379 19.8903 23.3589 20.031 23.2181C20.1718 23.0774 20.2508 22.8865 20.2508 22.6875C20.2508 22.4885 20.1718 22.2976 20.031 22.1569L18.6857 20.8125L20.031 19.4681C20.1718 19.3274 20.2508 19.1365 20.2508 18.9375C20.2508 18.7385 20.1718 18.5476 20.031 18.4069C19.8903 18.2661 19.6994 18.1871 19.5004 18.1871C19.3014 18.1871 19.1105 18.2661 18.9698 18.4069L17.6254 19.7522L16.281 18.4069C16.1403 18.2661 15.9494 18.1871 15.7504 18.1871C15.5514 18.1871 15.3605 18.2661 15.2198 18.4069C15.0791 18.5476 15 18.7385 15 18.9375C15 19.1365 15.0791 19.3274 15.2198 19.4681L16.5651 20.8125L15.2198 22.1569C15.0791 22.2976 15 22.4885 15 22.6875C15 22.8865 15.0791 23.0774 15.2198 23.2181C15.3605 23.3589 15.5514 23.4379 15.7504 23.4379C15.9494 23.4379 16.1403 23.3589 16.281 23.2181ZM31.4357 29.8125L32.781 28.4681C32.9218 28.3274 33.0008 28.1365 33.0008 27.9375C33.0008 27.7385 32.9218 27.5476 32.781 27.4069C32.6403 27.2661 32.4494 27.1871 32.2504 27.1871C32.0514 27.1871 31.8605 27.2661 31.7198 27.4069L30.3754 28.7522L29.031 27.4069C28.8903 27.2661 28.6994 27.1871 28.5004 27.1871C28.3014 27.1871 28.1105 27.2661 27.9698 27.4069C27.8291 27.5476 27.75 27.7385 27.75 27.9375C27.75 28.1365 27.8291 28.3274 27.9698 28.4681L29.3151 29.8125L27.9698 31.1569C27.8291 31.2976 27.75 31.4885 27.75 31.6875C27.75 31.8865 27.8291 32.0774 27.9698 32.2181C28.1105 32.3589 28.3014 32.4379 28.5004 32.4379C28.6994 32.4379 28.8903 32.3589 29.031 32.2181L30.3754 30.8728L31.7198 32.2181C31.7895 32.2878 31.8722 32.3431 31.9632 32.3808C32.0543 32.4185 32.1519 32.4379 32.2504 32.4379C32.349 32.4379 32.4465 32.4185 32.5376 32.3808C32.6286 32.3431 32.7114 32.2878 32.781 32.2181C32.8507 32.1484 32.906 32.0657 32.9437 31.9747C32.9814 31.8836 33.0008 31.786 33.0008 31.6875C33.0008 31.589 32.9814 31.4914 32.9437 31.4003C32.906 31.3093 32.8507 31.2266 32.781 31.1569L31.4357 29.8125ZM26.781 16.9069L26.5607 16.6875H28.5004C28.6993 16.6875 28.8901 16.6085 29.0307 16.4678C29.1714 16.3272 29.2504 16.1364 29.2504 15.9375C29.2504 15.7386 29.1714 15.5478 29.0307 15.4072C28.8901 15.2665 28.6993 15.1875 28.5004 15.1875H24.7504C24.5515 15.1875 24.3607 15.2665 24.2201 15.4072C24.0794 15.5478 24.0004 15.7386 24.0004 15.9375V19.6875C24.0004 19.8864 24.0794 20.0772 24.2201 20.2178C24.3607 20.3585 24.5515 20.4375 24.7504 20.4375C24.9493 20.4375 25.1401 20.3585 25.2807 20.2178C25.4214 20.0772 25.5004 19.8864 25.5004 19.6875V17.7478L25.7198 17.9681C27.4007 19.6491 27.3979 21.2869 27.0989 22.365C26.6639 23.9372 25.2839 25.3434 23.8176 25.71C23.64 25.7545 23.4849 25.8624 23.3814 26.0134C23.2779 26.1643 23.2331 26.3479 23.2556 26.5296C23.2781 26.7113 23.3662 26.8784 23.5034 26.9996C23.6406 27.1208 23.8174 27.1876 24.0004 27.1875C24.062 27.1874 24.1234 27.1799 24.1832 27.165C26.1717 26.6681 27.966 24.8588 28.5454 22.7653C29.1173 20.6981 28.491 18.6178 26.781 16.9069Z" fill="#DC6339"/>
</svg>
