<svg width="48" height="48" viewBox="0 0 48 48" fill="none" xmlns="http://www.w3.org/2000/svg">
<rect width="48" height="48" rx="9.6" fill="#FFA788" fill-opacity="0.4"/>
<path d="M32.25 15.75H15.75C15.3522 15.75 14.9706 15.908 14.6893 16.1893C14.408 16.4706 14.25 16.8522 14.25 17.25V30.75C14.25 31.1478 14.408 31.5294 14.6893 31.8107C14.9706 32.092 15.3522 32.25 15.75 32.25H32.25C32.6478 32.25 33.0294 32.092 33.3107 31.8107C33.592 31.5294 33.75 31.1478 33.75 30.75V17.25C33.75 16.8522 33.592 16.4706 33.3107 16.1893C33.0294 15.908 32.6478 15.75 32.25 15.75ZM30.8653 27.9619C30.3375 28.8056 29.5219 29.25 28.5066 29.25C26.5631 29.25 25.2431 26.8772 23.8453 24.3647C22.8253 22.5309 21.5559 20.25 20.4947 20.25C19.3294 20.25 18 22.9575 18 25.3322C18 26.1066 18.1406 26.7384 18.4069 27.1659C18.6562 27.5625 19.0013 27.75 19.4934 27.75C20.0634 27.75 20.7609 27.0938 21.6253 25.7334C21.735 25.5722 21.9031 25.46 22.0941 25.4206C22.2851 25.3812 22.4839 25.4178 22.6484 25.5225C22.8129 25.6272 22.9301 25.7919 22.9752 25.9816C23.0203 26.1714 22.9897 26.3712 22.89 26.5387C21.36 28.9416 20.2706 29.25 19.4934 29.25C18.4781 29.25 17.6625 28.8047 17.1347 27.9619C16.7194 27.2981 16.5 26.3887 16.5 25.3369C16.5165 23.8643 16.8693 22.4149 17.5312 21.0994C18.3131 19.5844 19.3659 18.75 20.4947 18.75C22.4381 18.75 23.7581 21.1228 25.1559 23.6353C26.1759 25.4681 27.4453 27.75 28.5066 27.75C28.9988 27.75 29.3438 27.5625 29.5931 27.1659C29.8594 26.7413 30 26.1066 30 25.3322C30 22.9575 28.6706 20.25 27.5053 20.25C27.1866 20.25 26.8162 20.4666 26.4047 20.895C26.3364 20.966 26.2548 21.0229 26.1646 21.0624C26.0743 21.1019 25.9772 21.1233 25.8787 21.1252C25.7802 21.1272 25.6822 21.1097 25.5905 21.0739C25.4987 21.038 25.4149 20.9844 25.3439 20.9161C25.2729 20.8478 25.216 20.7662 25.1765 20.676C25.137 20.5857 25.1156 20.4886 25.1137 20.3901C25.1117 20.2916 25.1292 20.1936 25.1651 20.1019C25.2009 20.0101 25.2545 19.9263 25.3228 19.8553C26.0381 19.1119 26.7516 18.75 27.5053 18.75C28.6303 18.75 29.6869 19.5844 30.4697 21.0994C31.131 22.4135 31.4837 23.8612 31.5009 25.3322C31.5 26.3888 31.2806 27.2981 30.8653 27.9619Z" fill="#DC6339"/>
</svg>
