<svg width="48" height="48" viewBox="0 0 48 48" fill="none" xmlns="http://www.w3.org/2000/svg">
<rect width="48" height="48" rx="9.6" fill="#FFA788" fill-opacity="0.4"/>
<path d="M32.25 15.75H15.75C15.3522 15.75 14.9706 15.908 14.6893 16.1893C14.408 16.4706 14.25 16.8522 14.25 17.25V30.75C14.25 31.1478 14.408 31.5294 14.6893 31.8107C14.9706 32.092 15.3522 32.25 15.75 32.25H32.25C32.6478 32.25 33.0294 32.092 33.3107 31.8107C33.592 31.5294 33.75 31.1478 33.75 30.75V17.25C33.75 16.8522 33.592 16.4706 33.3107 16.1893C33.0294 15.908 32.6478 15.75 32.25 15.75ZM18 20.625C18 20.8239 17.921 21.0147 17.7803 21.1553C17.6397 21.296 17.4489 21.375 17.25 21.375C17.0511 21.375 16.8603 21.296 16.7197 21.1553C16.579 21.0147 16.5 20.8239 16.5 20.625V19.5C16.5 19.3011 16.579 19.1103 16.7197 18.9697C16.8603 18.829 17.0511 18.75 17.25 18.75H24C24.1989 18.75 24.3897 18.829 24.5303 18.9697C24.671 19.1103 24.75 19.3011 24.75 19.5V20.625C24.75 20.8239 24.671 21.0147 24.5303 21.1553C24.3897 21.296 24.1989 21.375 24 21.375C23.8011 21.375 23.6103 21.296 23.4697 21.1553C23.329 21.0147 23.25 20.8239 23.25 20.625V20.25H21.375V24.75H21.75C21.9489 24.75 22.1397 24.829 22.2803 24.9697C22.421 25.1103 22.5 25.3011 22.5 25.5C22.5 25.6989 22.421 25.8897 22.2803 26.0303C22.1397 26.171 21.9489 26.25 21.75 26.25H19.5C19.3011 26.25 19.1103 26.171 18.9697 26.0303C18.829 25.8897 18.75 25.6989 18.75 25.5C18.75 25.3011 18.829 25.1103 18.9697 24.9697C19.1103 24.829 19.3011 24.75 19.5 24.75H19.875V20.25H18V20.625ZM30.75 29.25H19.5C19.3011 29.25 19.1103 29.171 18.9697 29.0303C18.829 28.8897 18.75 28.6989 18.75 28.5C18.75 28.3011 18.829 28.1103 18.9697 27.9697C19.1103 27.829 19.3011 27.75 19.5 27.75H30.75C30.9489 27.75 31.1397 27.829 31.2803 27.9697C31.421 28.1103 31.5 28.3011 31.5 28.5C31.5 28.6989 31.421 28.8897 31.2803 29.0303C31.1397 29.171 30.9489 29.25 30.75 29.25ZM30.75 26.25H24.75C24.5511 26.25 24.3603 26.171 24.2197 26.0303C24.079 25.8897 24 25.6989 24 25.5C24 25.3011 24.079 25.1103 24.2197 24.9697C24.3603 24.829 24.5511 24.75 24.75 24.75H30.75C30.9489 24.75 31.1397 24.829 31.2803 24.9697C31.421 25.1103 31.5 25.3011 31.5 25.5C31.5 25.6989 31.421 25.8897 31.2803 26.0303C31.1397 26.171 30.9489 26.25 30.75 26.25ZM30.75 23.25H26.25C26.0511 23.25 25.8603 23.171 25.7197 23.0303C25.579 22.8897 25.5 22.6989 25.5 22.5C25.5 22.3011 25.579 22.1103 25.7197 21.9697C25.8603 21.829 26.0511 21.75 26.25 21.75H30.75C30.9489 21.75 31.1397 21.829 31.2803 21.9697C31.421 22.1103 31.5 22.3011 31.5 22.5C31.5 22.6989 31.421 22.8897 31.2803 23.0303C31.1397 23.171 30.9489 23.25 30.75 23.25Z" fill="#DC6339"/>
</svg>
