<svg width="48" height="48" viewBox="0 0 48 48" fill="none" xmlns="http://www.w3.org/2000/svg">
<rect width="48" height="48" rx="9.6" fill="#FFA788" fill-opacity="0.4"/>
<path d="M33.75 23.25H32.9681C32.8804 22.1805 32.6003 21.1356 32.1413 20.1656L32.8191 19.7747C32.9914 19.6752 33.1171 19.5114 33.1686 19.3192C33.2201 19.1271 33.1932 18.9223 33.0938 18.75C32.9943 18.5777 32.8305 18.452 32.6383 18.4004C32.4461 18.3489 32.2414 18.3759 32.0691 18.4753L31.3894 18.8681C30.7759 17.9884 30.0116 17.2241 29.1319 16.6106L29.5247 15.9309C29.6241 15.7586 29.6511 15.5539 29.5996 15.3617C29.548 15.1695 29.4223 15.0057 29.25 14.9062C29.0777 14.8068 28.8729 14.7799 28.6808 14.8314C28.4886 14.8829 28.3248 15.0086 28.2253 15.1809L27.8344 15.8587C26.8644 15.3997 25.8195 15.1196 24.75 15.0319V14.25C24.75 14.0511 24.671 13.8603 24.5303 13.7197C24.3897 13.579 24.1989 13.5 24 13.5C23.8011 13.5 23.6103 13.579 23.4697 13.7197C23.329 13.8603 23.25 14.0511 23.25 14.25V15.0319C22.1805 15.1196 21.1356 15.3997 20.1656 15.8587L19.7747 15.1809C19.6752 15.0086 19.5114 14.8829 19.3192 14.8314C19.1271 14.7799 18.9223 14.8068 18.75 14.9062C18.5777 15.0057 18.452 15.1695 18.4004 15.3617C18.3489 15.5539 18.3759 15.7586 18.4753 15.9309L18.8681 16.6106C17.9884 17.2241 17.2241 17.9884 16.6106 18.8681L15.9309 18.4753C15.8456 18.4261 15.7514 18.3941 15.6538 18.3813C15.5561 18.3684 15.4569 18.3749 15.3617 18.4004C15.1695 18.452 15.0057 18.5777 14.9062 18.75C14.8068 18.9223 14.7799 19.1271 14.8314 19.3192C14.8829 19.5114 15.0086 19.6752 15.1809 19.7747L15.8587 20.1656C15.3997 21.1356 15.1196 22.1805 15.0319 23.25H14.25C14.0511 23.25 13.8603 23.329 13.7197 23.4697C13.579 23.6103 13.5 23.8011 13.5 24C13.5 24.1989 13.579 24.3897 13.7197 24.5303C13.8603 24.671 14.0511 24.75 14.25 24.75H15.0319C15.1196 25.8195 15.3997 26.8644 15.8587 27.8344L15.1809 28.2253C15.0379 28.3078 14.926 28.4353 14.8628 28.5878C14.7996 28.7404 14.7885 28.9096 14.8312 29.0691C14.8739 29.2286 14.9681 29.3696 15.0992 29.4701C15.2302 29.5706 15.3908 29.6251 15.5559 29.625C15.6876 29.6254 15.817 29.5908 15.9309 29.5247L16.6106 29.1319C17.2241 30.0116 17.9884 30.7759 18.8681 31.3894L18.4753 32.0691C18.3759 32.2414 18.3489 32.4461 18.4004 32.6383C18.452 32.8305 18.5777 32.9943 18.75 33.0938C18.9223 33.1932 19.1271 33.2201 19.3192 33.1686C19.5114 33.1171 19.6752 32.9914 19.7747 32.8191L20.1656 32.1413C21.1356 32.6003 22.1805 32.8804 23.25 32.9681V33.75C23.25 33.9489 23.329 34.1397 23.4697 34.2803C23.6103 34.421 23.8011 34.5 24 34.5C24.1989 34.5 24.3897 34.421 24.5303 34.2803C24.671 34.1397 24.75 33.9489 24.75 33.75V32.9681C25.8195 32.8804 26.8644 32.6003 27.8344 32.1413L28.2253 32.8191C28.3248 32.9914 28.4886 33.1171 28.6808 33.1686C28.8729 33.2201 29.0777 33.1932 29.25 33.0938C29.4223 32.9943 29.548 32.8305 29.5996 32.6383C29.6511 32.4461 29.6241 32.2414 29.5247 32.0691L29.1319 31.3894C30.0116 30.7759 30.7759 30.0116 31.3894 29.1319L32.0691 29.5247C32.1544 29.574 32.2486 29.6059 32.3462 29.6188C32.4439 29.6316 32.5432 29.6251 32.6383 29.5996C32.7335 29.5741 32.8227 29.5301 32.9008 29.4701C32.979 29.4101 33.0445 29.3353 33.0938 29.25C33.1933 29.0778 33.2204 28.8731 33.1691 28.681C33.1177 28.4888 32.9922 28.3249 32.82 28.2253L32.1422 27.8344C32.6012 26.8644 32.8814 25.8195 32.9691 24.75H33.75C33.9489 24.75 34.1397 24.671 34.2803 24.5303C34.421 24.3897 34.5 24.1989 34.5 24C34.5 23.8011 34.421 23.6103 34.2803 23.4697C34.1397 23.329 33.9489 23.25 33.75 23.25ZM18.75 24C18.7496 23.2055 18.9299 22.4213 19.2771 21.7066C19.6243 20.992 20.1295 20.3657 20.7544 19.875L23.1337 24L20.7544 28.125C20.1295 27.6343 19.6243 27.008 19.2771 26.2934C18.9299 25.5787 18.7496 24.7945 18.75 24ZM24 29.25C23.3326 29.2507 22.6713 29.1234 22.0519 28.875L24.4331 24.75H29.1956C29.0136 25.9987 28.3887 27.1403 27.4348 27.9664C26.481 28.7925 25.2619 29.2481 24 29.25ZM24.4331 23.25L22.0519 19.125C22.7893 18.8304 23.584 18.7069 24.3761 18.7639C25.1682 18.8209 25.9371 19.0568 26.6248 19.4539C27.3125 19.851 27.9012 20.3989 28.3465 21.0565C28.7918 21.714 29.0821 22.464 29.1956 23.25H24.4331Z" fill="#DC6339"/>
</svg>
