<svg width="48" height="48" viewBox="0 0 48 48" fill="none" xmlns="http://www.w3.org/2000/svg">
<rect width="48" height="48" rx="9.6" fill="#FFA788" fill-opacity="0.4"/>
<path d="M24 14.25C22.0716 14.25 20.1866 14.8218 18.5832 15.8932C16.9798 16.9645 15.7301 18.4873 14.9922 20.2688C14.2542 22.0504 14.0611 24.0108 14.4373 25.9021C14.8136 27.7934 15.7422 29.5307 17.1057 30.8943C18.4693 32.2579 20.2066 33.1865 22.0979 33.5627C23.9892 33.9389 25.9496 33.7458 27.7312 33.0078C29.5127 32.2699 31.0355 31.0202 32.1068 29.4168C33.1782 27.8134 33.75 25.9284 33.75 24C33.7473 21.415 32.7192 18.9366 30.8913 17.1087C29.0634 15.2808 26.585 14.2527 24 14.25ZM24 15.75C25.3208 15.7505 26.6221 16.0682 27.7946 16.6762C28.9671 17.2842 29.9764 18.1649 30.7378 19.2441L24 23.1337V15.75ZM24 32.25C22.6792 32.2495 21.3779 31.9318 20.2054 31.3238C19.0329 30.7158 18.0236 29.8351 17.2622 28.7559L31.4897 20.5425C32.0699 21.7995 32.3244 23.1822 32.2299 24.5634C32.1354 25.9445 31.6948 27.2797 30.9487 28.4459C30.2027 29.6121 29.1752 30.5717 27.9608 31.2365C26.7465 31.9013 25.3844 32.2499 24 32.25Z" fill="#DC6339"/>
</svg>
