<svg width="48" height="48" viewBox="0 0 48 48" fill="none" xmlns="http://www.w3.org/2000/svg">
<rect width="48" height="48" rx="9.6" fill="#FFA788" fill-opacity="0.4"/>
<path d="M32.0306 19.7194L26.7806 14.4694C26.7109 14.3997 26.6282 14.3445 26.5371 14.3069C26.4461 14.2693 26.3485 14.2499 26.25 14.25H17.25C16.8522 14.25 16.4706 14.408 16.1893 14.6893C15.908 14.9706 15.75 15.3522 15.75 15.75V32.25C15.75 32.6478 15.908 33.0294 16.1893 33.3107C16.4706 33.592 16.8522 33.75 17.25 33.75H30.75C31.1478 33.75 31.5294 33.592 31.8107 33.3107C32.092 33.0294 32.25 32.6478 32.25 32.25V20.25C32.2501 20.1515 32.2307 20.0539 32.1931 19.9629C32.1555 19.8718 32.1003 19.7891 32.0306 19.7194ZM26.7806 26.0306C26.711 26.1004 26.6283 26.1557 26.5372 26.1934C26.4462 26.2312 26.3486 26.2506 26.25 26.2506C26.1514 26.2506 26.0538 26.2312 25.9628 26.1934C25.8717 26.1557 25.789 26.1004 25.7194 26.0306L24.75 25.0603V29.25C24.75 29.4489 24.671 29.6397 24.5303 29.7803C24.3897 29.921 24.1989 30 24 30C23.8011 30 23.6103 29.921 23.4697 29.7803C23.329 29.6397 23.25 29.4489 23.25 29.25V25.0603L22.2806 26.0306C22.2109 26.1003 22.1282 26.1556 22.0372 26.1933C21.9461 26.231 21.8485 26.2504 21.75 26.2504C21.6515 26.2504 21.5539 26.231 21.4628 26.1933C21.3718 26.1556 21.2891 26.1003 21.2194 26.0306C21.1497 25.9609 21.0944 25.8782 21.0567 25.7872C21.019 25.6961 20.9996 25.5985 20.9996 25.5C20.9996 25.4015 21.019 25.3039 21.0567 25.2128C21.0944 25.1218 21.1497 25.0391 21.2194 24.9694L23.4694 22.7194C23.539 22.6496 23.6217 22.5943 23.7128 22.5566C23.8038 22.5188 23.9014 22.4994 24 22.4994C24.0986 22.4994 24.1962 22.5188 24.2872 22.5566C24.3783 22.5943 24.461 22.6496 24.5306 22.7194L26.7806 24.9694C26.8504 25.039 26.9057 25.1217 26.9434 25.2128C26.9812 25.3038 27.0006 25.4014 27.0006 25.5C27.0006 25.5986 26.9812 25.6962 26.9434 25.7872C26.9057 25.8783 26.8504 25.961 26.7806 26.0306ZM26.25 20.25V16.125L30.375 20.25H26.25Z" fill="#DC6339"/>
</svg>
