<svg width="48" height="48" viewBox="0 0 48 48" fill="none" xmlns="http://www.w3.org/2000/svg">
<rect width="48" height="48" rx="9.6" fill="#FFA788" fill-opacity="0.4"/>
<path d="M32.25 15.75H18.75C18.3522 15.75 17.9706 15.908 17.6893 16.1893C17.408 16.4706 17.25 16.8522 17.25 17.25V18.75H15.75C15.3522 18.75 14.9706 18.908 14.6893 19.1893C14.408 19.4706 14.25 19.8522 14.25 20.25V30.75C14.25 31.1478 14.408 31.5294 14.6893 31.8107C14.9706 32.092 15.3522 32.25 15.75 32.25H29.25C29.6478 32.25 30.0294 32.092 30.3107 31.8107C30.592 31.5294 30.75 31.1478 30.75 30.75V29.25H32.25C32.6478 29.25 33.0294 29.092 33.3107 28.8107C33.592 28.5294 33.75 28.1478 33.75 27.75V17.25C33.75 16.8522 33.592 16.4706 33.3107 16.1893C33.0294 15.908 32.6478 15.75 32.25 15.75ZM28.125 18.75C28.3475 18.75 28.565 18.816 28.75 18.9396C28.935 19.0632 29.0792 19.2389 29.1644 19.4445C29.2495 19.65 29.2718 19.8762 29.2284 20.0945C29.185 20.3127 29.0778 20.5132 28.9205 20.6705C28.7632 20.8278 28.5627 20.935 28.3445 20.9784C28.1262 21.0218 27.9 20.9995 27.6945 20.9144C27.4889 20.8292 27.3132 20.685 27.1896 20.5C27.066 20.315 27 20.0975 27 19.875C27 19.5766 27.1185 19.2905 27.3295 19.0795C27.5405 18.8685 27.8266 18.75 28.125 18.75ZM29.25 30.75H15.75V20.25H17.25V27.75C17.25 28.1478 17.408 28.5294 17.6893 28.8107C17.9706 29.092 18.3522 29.25 18.75 29.25H29.25V30.75ZM32.25 27.75H18.75V23.3147L21.5944 20.4694C21.664 20.3996 21.7467 20.3443 21.8378 20.3066C21.9288 20.2688 22.0264 20.2494 22.125 20.2494C22.2236 20.2494 22.3212 20.2688 22.4122 20.3066C22.5033 20.3443 22.586 20.3996 22.6556 20.4694L27.3103 25.125L29.7188 22.7194C29.8594 22.5788 30.0501 22.4999 30.2489 22.4999C30.4477 22.4999 30.6384 22.5788 30.7791 22.7194L32.25 24.1941V27.75Z" fill="#DC6339"/>
</svg>
