<svg width="48" height="48" viewBox="0 0 48 48" fill="none" xmlns="http://www.w3.org/2000/svg">
<rect width="48" height="48" rx="9.6" fill="#FFA788" fill-opacity="0.4"/>
<path d="M32.25 14.25H15.75C15.3522 14.25 14.9706 14.408 14.6893 14.6893C14.408 14.9706 14.25 15.3522 14.25 15.75V32.25C14.25 32.6478 14.408 33.0294 14.6893 33.3107C14.9706 33.592 15.3522 33.75 15.75 33.75H32.25C32.6478 33.75 33.0294 33.592 33.3107 33.3107C33.592 33.0294 33.75 32.6478 33.75 32.25V15.75C33.75 15.3522 33.592 14.9706 33.3107 14.6893C33.0294 14.408 32.6478 14.25 32.25 14.25ZM21 28.5C21 28.6989 20.921 28.8897 20.7803 29.0303C20.6397 29.171 20.4489 29.25 20.25 29.25C20.0511 29.25 19.8603 29.171 19.7197 29.0303C19.579 28.8897 19.5 28.6989 19.5 28.5V22.5C19.5 22.3011 19.579 22.1103 19.7197 21.9697C19.8603 21.829 20.0511 21.75 20.25 21.75C20.4489 21.75 20.6397 21.829 20.7803 21.9697C20.921 22.1103 21 22.3011 21 22.5V28.5ZM20.25 21C20.0275 21 19.81 20.934 19.625 20.8104C19.44 20.6868 19.2958 20.5111 19.2106 20.3055C19.1255 20.1 19.1032 19.8738 19.1466 19.6555C19.19 19.4373 19.2972 19.2368 19.4545 19.0795C19.6118 18.9222 19.8123 18.815 20.0305 18.7716C20.2488 18.7282 20.475 18.7505 20.6805 18.8356C20.8861 18.9208 21.0618 19.065 21.1854 19.25C21.309 19.435 21.375 19.6525 21.375 19.875C21.375 20.1734 21.2565 20.4595 21.0455 20.6705C20.8345 20.8815 20.5484 21 20.25 21ZM29.25 28.5C29.25 28.6989 29.171 28.8897 29.0303 29.0303C28.8897 29.171 28.6989 29.25 28.5 29.25C28.3011 29.25 28.1103 29.171 27.9697 29.0303C27.829 28.8897 27.75 28.6989 27.75 28.5V25.125C27.75 24.6277 27.5525 24.1508 27.2008 23.7992C26.8492 23.4475 26.3723 23.25 25.875 23.25C25.3777 23.25 24.9008 23.4475 24.5492 23.7992C24.1975 24.1508 24 24.6277 24 25.125V28.5C24 28.6989 23.921 28.8897 23.7803 29.0303C23.6397 29.171 23.4489 29.25 23.25 29.25C23.0511 29.25 22.8603 29.171 22.7197 29.0303C22.579 28.8897 22.5 28.6989 22.5 28.5V22.5C22.5009 22.3163 22.5693 22.1393 22.692 22.0026C22.8148 21.866 22.9834 21.7791 23.166 21.7585C23.3485 21.7379 23.5323 21.7851 23.6824 21.891C23.8325 21.9969 23.9385 22.1542 23.9803 22.3331C24.4877 21.9889 25.0792 21.7895 25.6914 21.7561C26.3036 21.7228 26.9133 21.8568 27.455 22.1438C27.9968 22.4308 28.4501 22.86 28.7664 23.3852C29.0826 23.9105 29.2498 24.5119 29.25 25.125V28.5Z" fill="#DC6339"/>
</svg>
