<svg width="48" height="48" viewBox="0 0 48 48" fill="none" xmlns="http://www.w3.org/2000/svg">
<rect width="48" height="48" rx="9.6" fill="#FFA788" fill-opacity="0.4"/>
<path d="M24 14.25C22.0716 14.25 20.1866 14.8218 18.5832 15.8932C16.9798 16.9645 15.7301 18.4873 14.9922 20.2688C14.2542 22.0504 14.0611 24.0108 14.4373 25.9021C14.8136 27.7934 15.7422 29.5307 17.1057 30.8943C18.4693 32.2579 20.2066 33.1865 22.0979 33.5627C23.9892 33.9389 25.9496 33.7458 27.7312 33.0078C29.5127 32.2699 31.0355 31.0202 32.1068 29.4168C33.1782 27.8134 33.75 25.9284 33.75 24C33.75 21.4141 32.7228 18.9342 30.8943 17.1057C29.0658 15.2772 26.5859 14.25 24 14.25ZM24 31.5C22.7843 31.4999 21.5869 31.2042 20.5108 30.6385C19.4348 30.0729 18.5124 29.2541 17.8231 28.2527C17.1337 27.2514 16.6981 26.0975 16.5538 24.8904C16.4095 23.6833 16.5608 22.4592 16.9946 21.3236C17.4284 20.1879 18.1318 19.1748 19.0442 18.3713C19.9565 17.5679 21.0505 16.9983 22.2319 16.7116C23.4133 16.4249 24.6466 16.4296 25.8258 16.7254C27.0049 17.0212 28.0945 17.5993 29.0006 18.4097C29.1452 18.5433 29.2314 18.7284 29.2407 18.925C29.2501 19.1216 29.1817 19.314 29.0504 19.4607C28.9191 19.6074 28.7354 19.6965 28.539 19.709C28.3425 19.7214 28.1491 19.6561 28.0003 19.5272C27.0004 18.6328 25.7296 18.0994 24.3909 18.012C23.0522 17.9247 21.7229 18.2885 20.6152 19.0454C19.5076 19.8022 18.6855 20.9085 18.2804 22.1874C17.8753 23.4663 17.9104 24.844 18.3803 26.1006C18.8501 27.3572 19.7275 28.4201 20.8723 29.1194C22.0171 29.8188 23.3633 30.1144 24.6958 29.9588C26.0283 29.8033 27.2702 29.2057 28.2232 28.2615C29.1762 27.3173 29.7853 26.081 29.9531 24.75H24C23.8011 24.75 23.6103 24.671 23.4697 24.5303C23.329 24.3897 23.25 24.1989 23.25 24C23.25 23.8011 23.329 23.6103 23.4697 23.4697C23.6103 23.329 23.8011 23.25 24 23.25H30.75C30.9489 23.25 31.1397 23.329 31.2803 23.4697C31.421 23.6103 31.5 23.8011 31.5 24C31.4978 25.9884 30.7069 27.8948 29.3008 29.3008C27.8948 30.7069 25.9884 31.4978 24 31.5Z" fill="#DC6339"/>
</svg>
