<svg width="48" height="48" viewBox="0 0 48 48" fill="none" xmlns="http://www.w3.org/2000/svg">
<rect width="48" height="48" rx="9.6" fill="#FFA788" fill-opacity="0.4"/>
<path d="M34.6564 16.3433L31.6564 13.3433C31.5156 13.2026 31.3248 13.1235 31.1258 13.1235C30.9267 13.1235 30.7359 13.2026 30.5951 13.3433C30.4544 13.4841 30.3753 13.6749 30.3753 13.874C30.3753 14.073 30.4544 14.2638 30.5951 14.4046L30.7339 14.5424L25.5617 18.4218L21.9786 19.139C21.8335 19.168 21.7001 19.2391 21.5951 19.3433L13.782 27.1546C13.3601 27.5765 13.123 28.1488 13.123 28.7455C13.123 29.3422 13.3601 29.9145 13.782 30.3365L17.6633 34.2177C18.0852 34.6396 18.6575 34.8767 19.2542 34.8767C19.8509 34.8767 20.4232 34.6396 20.8451 34.2177L28.6564 26.4074C28.7608 26.3025 28.832 26.1691 28.8608 26.024L29.5779 22.4408L33.4573 17.2686L33.5951 17.4074C33.6648 17.4771 33.7475 17.5323 33.8386 17.5701C33.9296 17.6078 34.0272 17.6272 34.1258 17.6272C34.2243 17.6272 34.3219 17.6078 34.4129 17.5701C34.504 17.5323 34.5867 17.4771 34.6564 17.4074C34.7261 17.3377 34.7813 17.255 34.819 17.1639C34.8568 17.0729 34.8762 16.9753 34.8762 16.8768C34.8762 16.7782 34.8568 16.6806 34.819 16.5896C34.7813 16.4985 34.7261 16.4158 34.6564 16.3461V16.3433ZM19.2542 33.374C19.1558 33.3742 19.0583 33.355 18.9674 33.3173C18.8765 33.2797 18.7939 33.2243 18.7245 33.1546L14.8451 29.2752C14.7046 29.1346 14.6256 28.9439 14.6256 28.745C14.6256 28.5462 14.7046 28.3555 14.8451 28.2149L15.3758 27.6843L20.3154 32.624L19.782 33.1546C19.6419 33.2945 19.4522 33.3734 19.2542 33.374ZM28.2758 21.674C28.2085 21.7634 28.1624 21.8669 28.1408 21.9768L27.4348 25.5046L26.6258 26.3136L21.6861 21.374L22.4951 20.5649L26.0229 19.859C26.1328 19.8374 26.2363 19.7912 26.3258 19.724L31.8054 15.614L32.3858 16.1943L28.2758 21.674Z" fill="#DC6339"/>
</svg>
