<svg width="48" height="48" viewBox="0 0 48 48" fill="none" xmlns="http://www.w3.org/2000/svg">
<rect width="48" height="48" rx="9.6" fill="#FFA788" fill-opacity="0.4"/>
<path d="M20.3037 15.2811C20.2291 15.0964 20.2309 14.8896 20.3088 14.7062C20.3867 14.5228 20.5342 14.3779 20.719 14.3033C20.9037 14.2287 21.1105 14.2306 21.2939 14.3085C21.4773 14.3864 21.6222 14.5339 21.6968 14.7186L22.4468 16.5936C22.4837 16.6851 22.5023 16.783 22.5014 16.8816C22.5005 16.9803 22.4802 17.0778 22.4416 17.1686C22.4031 17.2594 22.347 17.3417 22.2766 17.4108C22.2062 17.4799 22.1229 17.5345 22.0315 17.5715C21.94 17.6084 21.8421 17.6269 21.7435 17.6261C21.6448 17.6252 21.5473 17.6049 21.4565 17.5663C21.3657 17.5277 21.2834 17.4717 21.2143 17.4013C21.1452 17.3309 21.0906 17.2476 21.0537 17.1561L20.3037 15.2811ZM14.719 21.6965L16.594 22.4465C16.6854 22.4834 16.7833 22.5019 16.8819 22.5011C16.9806 22.5002 17.0781 22.4799 17.1689 22.4413C17.2597 22.4027 17.342 22.3467 17.4111 22.2763C17.4803 22.2059 17.5348 22.1226 17.5718 22.0311C17.6087 21.9397 17.6273 21.8418 17.6264 21.7432C17.6255 21.6445 17.6052 21.547 17.5666 21.4562C17.5281 21.3654 17.472 21.2831 17.4016 21.214C17.3312 21.1449 17.2479 21.0903 17.1565 21.0533L15.2815 20.3033C15.0967 20.2287 14.8899 20.2306 14.7065 20.3085C14.5232 20.3864 14.3782 20.5339 14.3037 20.7186C14.2291 20.9034 14.2309 21.1102 14.3088 21.2936C14.3867 21.4769 14.5342 21.6219 14.719 21.6965ZM33.2815 26.3033L31.4065 25.5533C31.2217 25.4787 31.0149 25.4806 30.8315 25.5585C30.6482 25.6364 30.5032 25.7839 30.4287 25.9686C30.3541 26.1534 30.3559 26.3602 30.4338 26.5436C30.5117 26.7269 30.6592 26.8719 30.844 26.9465L32.719 27.6965C32.9037 27.771 33.1105 27.7692 33.2939 27.6913C33.4773 27.6134 33.6222 27.4659 33.6968 27.2811C33.7714 27.0964 33.7695 26.8896 33.6916 26.7062C33.6137 26.5228 33.4662 26.3779 33.2815 26.3033ZM26.9468 30.8436C26.8722 30.6589 26.7273 30.5114 26.5439 30.4335C26.3605 30.3556 26.1537 30.3537 25.969 30.4283C25.7842 30.5029 25.6367 30.6478 25.5588 30.8312C25.4809 31.0146 25.4791 31.2214 25.5537 31.4061L26.3037 33.2811C26.3782 33.4659 26.5232 33.6134 26.7065 33.6913C26.8899 33.7692 27.0967 33.771 27.2815 33.6965C27.4662 33.6219 27.6137 33.4769 27.6916 33.2936C27.7695 33.1102 27.7714 32.9034 27.6968 32.7186L26.9468 30.8436ZM34.3043 13.7361C34.2355 13.6627 34.1526 13.6039 34.0606 13.5632C33.9686 13.5225 33.8694 13.5007 33.7688 13.4991C33.6682 13.4975 33.5683 13.5162 33.4751 13.554C33.3819 13.5919 33.2972 13.6481 33.2262 13.7193L28.3127 18.6327L27.8083 18.1283C27.5297 17.8494 27.1989 17.6281 26.8347 17.4772C26.4705 17.3262 26.0801 17.2485 25.6858 17.2485C25.2916 17.2485 24.9012 17.3262 24.537 17.4772C24.1728 17.6281 23.842 17.8494 23.5633 18.1283L21.9508 19.738C21.916 19.7728 21.8883 19.8142 21.8694 19.8597C21.8506 19.9053 21.8409 19.954 21.8409 20.0033C21.8409 20.0526 21.8506 20.1014 21.8694 20.1469C21.8883 20.1925 21.916 20.2338 21.9508 20.2686L27.7352 26.0493C27.77 26.0841 27.8114 26.1118 27.8569 26.1307C27.9025 26.1495 27.9512 26.1593 28.0005 26.1593C28.0498 26.1593 28.0986 26.1495 28.1441 26.1307C28.1897 26.1118 28.231 26.0841 28.2658 26.0493L29.8352 24.4799C30.404 23.9221 30.7338 23.165 30.7549 22.3686C30.7627 21.966 30.6888 21.566 30.5379 21.1927C30.3869 20.8194 30.1619 20.4805 29.8765 20.1965L29.3721 19.693L34.2658 14.8021C34.4085 14.6637 34.4921 14.4755 34.4993 14.2768C34.5064 14.0782 34.4366 13.8845 34.3043 13.7361ZM20.029 20.4693C19.9579 20.3982 19.8733 20.3421 19.7802 20.3044C19.687 20.2667 19.5873 20.248 19.4868 20.2496C19.3863 20.2512 19.2872 20.2729 19.1953 20.3136C19.1034 20.3542 19.0206 20.4129 18.9518 20.4861C18.8195 20.6345 18.7496 20.8282 18.7568 21.0268C18.7639 21.2255 18.8476 21.4137 18.9902 21.5521L19.563 22.1249L18.1258 23.5602C17.841 23.8444 17.6166 24.1832 17.4661 24.5563C17.3156 24.9295 17.2422 25.3292 17.2502 25.7315C17.27 26.5277 17.5984 27.285 18.1662 27.8436L18.6349 28.3068L13.7337 33.1996C13.5954 33.3343 13.5127 33.516 13.5021 33.7087C13.4915 33.9015 13.5538 34.0912 13.6765 34.2402C13.7438 34.3184 13.8266 34.3818 13.9197 34.4265C14.0127 34.4712 14.1139 34.4962 14.217 34.5C14.3202 34.5038 14.423 34.4863 14.519 34.4485C14.6151 34.4107 14.7023 34.3535 14.7752 34.2805L19.6877 29.3671L20.1912 29.8715C20.7551 30.4328 21.5184 30.7479 22.3141 30.7479C23.1098 30.7479 23.8731 30.4328 24.4371 29.8715L25.8752 28.4352L26.4696 29.0305C26.5393 29.1002 26.622 29.1555 26.713 29.1932C26.8041 29.2309 26.9017 29.2503 27.0002 29.2503C27.0988 29.2503 27.1963 29.2309 27.2874 29.1932C27.3784 29.1555 27.4612 29.1002 27.5308 29.0305C27.6005 28.9608 27.6558 28.8781 27.6935 28.7871C27.7312 28.696 27.7506 28.5984 27.7506 28.4999C27.7506 28.4013 27.7312 28.3038 27.6935 28.2127C27.6558 28.1217 27.6005 28.0389 27.5308 27.9693L20.029 20.4693Z" fill="#DC6339"/>
</svg>
