<svg width="45" height="57" viewBox="0 0 45 57" fill="none" xmlns="http://www.w3.org/2000/svg">
<path d="M34.7728 54.9645C34.7728 55.5044 34.5573 56.0221 34.1737 56.4038C33.7901 56.7855 33.2698 57 32.7273 57H12.273C11.7305 57 11.2102 56.7855 10.8266 56.4038C10.443 56.0221 10.2275 55.5044 10.2275 54.9645C10.2275 54.4247 10.443 53.9069 10.8266 53.5252C11.2102 53.1435 11.7305 52.929 12.273 52.929H32.7273C33.2698 52.929 33.7901 53.1435 34.1737 53.5252C34.5573 53.9069 34.7728 54.4247 34.7728 54.9645ZM44.9999 22.3968C45.0087 25.7901 44.2384 29.1405 42.7478 32.1923C41.2572 35.2442 39.0856 37.9168 36.3989 40.0063C35.8965 40.3895 35.4888 40.8819 35.207 41.4459C34.9251 42.0099 34.7766 42.6306 34.7728 43.2605V44.7871C34.7728 45.8668 34.3417 46.9023 33.5746 47.6657C32.8074 48.4292 31.7668 48.8581 30.6819 48.8581H14.3184C13.2334 48.8581 12.1929 48.4292 11.4257 47.6657C10.6585 46.9023 10.2275 45.8668 10.2275 44.7871V43.2605C10.2271 42.6381 10.0833 42.0242 9.80715 41.4658C9.53102 40.9073 9.1299 40.4194 8.63463 40.0393C5.9546 37.9623 3.78451 35.3057 2.28861 32.2707C0.792713 29.2357 0.0102113 25.9019 0.000334555 22.5215C-0.0661421 10.3951 9.78263 0.296555 21.9581 0.00649875C24.9581 -0.0654436 27.9423 0.460547 30.7349 1.55351C33.5276 2.64647 36.0724 4.28433 38.2194 6.37067C40.3665 8.457 42.0724 10.9497 43.2369 13.702C44.4014 16.4542 45.0008 19.4105 44.9999 22.3968ZM32.129 22.9922C31.9391 22.8029 31.7135 22.6528 31.4652 22.5504C31.2168 22.4479 30.9507 22.3952 30.6819 22.3952C30.4131 22.3952 30.1469 22.4479 29.8986 22.5504C29.6503 22.6528 29.4247 22.8029 29.2347 22.9922L22.5001 29.6966L15.7655 22.9922C15.3817 22.6102 14.8612 22.3957 14.3184 22.3957C13.7756 22.3957 13.255 22.6102 12.8712 22.9922C12.4874 23.3741 12.2718 23.8921 12.2718 24.4323C12.2718 24.9724 12.4874 25.4905 12.8712 25.8724L20.4547 33.4164V42.7516C20.4547 43.2915 20.6702 43.8092 21.0538 44.1909C21.4374 44.5727 21.9576 44.7871 22.5001 44.7871C23.0426 44.7871 23.5629 44.5727 23.9465 44.1909C24.3301 43.8092 24.5456 43.2915 24.5456 42.7516V33.4164L32.129 25.8724C32.3192 25.6833 32.4701 25.4589 32.573 25.2118C32.6759 24.9647 32.7289 24.6998 32.7289 24.4323C32.7289 24.1648 32.6759 23.8999 32.573 23.6528C32.4701 23.4057 32.3192 23.1812 32.129 22.9922Z" fill="white"/>
</svg>
