<svg width="58" height="58" viewBox="0 0 58 58" fill="none" xmlns="http://www.w3.org/2000/svg">
<path d="M40.1527 24.5474C40.1527 27.6348 39.2369 30.6529 37.5211 33.2201C35.8053 35.7872 33.3666 37.788 30.5133 38.9695C27.6601 40.151 24.5205 40.4602 21.4915 39.8578C18.4625 39.2555 15.6802 37.7688 13.4964 35.5856C11.3126 33.4024 9.82542 30.6209 9.22292 27.5928C8.62041 24.5647 8.92964 21.426 10.1115 18.5735C11.2933 15.7211 13.2947 13.2831 15.8626 11.5678C18.4305 9.85251 21.4494 8.93698 24.5378 8.93698C28.6791 8.93698 32.6508 10.5816 35.5792 13.5092C38.5075 16.4367 40.1527 20.4072 40.1527 24.5474ZM57.3458 57.346C57.1386 57.5533 56.8926 57.7178 56.6218 57.83C56.351 57.9422 56.0607 58 55.7675 58C55.4744 58 55.1841 57.9422 54.9133 57.83C54.6425 57.7178 54.3965 57.5533 54.1893 57.346L40.2307 43.3886C35.3765 47.4258 29.1522 49.4369 22.8526 49.0034C16.5531 48.5699 10.6632 45.7252 6.40802 41.0611C2.15288 36.397 -0.139891 30.2725 0.0066122 23.9615C0.153115 17.6505 2.72761 11.639 7.1946 7.1772C11.6616 2.71544 17.6772 0.147 23.9901 0.0061164C30.303 -0.134767 36.4272 2.16276 41.0889 6.42079C45.7506 10.6788 48.5909 16.5696 49.0189 22.8677C49.447 29.1659 47.4299 35.3865 43.3872 40.2358L57.3458 54.1904C57.5532 54.3975 57.7177 54.6435 57.83 54.9142C57.9422 55.1849 58 55.4751 58 55.7682C58 56.0613 57.9422 56.3514 57.83 56.6222C57.7177 56.8929 57.5532 57.1388 57.3458 57.346ZM24.5378 44.6179C28.5085 44.6179 32.39 43.4408 35.6916 41.2354C38.9931 39.03 41.5663 35.8954 43.0858 32.228C44.6054 28.5606 45.0029 24.5251 44.2283 20.6318C43.4537 16.7385 41.5416 13.1623 38.7338 10.3554C35.9261 7.54847 32.3489 5.63694 28.4545 4.86251C24.56 4.08809 20.5234 4.48555 16.8549 6.00464C13.1864 7.52373 10.051 10.0962 7.84495 13.3968C5.63894 16.6974 4.46148 20.5778 4.46148 24.5474C4.46739 29.8686 6.58446 34.9702 10.3482 38.7329C14.112 42.4955 19.215 44.612 24.5378 44.6179Z" fill="white"/>
</svg>
