<svg width="57" height="57" viewBox="0 0 57 57" fill="none" xmlns="http://www.w3.org/2000/svg">
<path d="M28.509 6.78726e-07C23.588 -0.00107303 18.7507 1.27178 14.4677 3.69467C10.1847 6.11755 6.60199 9.60793 4.06833 13.8261C1.53467 18.0442 0.136352 22.8464 0.00947701 27.7652C-0.117398 32.684 1.0315 37.5519 3.34433 41.895L0.233695 51.226C-0.0239679 51.9986 -0.0613608 52.8276 0.125708 53.6202C0.312776 54.4128 0.716913 55.1377 1.29282 55.7135C1.86873 56.2894 2.59365 56.6935 3.38634 56.8805C4.17902 57.0676 5.00814 57.0302 5.78077 56.7725L15.1127 53.6622C18.9352 55.6952 23.1708 56.8306 27.4977 56.9825C31.8247 57.1343 36.1294 56.2984 40.0851 54.5384C44.0408 52.7783 47.5435 50.1403 50.3273 46.8246C53.1111 43.5089 55.1029 39.6026 56.1515 35.4023C57.2 31.202 57.2779 26.818 56.379 22.5831C55.4801 18.3482 53.6281 14.3737 50.9637 10.9613C48.2993 7.54893 44.8924 4.78833 41.0017 2.88906C37.1109 0.989795 32.8386 0.0017764 28.509 6.78726e-07ZM37.279 35.0769H19.7389C19.1574 35.0769 18.5997 34.8459 18.1885 34.4348C17.7774 34.0237 17.5464 33.4661 17.5464 32.8846C17.5464 32.3032 17.7774 31.7456 18.1885 31.3344C18.5997 30.9233 19.1574 30.6923 19.7389 30.6923H37.279C37.8605 30.6923 38.4182 30.9233 38.8294 31.3344C39.2406 31.7456 39.4715 32.3032 39.4715 32.8846C39.4715 33.4661 39.2406 34.0237 38.8294 34.4348C38.4182 34.8459 37.8605 35.0769 37.279 35.0769ZM37.279 26.3077H19.7389C19.1574 26.3077 18.5997 26.0767 18.1885 25.6656C17.7774 25.2544 17.5464 24.6968 17.5464 24.1154C17.5464 23.5339 17.7774 22.9763 18.1885 22.5652C18.5997 22.1541 19.1574 21.9231 19.7389 21.9231H37.279C37.8605 21.9231 38.4182 22.1541 38.8294 22.5652C39.2406 22.9763 39.4715 23.5339 39.4715 24.1154C39.4715 24.6968 39.2406 25.2544 38.8294 25.6656C38.4182 26.0767 37.8605 26.3077 37.279 26.3077Z" fill="white"/>
</svg>
