<svg width="63" height="62" viewBox="0 0 63 62" fill="none" xmlns="http://www.w3.org/2000/svg">
<path d="M22.3129 51.4468C22.3129 53.534 21.6971 55.5744 20.5434 57.3098C19.3897 59.0453 17.7499 60.3979 15.8314 61.1967C13.9129 61.9954 11.8018 62.2044 9.76506 61.7972C7.72835 61.39 5.85752 60.3849 4.38913 58.909C2.92075 57.4331 1.92077 55.5527 1.51564 53.5056C1.11052 51.4585 1.31844 49.3366 2.11313 47.4083C2.90781 45.4799 4.25356 43.8317 5.98019 42.6721C7.70683 41.5125 9.7368 40.8936 11.8134 40.8936C14.5981 40.8936 17.2686 42.0055 19.2377 43.9846C21.2067 45.9637 22.3129 48.6479 22.3129 51.4468ZM4.48344 28.2496L9.18853 23.5171L13.8936 28.2496C14.3862 28.7446 15.0542 29.0227 15.7507 29.0227C16.4473 29.0227 17.1153 28.7446 17.6078 28.2496C18.1004 27.7545 18.3771 27.0831 18.3771 26.383C18.3771 25.6829 18.1004 25.0114 17.6078 24.5164L12.8995 19.7872L17.6078 15.0581C18.1004 14.563 18.3771 13.8916 18.3771 13.1915C18.3771 12.4914 18.1004 11.8199 17.6078 11.3249C17.1153 10.8298 16.4473 10.5517 15.7507 10.5517C15.0542 10.5517 14.3862 10.8298 13.8936 11.3249L9.18853 16.0573L4.48344 11.3249C3.99091 10.8298 3.32289 10.5517 2.62634 10.5517C1.92979 10.5517 1.26177 10.8298 0.769236 11.3249C0.276702 11.8199 1.03794e-08 12.4914 0 13.1915C-1.03794e-08 13.8916 0.276702 14.563 0.769236 15.0581L5.47761 19.7872L0.769236 24.5164C0.276702 25.0114 -5.18969e-09 25.6829 0 26.383C5.18969e-09 27.0831 0.276702 27.7545 0.769236 28.2496C1.26177 28.7446 1.92979 29.0227 2.62634 29.0227C3.32289 29.0227 3.99091 28.7446 4.48344 28.2496ZM57.5224 51.4468L62.2308 46.7177C62.7233 46.2226 63 45.5512 63 44.8511C63 44.1509 62.7233 43.4795 62.2308 42.9845C61.7382 42.4894 61.0702 42.2113 60.3737 42.2113C59.6771 42.2113 59.0091 42.4894 58.5166 42.9845L53.8115 47.7169L49.1064 42.9845C48.6138 42.4894 47.9458 42.2113 47.2493 42.2113C46.5527 42.2113 45.8847 42.4894 45.3922 42.9845C44.8996 43.4795 44.6229 44.1509 44.6229 44.8511C44.6229 45.5512 44.8996 46.2226 45.3922 46.7177L50.1005 51.4468L45.3922 56.1759C44.8996 56.671 44.6229 57.3424 44.6229 58.0425C44.6229 58.7427 44.8996 59.4141 45.3922 59.9091C45.8847 60.4042 46.5527 60.6823 47.2493 60.6823C47.9458 60.6823 48.6138 60.4042 49.1064 59.9091L53.8115 55.1767L58.5166 59.9091C58.7604 60.1543 59.05 60.3487 59.3686 60.4814C59.6872 60.614 60.0288 60.6823 60.3737 60.6823C60.7186 60.6823 61.0601 60.614 61.3787 60.4814C61.6974 60.3487 61.9869 60.1543 62.2308 59.9091C62.4746 59.664 62.6681 59.373 62.8001 59.0527C62.9321 58.7325 63 58.3892 63 58.0425C63 57.6959 62.9321 57.3526 62.8001 57.0324C62.6681 56.7121 62.4746 56.4211 62.2308 56.1759L57.5224 51.4468ZM41.2317 6.0483L40.4607 5.2766H47.2493C47.9454 5.2766 48.6131 4.99863 49.1053 4.50386C49.5976 4.00908 49.8741 3.33802 49.8741 2.6383C49.8741 1.93858 49.5976 1.26752 49.1053 0.77274C48.6131 0.277963 47.9454 0 47.2493 0H34.1249C33.4287 0 32.7611 0.277963 32.2688 0.77274C31.7765 1.26752 31.5 1.93858 31.5 2.6383V15.8298C31.5 16.5295 31.7765 17.2006 32.2688 17.6953C32.7611 18.1901 33.4287 18.4681 34.1249 18.4681C34.821 18.4681 35.4887 18.1901 35.9809 17.6953C36.4732 17.2006 36.7498 16.5295 36.7498 15.8298V9.00649L37.5175 9.78149C43.4005 15.6946 43.3907 21.456 42.344 25.2485C40.8216 30.779 35.9918 35.7258 30.8602 37.0153C30.2388 37.1719 29.6958 37.5514 29.3335 38.0825C28.9712 38.6135 28.8146 39.2594 28.8933 39.8984C28.972 40.5375 29.2804 41.1255 29.7606 41.5518C30.2407 41.9781 30.8594 42.2132 31.5 42.2128C31.7157 42.2125 31.9305 42.1859 32.1398 42.1336C39.099 40.3857 45.379 34.0208 47.4068 26.6567C49.4082 19.3849 47.2165 12.0669 41.2317 6.0483Z" fill="white"/>
</svg>
