<svg width="24" height="32" viewBox="0 0 24 32" fill="none" xmlns="http://www.w3.org/2000/svg">
<path d="M23.7105 15.6647L8.43605 31.6627C8.27418 31.8316 8.06052 31.9444 7.82731 31.9841C7.5941 32.0239 7.35399 31.9884 7.14321 31.8831C6.93243 31.7777 6.76243 31.6082 6.65885 31.4001C6.55527 31.192 6.52374 30.9566 6.56902 30.7295L8.56834 20.9534L0.708792 18.0684C0.539997 18.0067 0.389472 17.9051 0.270663 17.7726C0.151855 17.6401 0.0684635 17.481 0.0279401 17.3093C-0.0125834 17.1376 -0.00897689 16.9588 0.0384371 16.7889C0.085851 16.6189 0.175595 16.4631 0.299653 16.3353L15.5742 0.337282C15.736 0.168417 15.9497 0.0555983 16.1829 0.0158509C16.4161 -0.0238965 16.6562 0.0115837 16.867 0.116938C17.0778 0.222291 17.2478 0.391802 17.3513 0.599891C17.4549 0.80798 17.4865 1.04336 17.4412 1.2705L15.4364 11.0573L23.296 13.9383C23.4635 14.0004 23.6128 14.1019 23.7307 14.2339C23.8486 14.3658 23.9314 14.5241 23.9719 14.6947C24.0123 14.8654 24.0091 15.0432 23.9626 15.2123C23.9161 15.3815 23.8276 15.5369 23.7051 15.6647H23.7105Z" fill="white"/>
</svg>
