<svg width="13" height="14" viewBox="0 0 13 14" fill="none" xmlns="http://www.w3.org/2000/svg">
<line x1="0.5" y1="8.21582" x2="0.5" y2="12.3606" stroke="white" stroke-linecap="round"/>
<line x1="12.0762" y1="8.21582" x2="12.0762" y2="12.3606" stroke="white" stroke-linecap="round"/>
<line x1="0.5" y1="13.0024" x2="12.362" y2="13.0024" stroke="white" stroke-linecap="round"/>
<path d="M6.07809 8.71383C6.27335 8.90909 6.58993 8.90909 6.78519 8.71383L9.96717 5.53185C10.1624 5.33659 10.1624 5.02001 9.96717 4.82474C9.77191 4.62948 9.45533 4.62948 9.26007 4.82474L6.43164 7.65317L3.60321 4.82474C3.40795 4.62948 3.09137 4.62948 2.89611 4.82474C2.70084 5.02001 2.70084 5.33659 2.89611 5.53185L6.07809 8.71383ZM5.93164 2.18557e-08L5.93164 8.36028L6.93164 8.36028L6.93164 -2.18557e-08L5.93164 2.18557e-08Z" fill="white"/>
</svg>
