<svg width="34" height="34" viewBox="0 0 34 34" fill="none" xmlns="http://www.w3.org/2000/svg">
<g clip-path="url(#clip0_101_6860)">
<path d="M16.8546 7.02304C11.4006 7.02304 6.14464 9.31814 2.43232 13.3184C2.15561 13.6162 1.77918 13.7679 1.40275 13.7679C1.06004 13.7679 0.717317 13.6443 0.447636 13.3928C-0.121222 12.8661 -0.154932 11.977 0.373193 11.4082C4.61504 6.83623 10.6211 4.21387 16.8546 4.21387C20.8057 4.21387 24.6922 5.25326 28.0927 7.22109C28.7641 7.61016 28.9945 8.46976 28.604 9.14116C28.2177 9.81255 27.3581 10.0415 26.6853 9.65383C23.7118 7.93321 20.3127 7.02304 16.8546 7.02304ZM19.3211 17.1585C20.0697 17.3453 20.8366 16.8931 21.0262 16.1388C21.2159 15.3859 20.7608 14.6233 20.0065 14.4336C18.9826 14.1752 17.9221 14.0446 16.8546 14.0446C13.2827 14.0446 9.84011 15.5475 7.41017 18.167C6.88205 18.7359 6.91576 19.625 7.48461 20.1517C7.75429 20.4031 8.09842 20.5267 8.43973 20.5267C8.81616 20.5267 9.19259 20.3764 9.4693 20.0773C11.9386 17.4142 15.8447 16.2821 19.3211 17.1585ZM33.2981 10.2438C32.7489 9.69456 31.8612 9.69456 31.312 10.2438L17.5738 23.982C17.3434 23.9202 17.1046 23.8781 16.8546 23.8781C15.3025 23.8781 14.0454 25.1352 14.0454 26.6873C14.0454 28.2393 15.3025 29.4964 16.8546 29.4964C18.4067 29.4964 19.6638 28.2393 19.6638 26.6873C19.6638 26.4372 19.6202 26.1999 19.5598 25.9681L33.2981 12.2298C33.8473 11.6806 33.8473 10.793 33.2981 10.2438Z" fill="white"/>
</g>
<defs>
<clipPath id="clip0_101_6860">
<rect width="33.7101" height="33.7101" fill="white"/>
</clipPath>
</defs>
</svg>
