<svg width="16" height="16" viewBox="0 0 16 16" fill="none" xmlns="http://www.w3.org/2000/svg">
<path d="M6.66667 14.6666H3.33333C2.23067 14.6666 1.33333 13.7692 1.33333 12.6665V8.66636C1.33333 7.56365 2.23067 6.66628 3.33333 6.66628H10C10.352 6.66628 10.6973 6.75895 10.9993 6.93295C11.3167 7.11696 11.7253 7.00829 11.91 6.69028C12.0947 6.3716 11.9853 5.96358 11.6673 5.77957C11.5593 5.7169 11.4473 5.66424 11.3333 5.6149V4.66686C11.3333 2.09342 9.23933 0 6.66667 0C4.094 0 2 2.09275 2 4.66619V5.61557C0.824667 6.13159 0 7.30297 0 8.66636V12.6665C0 14.5046 1.49533 16 3.33333 16H6.66667C7.03533 16 7.33333 15.7013 7.33333 15.3333C7.33333 14.9653 7.03533 14.6666 6.66667 14.6666ZM3.33333 4.66619C3.33333 2.82812 4.82867 1.33272 6.66667 1.33272C8.50467 1.33272 10 2.82812 10 4.66619V5.33289H3.33333V4.66619ZM12 7.99967C9.794 7.99967 8 9.79374 8 11.9998C8 14.2059 9.794 16 12 16C14.206 16 16 14.2059 16 11.9998C16 9.79374 14.206 7.99967 12 7.99967ZM13.8507 13.9132C13.554 13.1832 12.8413 12.6665 12.0053 12.6665H11.9947C11.1587 12.6665 10.4447 13.1819 10.1487 13.9119C9.648 13.4266 9.334 12.7505 9.334 11.9998C9.334 10.5291 10.53 9.33305 12.0007 9.33305C13.4713 9.33305 14.6673 10.5291 14.6673 11.9998C14.6673 12.7512 14.3527 13.4279 13.8513 13.9132H13.8507ZM13 10.9998C13 11.5518 12.552 11.9998 12 11.9998C11.448 11.9998 11 11.5518 11 10.9998C11 10.4478 11.448 9.99975 12 9.99975C12.552 9.99975 13 10.4478 13 10.9998ZM7.33333 9.99975V11.3331C7.33333 11.7012 7.03533 11.9998 6.66667 11.9998C6.298 11.9998 6 11.7012 6 11.3331V9.99975C6 9.63173 6.298 9.33305 6.66667 9.33305C7.03533 9.33305 7.33333 9.63173 7.33333 9.99975Z" fill="#1C1C1C"/>
</svg>
