<svg width="15" height="15" viewBox="0 0 15 15" fill="none" xmlns="http://www.w3.org/2000/svg">
<path d="M14.9742 7.72875L14.3367 2.72875C14.1381 1.17313 12.8068 0 11.2394 0H3.75993C2.19321 0 0.861911 1.17313 0.663339 2.72875L0.0251638 7.72875C-0.0884839 8.61938 0.186269 9.51625 0.779485 10.19C1.37208 10.8638 2.22568 11.25 3.12238 11.25H6.869V13.75H4.37125C4.02656 13.75 3.74681 14.0294 3.74681 14.375C3.74681 14.7206 4.02656 15 4.37125 15H10.6156C10.9603 15 11.2401 14.7206 11.2401 14.375C11.2401 14.0294 10.9603 13.75 10.6156 13.75H8.11788V11.25H11.8782C12.7749 11.25 13.6292 10.8638 14.2211 10.19C14.8137 9.51688 15.0879 8.61938 14.9742 7.72875ZM13.0978 2.8875L13.3675 5H10.2653L10.0312 1.25H11.2401C12.1805 1.25 12.9785 1.95375 13.0978 2.8875ZM5.65947 10L5.89363 6.25H9.09138L9.32554 10H5.65947ZM5.97169 5L6.20585 1.25H8.77916L9.01332 5H5.97169ZM3.75993 1.25H4.95448L4.72031 5H1.63247L1.90222 2.8875C2.02149 1.95375 2.82015 1.25 3.75993 1.25ZM1.71614 9.36375C1.36084 8.96 1.19598 8.42125 1.26342 7.8875L1.47261 6.25H4.64226L4.40809 10H3.12175C2.58411 10 2.07145 9.76813 1.71614 9.36375ZM13.2832 9.36375C12.9279 9.7675 12.4153 10 11.8776 10H10.5769L10.3428 6.25H13.5268L13.7359 7.8875C13.804 8.42125 13.6385 8.96 13.2832 9.36375Z" fill="#1C1C1C"/>
</svg>
