<svg width="17" height="17" viewBox="0 0 17 17" fill="none" xmlns="http://www.w3.org/2000/svg">
<path d="M13.4583 7.08333H4.95833V4.95833H6.02083C7.38792 4.95833 8.5 3.84625 8.5 2.47917C8.5 1.11208 7.38792 0 6.02083 0H2.47917C1.11208 0 0 1.11208 0 2.47917C0 3.84625 1.11208 4.95833 2.47917 4.95833H3.54167V7.08333C1.58879 7.08333 0 8.67212 0 10.625V13.4583C0 15.4112 1.58879 17 3.54167 17H13.4583C15.4112 17 17 15.4112 17 13.4583V10.625C17 8.67212 15.4112 7.08333 13.4583 7.08333ZM1.41667 2.47917C1.41667 1.89337 1.89337 1.41667 2.47917 1.41667H6.02083C6.60662 1.41667 7.08333 1.89337 7.08333 2.47917C7.08333 3.06496 6.60662 3.54167 6.02083 3.54167H2.47917C1.89337 3.54167 1.41667 3.06496 1.41667 2.47917ZM3.54167 8.5H13.4583C14.6299 8.5 15.5833 9.45342 15.5833 10.625V12.75H1.41667V10.625C1.41667 9.45342 2.37008 8.5 3.54167 8.5ZM13.4583 15.5833H3.54167C2.618 15.5833 1.83104 14.9912 1.5385 14.1667H15.4615C15.169 14.9912 14.382 15.5833 13.4583 15.5833ZM6.375 10.625C6.375 10.234 6.69233 9.91667 7.08333 9.91667C7.47433 9.91667 7.79167 10.234 7.79167 10.625C7.79167 11.016 7.47433 11.3333 7.08333 11.3333C6.69233 11.3333 6.375 11.016 6.375 10.625ZM3.54167 10.625C3.54167 10.234 3.859 9.91667 4.25 9.91667C4.641 9.91667 4.95833 10.234 4.95833 10.625C4.95833 11.016 4.641 11.3333 4.25 11.3333C3.859 11.3333 3.54167 11.016 3.54167 10.625ZM9.20833 10.625C9.20833 10.234 9.52567 9.91667 9.91667 9.91667C10.3077 9.91667 10.625 10.234 10.625 10.625C10.625 11.016 10.3077 11.3333 9.91667 11.3333C9.52567 11.3333 9.20833 11.016 9.20833 10.625ZM12.0417 10.625C12.0417 10.234 12.359 9.91667 12.75 9.91667C13.141 9.91667 13.4583 10.234 13.4583 10.625C13.4583 11.016 13.141 11.3333 12.75 11.3333C12.359 11.3333 12.0417 11.016 12.0417 10.625Z" fill="#1C1C1C"/>
</svg>
