<svg width="16" height="15" viewBox="0 0 16 15" fill="none" xmlns="http://www.w3.org/2000/svg">
<path d="M12.4201 3.75V2.5C12.4201 1.83696 12.1446 1.20107 11.6542 0.732233C11.1639 0.263392 10.4988 0 9.80533 0L5.8832 0C5.18972 0 4.52465 0.263392 4.03429 0.732233C3.54392 1.20107 3.26844 1.83696 3.26844 2.5V3.75C2.40192 3.75099 1.57118 4.08055 0.958451 4.66639C0.345724 5.25222 0.00103796 6.0465 0 6.875L0 10C0.00103796 10.8285 0.345724 11.6228 0.958451 12.2086C1.57118 12.7944 2.40192 13.124 3.26844 13.125C3.26844 13.6223 3.47505 14.0992 3.84283 14.4508C4.2106 14.8025 4.7094 15 5.22951 15H10.459C10.9791 15 11.4779 14.8025 11.8457 14.4508C12.2135 14.0992 12.4201 13.6223 12.4201 13.125C13.2866 13.124 14.1173 12.7944 14.7301 12.2086C15.3428 11.6228 15.6875 10.8285 15.6885 10V6.875C15.6875 6.0465 15.3428 5.25222 14.7301 4.66639C14.1173 4.08055 13.2866 3.75099 12.4201 3.75ZM4.57582 2.5C4.57582 2.16848 4.71356 1.85054 4.95874 1.61612C5.20392 1.3817 5.53646 1.25 5.8832 1.25H9.80533C10.1521 1.25 10.4846 1.3817 10.7298 1.61612C10.975 1.85054 11.1127 2.16848 11.1127 2.5V3.75H4.57582V2.5ZM11.1127 13.125C11.1127 13.2908 11.0438 13.4497 10.9212 13.5669C10.7987 13.6842 10.6324 13.75 10.459 13.75H5.22951C5.05614 13.75 4.88987 13.6842 4.76728 13.5669C4.64469 13.4497 4.57582 13.2908 4.57582 13.125V10.625C4.57582 10.4592 4.64469 10.3003 4.76728 10.1831C4.88987 10.0658 5.05614 10 5.22951 10H10.459C10.6324 10 10.7987 10.0658 10.9212 10.1831C11.0438 10.3003 11.1127 10.4592 11.1127 10.625V13.125ZM14.3811 10C14.3811 10.4973 14.1745 10.9742 13.8068 11.3258C13.439 11.6775 12.9402 11.875 12.4201 11.875V10.625C12.4201 10.1277 12.2135 9.65081 11.8457 9.29917C11.4779 8.94754 10.9791 8.75 10.459 8.75H5.22951C4.7094 8.75 4.2106 8.94754 3.84283 9.29917C3.47505 9.65081 3.26844 10.1277 3.26844 10.625V11.875C2.74834 11.875 2.24953 11.6775 1.88176 11.3258C1.51399 10.9742 1.30738 10.4973 1.30738 10V6.875C1.30738 6.37772 1.51399 5.90081 1.88176 5.54917C2.24953 5.19754 2.74834 5 3.26844 5H12.4201C12.9402 5 13.439 5.19754 13.8068 5.54917C14.1745 5.90081 14.3811 6.37772 14.3811 6.875V10Z" fill="#1C1C1C"/>
</svg>
