<svg width="16" height="16" viewBox="0 0 16 16" fill="none" xmlns="http://www.w3.org/2000/svg">
<path d="M14.6651 15.9993H12.6665C12.2978 15.9993 11.9998 15.7007 11.9998 15.3327C11.9998 14.9647 12.2978 14.6661 12.6665 14.6661H14.6651L10.6712 7.99633L6.66389 14.6727L8.66652 14.6661C9.03518 14.6661 9.33318 14.9647 9.33318 15.3327C9.33318 15.7007 9.03518 15.9993 8.66652 15.9993H6.66722C6.1839 15.9993 5.7519 15.7493 5.51124 15.33C5.27058 14.9114 5.27191 14.4121 5.51524 13.9941L9.51717 7.31103C9.75584 6.90305 10.1865 6.65639 10.6658 6.65639C11.1451 6.65639 11.5751 6.90371 11.8178 7.3177L15.8124 13.9881C16.0604 14.4121 16.0617 14.9114 15.8211 15.3307C15.5804 15.75 15.1477 15.9993 14.6651 15.9993ZM11.3331 13.3328V11.3329C11.3331 10.9649 11.0351 10.6662 10.6665 10.6662C10.2978 10.6662 9.99983 10.9649 9.99983 11.3329V13.3328C9.99983 13.7008 10.2978 13.9994 10.6665 13.9994C11.0351 13.9994 11.3331 13.7008 11.3331 13.3328ZM3.99993 15.3327C3.99993 14.9647 3.70127 14.6661 3.33328 14.6661C2.23063 14.6661 1.33331 13.7688 1.33331 12.6661V3.33319C1.33331 2.23057 2.23063 1.33328 3.33328 1.33328H12.6665C13.7691 1.33328 14.6664 2.23057 14.6664 3.33319V9.33294C14.6664 9.70093 14.9644 9.99958 15.3331 9.99958C15.7017 9.99958 15.9997 9.70093 15.9997 9.33294V3.33319C15.9997 1.49527 14.5044 0 12.6665 0H3.33328C1.49531 0 0 1.49527 0 3.33319V12.6661C0 14.5041 1.49531 15.9993 3.33328 15.9993C3.70127 15.9993 3.99993 15.7007 3.99993 15.3327ZM3.33328 2.66656C2.96528 2.66656 2.66662 2.96521 2.66662 3.33319C2.66662 3.70118 2.96528 3.99983 3.33328 3.99983C3.70127 3.99983 3.99993 3.70118 3.99993 3.33319C3.99993 2.96521 3.70127 2.66656 3.33328 2.66656ZM5.9999 2.66656C5.63191 2.66656 5.33324 2.96521 5.33324 3.33319C5.33324 3.70118 5.63191 3.99983 5.9999 3.99983C6.36789 3.99983 6.66655 3.70118 6.66655 3.33319C6.66655 2.96521 6.36789 2.66656 5.9999 2.66656ZM10.6665 14.6661C10.2985 14.6661 9.99983 14.9647 9.99983 15.3327C9.99983 15.7007 10.2985 15.9993 10.6665 15.9993C11.0345 15.9993 11.3331 15.7007 11.3331 15.3327C11.3331 14.9647 11.0345 14.6661 10.6665 14.6661Z" fill="#1C1C1C"/>
</svg>
