<svg width="16" height="18" viewBox="0 0 16 18" fill="none" xmlns="http://www.w3.org/2000/svg">
<path d="M12.3636 0H5.09091C3.6 0 2.32 0.93 1.76 2.25H0.727273C0.327273 2.25 0 2.5875 0 3C0 3.4125 0.327273 3.75 0.727273 3.75H1.45455V5.25H0.727273C0.327273 5.25 0 5.5875 0 6C0 6.4125 0.327273 6.75 0.727273 6.75H1.45455V8.25H0.727273C0.327273 8.25 0 8.5875 0 9C0 9.4125 0.327273 9.75 0.727273 9.75H1.45455V11.25H0.727273C0.327273 11.25 0 11.5875 0 12C0 12.4125 0.327273 12.75 0.727273 12.75H1.45455V14.25H0.727273C0.327273 14.25 0 14.5875 0 15C0 15.4125 0.327273 15.75 0.727273 15.75H1.76C2.32 17.07 3.60727 18 5.09091 18H12.3636C14.3709 18 16 16.32 16 14.25V3.75C16 1.68 14.3709 0 12.3636 0ZM2.90909 14.25V3.75C2.90909 2.5125 3.89091 1.5 5.09091 1.5V16.5C3.89091 16.5 2.90909 15.4875 2.90909 14.25ZM14.5455 14.25C14.5455 15.4875 13.5636 16.5 12.3636 16.5H6.54545V1.5H12.3636C13.5636 1.5 14.5455 2.5125 14.5455 3.75V14.25Z" fill="#1C1C1C"/>
</svg>
