<svg width="15" height="16" viewBox="0 0 15 16" fill="none" xmlns="http://www.w3.org/2000/svg">
<path d="M9.78243 15.3333C9.78243 15.7013 9.49091 16 9.13027 16H3.26081C1.4628 16 0 14.5047 0 12.6667V3.33333C0 1.49533 1.4628 0 3.26081 0H6.20532C7.42421 0 8.57071 0.485333 9.43352 1.36667L11.7057 3.69067C11.8824 3.87133 12.0467 4.06933 12.1935 4.27933C12.4028 4.57867 12.335 4.99533 12.0422 5.20933C11.7494 5.42267 11.3411 5.354 11.1324 5.054C11.0274 4.904 10.91 4.762 10.7842 4.634L8.51137 2.31C8.30398 2.098 8.07377 1.91867 7.82594 1.77333V4.66667C7.82594 5.034 8.11811 5.33333 8.47811 5.33333H10.4346C10.7952 5.33333 11.0868 5.632 11.0868 6C11.0868 6.368 10.7952 6.66667 10.4346 6.66667H8.47811C7.39943 6.66667 6.52162 5.76933 6.52162 4.66667V1.34867C6.41727 1.33867 6.31163 1.33333 6.20532 1.33333H3.26081C2.18213 1.33333 1.30432 2.23067 1.30432 3.33333V12.6667C1.30432 13.7693 2.18213 14.6667 3.26081 14.6667H9.13027C9.49091 14.6667 9.78243 14.9653 9.78243 15.3333ZM13.49 10.8447L11.5067 10.5067C11.2635 10.4653 11.0868 10.252 11.0868 10C11.0868 9.63267 11.3789 9.33333 11.7389 9.33333H13.218C13.4502 9.33333 13.6667 9.46133 13.7834 9.66667C13.9628 9.98533 14.3606 10.094 14.6743 9.91C14.986 9.72533 15.093 9.318 14.9117 8.99933C14.5634 8.38267 13.9139 7.99933 13.2174 7.99933H13.0426V7.33267C13.0426 6.96467 12.7511 6.666 12.3904 6.666C12.0298 6.666 11.7383 6.96467 11.7383 7.33267V7.99933C10.6596 7.99933 9.78178 8.89667 9.78178 9.99933C9.78178 10.906 10.417 11.6727 11.2915 11.8213L13.2748 12.1593C13.518 12.2007 13.6948 12.414 13.6948 12.666C13.6948 13.0333 13.4026 13.3327 13.0426 13.3327H11.5635C11.3313 13.3327 11.1148 13.2047 10.9981 12.9993C10.8187 12.68 10.4202 12.5713 10.1072 12.756C9.79547 12.9407 9.68852 13.348 9.86982 13.6667C10.2181 14.2833 10.8676 14.666 11.5641 14.666H11.7389V15.3327C11.7389 15.7007 12.0304 15.9993 12.3911 15.9993C12.7517 15.9993 13.0432 15.7007 13.0432 15.3327V14.666C14.1219 14.666 14.9997 13.7687 14.9997 12.666C14.9997 11.7593 14.3645 10.9933 13.49 10.8447ZM4.23905 10H7.82594C8.18659 10 8.47811 9.70133 8.47811 9.33333C8.47811 8.96533 8.18659 8.66667 7.82594 8.66667H4.23905C3.34037 8.66667 2.60865 9.41467 2.60865 10.3333V11.6667C2.60865 12.5853 3.34037 13.3333 4.23905 13.3333H7.82594C8.18659 13.3333 8.47811 13.0347 8.47811 12.6667C8.47811 12.2987 8.18659 12 7.82594 12H4.23905C4.05906 12 3.91297 11.8507 3.91297 11.6667V10.3333C3.91297 10.1493 4.05906 10 4.23905 10ZM3.26081 7.33333H4.56513C4.92513 7.33333 5.2173 7.03467 5.2173 6.66667C5.2173 6.29867 4.92513 6 4.56513 6H3.26081C2.90082 6 2.60865 6.29867 2.60865 6.66667C2.60865 7.03467 2.90082 7.33333 3.26081 7.33333ZM3.26081 4.66667H4.56513C4.92513 4.66667 5.2173 4.368 5.2173 4C5.2173 3.632 4.92513 3.33333 4.56513 3.33333H3.26081C2.90082 3.33333 2.60865 3.632 2.60865 4C2.60865 4.368 2.90082 4.66667 3.26081 4.66667Z" fill="#1C1C1C"/>
</svg>
