<svg width="15" height="15" viewBox="0 0 15 15" fill="none" xmlns="http://www.w3.org/2000/svg">
<path d="M14.2754 12.0493V14.375C14.2754 14.72 13.9854 15 13.6265 15C13.2677 15 12.9776 14.72 12.9776 14.375V12.0493C12.9776 11.1586 12.319 10.3854 11.4125 10.2104L7.01053 9.36226C6.7075 9.30414 6.48883 9.04725 6.48883 8.74974V4.44143C6.48883 4.10517 6.25393 3.80516 5.95415 3.75891C5.75559 3.72766 5.56742 3.77766 5.42012 3.89829C5.27477 4.01704 5.19107 4.1908 5.19107 4.37456V12.8987C5.19107 13.1387 5.04831 13.3574 4.8238 13.4618C4.60058 13.5662 4.33324 13.5381 4.13793 13.3874L2.42683 12.0749C2.1264 11.8074 1.7163 11.8211 1.47297 12.0724C1.22899 12.3243 1.24262 12.7218 1.50347 12.958L2.39698 13.7881C2.65459 14.0275 2.66237 14.4231 2.4132 14.6719C2.16468 14.92 1.75394 14.9269 1.49568 14.6875L0.608663 13.8637C-0.166751 13.163 -0.20828 11.9742 0.524308 11.2192C1.2569 10.4654 2.48977 10.4248 3.27362 11.1292L3.8933 11.6036V4.37456C3.8933 3.82391 4.14312 3.30326 4.57917 2.94575C5.01457 2.58823 5.59208 2.43448 6.16179 2.52448C7.08775 2.66886 7.78594 3.49327 7.78594 4.44081V8.23659L11.6663 8.98412C13.1775 9.27539 14.2754 10.5648 14.2754 12.0493ZM2.29965 6.56215C2.39049 6.56215 2.48198 6.54402 2.57023 6.50527C2.89597 6.36152 3.03872 5.99025 2.88948 5.67649C2.69417 5.26709 2.59554 4.82895 2.59554 4.37456C2.59554 2.65136 4.05098 1.24943 5.83995 1.24943C7.62891 1.24943 9.08436 2.65136 9.08436 4.37456C9.08436 4.8302 8.98573 5.26772 8.79106 5.67649C8.64117 5.99025 8.78392 6.36152 9.10901 6.50527C9.4367 6.64965 9.82084 6.51215 9.96943 6.19838C10.2433 5.62523 10.3821 5.01146 10.3821 4.37518C10.3821 1.96258 8.34463 0 5.83995 0C3.33526 0 1.29778 1.96196 1.29778 4.37456C1.29778 5.01021 1.43664 5.62336 1.70982 6.19776C1.81883 6.42714 2.05372 6.56215 2.29965 6.56215Z" fill="#1C1C1C"/>
</svg>
