<svg width="18" height="14" viewBox="0 0 18 14" fill="none" xmlns="http://www.w3.org/2000/svg">
<path d="M16.5008 9.47644V3.88889C16.4996 2.85787 16.1041 1.86943 15.401 1.14039C14.698 0.411353 13.7447 0.001235 12.7504 0H5.24959C4.25528 0.001235 3.30204 0.411353 2.59896 1.14039C1.89588 1.86943 1.50036 2.85787 1.49917 3.88889V9.47644C0.999107 9.65908 0.577513 10.0193 0.309063 10.4934C0.0406128 10.9675 -0.0573692 11.5248 0.0324712 12.0666C0.122312 12.6084 0.394177 13.0997 0.799914 13.4536C1.20565 13.8075 1.71908 14.001 2.24926 14H15.7507C16.2809 14.001 16.7943 13.8075 17.2001 13.4536C17.6058 13.0997 17.8777 12.6084 17.9675 12.0666C18.0574 11.5248 17.9594 10.9675 17.6909 10.4934C17.4225 10.0193 17.0009 9.65908 16.5008 9.47644ZM5.24959 1.55556H12.7504C13.3472 1.55556 13.9196 1.80139 14.3416 2.23897C14.7636 2.67656 15.0007 3.27005 15.0007 3.88889V9.33333H11.8871C11.6689 9.33318 11.4533 9.38237 11.2554 9.47748C11.0574 9.57259 10.8819 9.71132 10.7409 9.884L10.5557 10.1111H7.44358L7.25906 9.884C7.11812 9.71132 6.94256 9.57259 6.74462 9.47748C6.54667 9.38237 6.3311 9.33318 6.11293 9.33333H2.99934V3.88889C2.99934 3.27005 3.23642 2.67656 3.65842 2.23897C4.08042 1.80139 4.65278 1.55556 5.24959 1.55556ZM15.7507 12.4444H2.24926C2.05032 12.4444 1.85954 12.3625 1.71887 12.2166C1.5782 12.0708 1.49917 11.8729 1.49917 11.6667C1.49917 11.4604 1.5782 11.2626 1.71887 11.1167C1.85954 10.9708 2.05032 10.8889 2.24926 10.8889H6.11368L6.2982 11.116C6.43905 11.2886 6.61449 11.4272 6.8123 11.5224C7.01012 11.6175 7.22554 11.6667 7.44358 11.6667H10.5557C10.7738 11.6668 10.9894 11.6176 11.1874 11.5225C11.3853 11.4274 11.5609 11.2887 11.7018 11.116L11.8871 10.8889H15.7507C15.9497 10.8889 16.1405 10.9708 16.2811 11.1167C16.4218 11.2626 16.5008 11.4604 16.5008 11.6667C16.5008 11.8729 16.4218 12.0708 16.2811 12.2166C16.1405 12.3625 15.9497 12.4444 15.7507 12.4444Z" fill="#1C1C1C"/>
</svg>
