<svg width="15" height="19" viewBox="0 0 15 19" fill="none" xmlns="http://www.w3.org/2000/svg">
<path d="M13.8917 8.76997L14.7474 7.96411C14.9189 7.80262 15.0134 7.54772 14.9984 7.28491C14.9834 7.02209 14.8621 6.78461 14.673 6.6532L5.73773 0.404993C5.1247 -0.0113957 4.41645 -0.111139 3.74016 0.126345C3.06517 0.363038 2.50822 0.906085 2.17301 1.65574L1.62258 2.88433C0.948245 4.38839 1.39759 6.30172 2.61778 7.14479L6.30772 9.75633L5.51926 12.6267C5.25252 13.598 4.50645 14.2503 3.6632 14.2503H1.30433V11.8755C1.30433 11.4385 1.01216 11.0839 0.652163 11.0839C0.292169 11.0839 0 11.4385 0 11.8755V18.2084C0 18.6454 0.292169 19 0.652163 19C1.01216 19 1.30433 18.6454 1.30433 18.2084V15.8335H3.6632C5.06861 15.8335 6.31229 14.7459 6.75641 13.1278L7.45879 10.5717L9.33572 11.9C9.73484 12.1755 10.1757 12.3156 10.6218 12.3156C10.8611 12.3156 11.1024 12.2752 11.3398 12.1937C11.5726 12.113 11.7918 11.9966 11.9926 11.8478L13.0309 12.5468C13.4163 12.8064 13.9022 12.6346 14.1135 12.1652L14.6639 10.9406C14.8732 10.4751 14.7337 9.89248 14.3515 9.63521L13.61 9.13649C13.6869 8.99717 13.7815 8.87526 13.8911 8.77156L13.8917 8.76997ZM10.9831 10.6698C10.6433 10.787 10.2879 10.7348 9.98723 10.5274L3.26864 5.77293C2.65561 5.34941 2.43126 4.39235 2.76778 3.64032L3.31821 2.41173C3.48581 2.03651 3.76429 1.76578 4.10211 1.64704C4.22341 1.60508 4.34602 1.58371 4.46797 1.58371C4.68644 1.58371 4.90166 1.6502 5.09339 1.78161L13.1802 7.43611L13.0922 7.51923C12.8065 7.78758 12.5744 8.11927 12.4009 8.50478L11.7709 9.90594C11.602 10.282 11.3222 10.5527 10.9831 10.6698Z" fill="#1C1C1C"/>
</svg>
